<svg version="1.1" id="Layer_1" xmlns="http://www.w3.org/2000/svg" xmlns:xlink="http://www.w3.org/1999/xlink" x="0px" y="0px"
	 width="100%" viewBox="0 0 156 155" enable-background="new 0 0 156 155" xml:space="preserve">
<path fill="#010000" opacity="1.000000" stroke="none" 
	d="
M1.000000,133.000000 
	C1.000000,89.045868 1.000000,45.091740 1.000000,1.068804 
	C52.899845,1.068804 104.799805,1.068804 157.000000,1.068804 
	C157.000000,44.687103 157.000000,88.374893 156.743118,132.877609 
	C152.614120,127.628693 148.598267,121.651009 144.900604,115.482590 
	C137.793060,103.625816 130.836945,91.677788 123.870117,79.737206 
	C111.673691,58.833553 99.315987,38.019817 87.450165,16.929674 
	C83.209335,9.392084 74.399826,9.479403 70.399490,17.279316 
	C65.382362,27.061804 59.484879,36.394947 53.915089,45.891373 
	C43.336781,63.927269 32.685478,81.920433 22.135567,99.972878 
	C16.378431,109.824173 10.831923,119.799065 5.017516,129.615799 
	C4.175104,131.038086 2.363248,131.886200 1.000000,133.000000 
z"/>
<path fill="#EDA100" opacity="1.000000" stroke="none" 
	d="
M1.000000,133.444168 
	C2.363248,131.886200 4.175104,131.038086 5.017516,129.615799 
	C10.831923,119.799065 16.378431,109.824173 22.135567,99.972878 
	C32.685478,81.920433 43.336781,63.927269 53.915089,45.891373 
	C59.484879,36.394947 65.382362,27.061804 70.399490,17.279316 
	C74.399826,9.479403 83.209335,9.392084 87.450165,16.929674 
	C99.315987,38.019817 111.673691,58.833553 123.870117,79.737206 
	C130.836945,91.677788 137.793060,103.625816 144.900604,115.482590 
	C148.598267,121.651009 152.614120,127.628693 156.743118,133.346268 
	C157.000000,135.370560 157.000000,137.741104 156.844208,140.133240 
	C155.659821,140.891830 154.715256,141.812057 153.586182,142.329987 
	C150.695679,143.655914 147.728546,145.849136 144.782547,145.864441 
	C100.960426,146.092209 57.136456,146.085815 13.314200,145.872772 
	C10.535739,145.859253 7.773338,143.677689 4.992450,142.531433 
	C3.675045,141.988419 2.331630,141.508499 1.000001,141.000000 
	C1.000000,138.629440 1.000000,136.258896 1.000000,133.444168 
M122.738403,86.792297 
	C109.868874,64.683838 97.019432,42.563648 84.117325,20.474216 
	C80.341995,14.010560 77.736031,14.013894 73.964897,20.493391 
	C52.156143,57.964851 30.374537,95.452126 8.610807,132.949768 
	C5.849116,137.707993 7.653698,140.953583 13.261091,140.961380 
	C57.049969,141.022263 100.838997,141.021118 144.627884,140.964920 
	C150.656418,140.957184 152.336777,137.895325 149.336365,132.701324 
	C140.611847,117.598244 131.826492,102.530296 122.738403,86.792297 
z"/>
<path fill="#010000" opacity="1.000000" stroke="none" 
	d="
M1.000001,141.472656 
	C2.331630,141.508499 3.675045,141.988419 4.992450,142.531433 
	C7.773338,143.677689 10.535739,145.859253 13.314200,145.872772 
	C57.136456,146.085815 100.960426,146.092209 144.782547,145.864441 
	C147.728546,145.849136 150.695679,143.655914 153.586182,142.329987 
	C154.715256,141.812057 155.659821,140.891830 156.844208,140.577423 
	C157.000000,145.987991 157.000000,150.975998 157.000000,155.959915 
	C104.999985,155.955841 52.999977,155.955841 1.000000,155.955841 
	C1.000000,151.256226 1.000000,146.600769 1.000001,141.472656 
z"/>
<path fill="#070500" opacity="1.000000" stroke="none" 
	d="
M122.901703,87.120438 
	C131.826492,102.530296 140.611847,117.598244 149.336365,132.701324 
	C152.336777,137.895325 150.656418,140.957184 144.627884,140.964920 
	C100.838997,141.021118 57.049969,141.022263 13.261091,140.961380 
	C7.653698,140.953583 5.849116,137.707993 8.610807,132.949768 
	C30.374537,95.452126 52.156143,57.964851 73.964897,20.493391 
	C77.736031,14.013894 80.341995,14.010560 84.117325,20.474216 
	C97.019432,42.563648 109.868874,64.683838 122.901703,87.120438 
M107.115105,77.420448 
	C97.896477,61.548618 88.677856,45.676788 79.048775,29.098269 
	C58.935184,63.736671 39.301815,97.548073 19.376408,131.862396 
	C59.444073,131.862396 98.651611,131.862396 138.721695,131.862396 
	C128.099976,113.557419 117.796623,95.801109 107.115105,77.420448 
z"/>
<path fill="#F7A700" opacity="1.000000" stroke="none" 
	d="
M107.304184,77.732620 
	C117.796623,95.801109 128.099976,113.557419 138.721695,131.862396 
	C98.651611,131.862396 59.444073,131.862396 19.376408,131.862396 
	C39.301815,97.548073 58.935184,63.736671 79.048775,29.098269 
	C88.677856,45.676788 97.896477,61.548618 107.304184,77.732620 
M84.769051,94.132988 
	C86.032928,84.649277 87.134094,75.139702 88.635841,65.693810 
	C89.293022,61.560146 87.408043,58.944870 84.494843,56.890110 
	C81.084175,54.484478 77.301926,54.471630 73.770073,56.768890 
	C70.680092,58.778751 68.998520,61.478695 69.630760,65.490143 
	C70.606110,71.678543 71.177139,77.929451 72.034477,84.137993 
	C72.869125,90.182068 73.607498,96.259605 74.926262,102.203049 
	C75.272942,103.765488 77.620148,105.931068 79.035156,105.920990 
	C80.510513,105.910484 82.575226,103.871147 83.286919,102.240700 
	C84.239807,100.057693 84.139183,97.414818 84.769051,94.132988 
M73.386047,121.052345 
	C75.941963,124.019997 79.230705,125.620285 82.419510,122.886986 
	C84.194351,121.365685 85.552376,118.158096 85.382919,115.835640 
	C85.092323,111.852676 81.058746,109.869453 77.257172,110.952347 
	C73.168060,112.117149 71.777779,115.214409 73.386047,121.052345 
z"/>
<path fill="#050300" opacity="1.000000" stroke="none" 
	d="
M84.629990,94.551193 
	C84.139183,97.414818 84.239807,100.057693 83.286919,102.240700 
	C82.575226,103.871147 80.510513,105.910484 79.035156,105.920990 
	C77.620148,105.931068 75.272942,103.765488 74.926262,102.203049 
	C73.607498,96.259605 72.869125,90.182068 72.034477,84.137993 
	C71.177139,77.929451 70.606110,71.678543 69.630760,65.490143 
	C68.998520,61.478695 70.680092,58.778751 73.770073,56.768890 
	C77.301926,54.471630 81.084175,54.484478 84.494843,56.890110 
	C87.408043,58.944870 89.293022,61.560146 88.635841,65.693810 
	C87.134094,75.139702 86.032928,84.649277 84.629990,94.551193 
z"/>
<path fill="#0C0800" opacity="1.000000" stroke="none" 
	d="
M73.204819,120.718124 
	C71.777779,115.214409 73.168060,112.117149 77.257172,110.952347 
	C81.058746,109.869453 85.092323,111.852676 85.382919,115.835640 
	C85.552376,118.158096 84.194351,121.365685 82.419510,122.886986 
	C79.230705,125.620285 75.941963,124.019997 73.204819,120.718124 
z"/>
</svg>