<svg version="1.1" id="Layer_1" xmlns="http://www.w3.org/2000/svg" xmlns:xlink="http://www.w3.org/1999/xlink" x="0px" y="0px"
	 width="100%" viewBox="0 0 137 138" enable-background="new 0 0 137 138" xml:space="preserve">
<path fill="#E2A0B6" opacity="1.000000" stroke="none" 
	d="
M88.000000,139.000000 
	C75.979103,139.000000 63.958210,139.000000 51.814987,138.717117 
	C48.171932,136.957687 44.532623,135.710983 41.150330,133.966110 
	C23.368891,124.792892 10.040640,111.570282 3.533340,92.189507 
	C3.126983,90.979240 1.864286,90.056503 0.999999,89.000000 
	C1.000000,76.645775 1.000000,64.291542 1.288343,51.807304 
	C2.056098,50.881371 2.609292,50.120213 3.003239,49.284035 
	C6.140676,42.624607 8.062437,34.968609 12.607810,29.483360 
	C22.486671,17.561781 33.801872,6.901227 49.646309,2.924223 
	C50.222252,2.779661 50.554295,1.663407 51.000000,1.000001 
	C63.020893,1.000000 75.041786,1.000000 87.196945,1.289909 
	C91.738106,3.441390 96.386810,4.880195 100.509644,7.238395 
	C117.520889,16.968590 129.978821,30.640459 136.077957,49.613049 
	C136.272659,50.218739 137.339645,50.544006 138.000000,51.000000 
	C138.000000,63.354229 138.000000,75.708458 137.704758,88.203018 
	C136.935715,89.144440 136.394531,89.913704 135.998810,90.751671 
	C132.855057,97.408867 130.922043,105.061111 126.371384,110.543709 
	C116.481842,122.458557 105.176857,133.138748 89.311752,137.083542 
	C88.750374,137.223129 88.431763,138.339096 88.000000,139.000000 
M98.218948,41.955971 
	C98.156387,40.334671 98.093826,38.713375 98.409195,36.464535 
	C100.959106,33.053829 100.644890,29.468712 97.228500,27.437719 
	C95.313110,26.299046 91.412636,26.281603 89.664230,27.526016 
	C85.599174,30.419287 86.833183,34.419998 89.273270,38.793098 
	C89.224670,40.129032 89.176071,41.464970 88.705528,42.993721 
	C88.705528,42.993721 88.272285,43.159595 87.471138,43.012871 
	C86.394623,43.053230 85.318108,43.093594 83.388664,42.981922 
	C81.666374,43.041046 79.944092,43.100174 77.406898,43.024529 
	C76.313492,43.064247 75.220085,43.103970 73.303093,43.004498 
	C71.378639,43.052891 69.454185,43.101284 66.717438,43.022511 
	C65.639099,43.058895 64.560753,43.095280 62.629688,42.988987 
	C60.915329,43.042686 59.200974,43.096386 56.708023,43.027321 
	C55.429245,43.038429 54.150471,43.049541 51.864017,42.880871 
	C51.188770,42.785000 50.513523,42.689133 49.853268,41.830990 
	C49.757881,40.559048 49.662498,39.287106 50.002140,37.379322 
	C52.424156,34.532249 52.886776,31.410238 50.557339,28.428339 
	C48.178314,25.382961 44.868706,24.945021 41.835217,27.213924 
	C38.123665,29.989986 38.215466,33.530010 40.883507,37.900463 
	C40.830273,39.525452 40.777039,41.150444 39.870365,42.873161 
	C37.611031,43.592873 33.462669,44.180546 33.401623,45.053913 
	C33.029839,50.372948 33.587662,55.756962 34.334881,61.719402 
	C36.152271,61.755524 37.969666,61.791649 40.262699,62.043987 
	C40.428368,62.097713 40.594032,62.151440 40.794716,62.968037 
	C40.769238,64.240219 40.743755,65.512398 39.864311,66.872810 
	C37.577412,67.694832 33.477371,65.078262 33.189884,69.486221 
	C32.854370,74.630592 33.526436,79.840675 34.245602,85.657837 
	C36.091503,85.713989 37.937401,85.770142 40.272816,86.043236 
	C40.442192,86.099327 40.611565,86.155426 40.802971,87.120750 
	C40.795780,93.312798 40.788589,99.504852 40.023724,105.838760 
	C36.174217,106.078079 37.481575,109.053047 37.497925,111.056885 
	C37.505898,112.034210 38.630814,113.807358 39.323391,113.844223 
	C44.004353,114.093376 48.704918,113.974220 53.731785,113.974220 
	C53.087990,110.252716 56.006889,105.809250 49.818760,104.807114 
	C49.816666,98.597664 49.814571,92.388214 50.253311,85.965454 
	C50.253311,85.965454 50.714142,85.799713 51.513977,85.953522 
	C52.589993,85.909607 53.666004,85.865700 55.577557,85.978897 
	C57.267147,85.924370 58.956741,85.869843 61.464672,85.958977 
	C62.560581,85.912170 63.656487,85.865356 65.580757,85.970520 
	C67.516060,85.921623 69.451355,85.872726 72.218063,85.951347 
	C73.318848,85.907867 74.419640,85.864388 76.359421,85.970123 
	C78.048447,85.922554 79.737473,85.874985 82.321541,85.952896 
	C83.512283,85.907013 84.703018,85.861122 86.716064,85.953331 
	C87.548401,86.038162 88.380730,86.122986 89.196236,87.117523 
	C89.193153,93.313972 89.190079,99.510414 88.344131,105.855972 
	C82.307175,107.045914 86.316299,110.960281 85.650139,113.789268 
	C91.091042,113.789268 95.977982,113.789268 100.799767,113.789268 
	C102.381248,107.708588 102.099915,106.872719 98.196815,104.799179 
	C98.208794,98.595078 98.220772,92.390968 99.074196,86.089172 
	C101.444427,85.367027 105.538666,87.733124 105.800133,83.275742 
	C106.105751,78.065369 105.484856,72.800659 104.613632,67.152420 
	C102.816856,67.147125 101.020073,67.141830 98.753090,66.918579 
	C98.589218,66.864037 98.425354,66.809486 98.220856,65.995995 
	C98.230194,64.725571 98.239532,63.455143 99.093231,62.091686 
	C101.459312,61.369705 105.549294,63.734600 105.803566,59.270851 
	C106.100098,54.065121 105.481216,48.807243 104.611336,43.157948 
	C102.813545,43.154419 101.015762,43.150890 98.748505,42.928108 
	C98.584900,42.872913 98.421295,42.817715 98.218948,41.955971 
z"/>
<path fill="#000000" opacity="1.000000" stroke="none" 
	d="
M138.000000,50.531342 
	C137.339645,50.544006 136.272659,50.218739 136.077957,49.613049 
	C129.978821,30.640459 117.520889,16.968590 100.509644,7.238395 
	C96.386810,4.880195 91.738106,3.441390 87.665604,1.289909 
	C104.593407,1.000000 121.186821,1.000000 138.000000,1.000000 
	C138.000000,17.353571 138.000000,33.708126 138.000000,50.531342 
z"/>
<path fill="#000000" opacity="1.000000" stroke="none" 
	d="
M50.531342,1.000001 
	C50.554295,1.663407 50.222252,2.779661 49.646309,2.924223 
	C33.801872,6.901227 22.486671,17.561781 12.607810,29.483360 
	C8.062437,34.968609 6.140676,42.624607 3.003239,49.284035 
	C2.609292,50.120213 2.056098,50.881371 1.288343,51.338646 
	C1.000000,34.406586 1.000000,17.813171 1.000000,1.000000 
	C17.353571,1.000000 33.708126,1.000000 50.531342,1.000001 
z"/>
<path fill="#000000" opacity="1.000000" stroke="none" 
	d="
M88.468658,139.000000 
	C88.431763,138.339096 88.750374,137.223129 89.311752,137.083542 
	C105.176857,133.138748 116.481842,122.458557 126.371384,110.543709 
	C130.922043,105.061111 132.855057,97.408867 135.998810,90.751671 
	C136.394531,89.913704 136.935715,89.144440 137.704758,88.671677 
	C138.000000,105.593414 138.000000,122.186829 138.000000,139.000000 
	C121.646431,139.000000 105.291870,139.000000 88.468658,139.000000 
z"/>
<path fill="#000000" opacity="1.000000" stroke="none" 
	d="
M0.999999,89.468658 
	C1.864286,90.056503 3.126983,90.979240 3.533340,92.189507 
	C10.040640,111.570282 23.368891,124.792892 41.150330,133.966110 
	C44.532623,135.710983 48.171932,136.957687 51.346329,138.717117 
	C34.406586,139.000000 17.813169,139.000000 1.000000,139.000000 
	C1.000000,122.646431 1.000000,106.291870 0.999999,89.468658 
z"/>
<path fill="#FA8531" opacity="1.000000" stroke="none" 
	d="
M89.186996,105.706863 
	C89.190079,99.510414 89.193153,93.313972 89.507217,86.601959 
	C90.640343,85.981781 91.462479,85.877182 92.777512,85.831184 
	C94.924515,85.988823 96.578636,86.087845 98.232750,86.186867 
	C98.220772,92.390968 98.208794,98.595078 97.746964,105.325294 
	C94.593742,105.803230 91.890373,105.755043 89.186996,105.706863 
z"/>
<path fill="#FA8531" opacity="1.000000" stroke="none" 
	d="
M40.781399,105.696899 
	C40.788589,99.504852 40.795780,93.312798 41.195862,86.611809 
	C42.398911,86.035904 43.209072,85.968941 44.436119,85.938202 
	C46.506165,86.042549 48.159321,86.110657 49.812477,86.178764 
	C49.814571,92.388214 49.816666,98.597664 49.384468,105.330452 
	C46.227249,105.801491 43.504326,105.749191 40.781399,105.696899 
z"/>
<path fill="#F7C81F" opacity="1.000000" stroke="none" 
	d="
M98.653473,86.138016 
	C96.578636,86.087845 94.924515,85.988823 92.885010,85.481873 
	C96.755043,79.235802 101.010483,73.397659 105.265923,67.559517 
	C105.484856,72.800659 106.105751,78.065369 105.800133,83.275742 
	C105.538666,87.733124 101.444427,85.367027 98.653473,86.138016 
z"/>
<path fill="#F7C81F" opacity="1.000000" stroke="none" 
	d="
M105.259552,43.571995 
	C105.481216,48.807243 106.100098,54.065121 105.803566,59.270851 
	C105.549294,63.734600 101.459312,61.369705 98.176453,62.089420 
	C95.600136,61.989941 93.940590,61.892727 92.388763,61.446644 
	C96.750839,55.255852 101.005196,49.413921 105.259552,43.571995 
z"/>
<path fill="#F8C81F" opacity="1.000000" stroke="none" 
	d="
M33.835308,61.119293 
	C33.587662,55.756962 33.029839,50.372948 33.401623,45.053913 
	C33.462669,44.180546 37.611031,43.592873 40.733994,42.876293 
	C43.335499,42.934948 45.073376,42.990475 46.673691,43.344101 
	C42.302517,49.467903 38.068913,55.293598 33.835308,61.119293 
z"/>
<path fill="#EA4A59" opacity="1.000000" stroke="none" 
	d="
M40.968979,37.093739 
	C38.215466,33.530010 38.123665,29.989986 41.835217,27.213924 
	C44.868706,24.945021 48.178314,25.382961 50.557339,28.428339 
	C52.886776,31.410238 52.424156,34.532249 49.448727,37.774715 
	C46.253201,37.811317 43.611092,37.452530 40.968979,37.093739 
z"/>
<path fill="#F8C81F" opacity="1.000000" stroke="none" 
	d="
M33.761322,85.022247 
	C33.526436,79.840675 32.854370,74.630592 33.189884,69.486221 
	C33.477371,65.078262 37.577412,67.694832 40.729866,66.880142 
	C43.338348,66.942215 45.081272,66.996956 46.696636,67.353653 
	C42.299824,73.444481 38.030571,79.233360 33.761322,85.022247 
z"/>
<path fill="#5D4844" opacity="1.000000" stroke="none" 
	d="
M88.765564,105.781418 
	C91.890373,105.755043 94.593742,105.803230 97.757759,105.774170 
	C102.099915,106.872719 102.381248,107.708588 100.799767,113.789268 
	C95.977982,113.789268 91.091042,113.789268 85.650139,113.789268 
	C86.316299,110.960281 82.307175,107.045914 88.765564,105.781418 
z"/>
<path fill="#5D4844" opacity="1.000000" stroke="none" 
	d="
M40.402561,105.767830 
	C43.504326,105.749191 46.227249,105.801491 49.381668,105.780075 
	C56.006889,105.809250 53.087990,110.252716 53.731785,113.974220 
	C48.704918,113.974220 44.004353,114.093376 39.323391,113.844223 
	C38.630814,113.807358 37.505898,112.034210 37.497925,111.056885 
	C37.481575,109.053047 36.174217,106.078079 40.402561,105.767830 
z"/>
<path fill="#EA4A59" opacity="1.000000" stroke="none" 
	d="
M89.434700,37.999916 
	C86.833183,34.419998 85.599174,30.419287 89.664230,27.526016 
	C91.412636,26.281603 95.313110,26.299046 97.228500,27.437719 
	C100.644890,29.468712 100.959106,33.053829 97.903534,36.937187 
	C94.743484,37.606533 92.089088,37.803226 89.434700,37.999916 
z"/>
<path fill="#5E4B3D" opacity="1.000000" stroke="none" 
	d="
M34.003464,85.340042 
	C38.030571,79.233360 42.299824,73.444481 47.072433,67.308762 
	C48.324646,66.893349 49.073494,66.824783 50.285118,66.824203 
	C51.677757,66.970947 52.607632,67.049706 53.366123,67.440659 
	C48.724262,73.777344 44.253784,79.801819 39.783302,85.826286 
	C37.937401,85.770142 36.091503,85.713989 34.003464,85.340042 
z"/>
<path fill="#5E4A3E" opacity="1.000000" stroke="none" 
	d="
M104.935440,43.364971 
	C101.005196,49.413921 96.750839,55.255852 92.089935,61.514076 
	C90.866631,62.018078 90.049873,62.105778 88.759399,62.124443 
	C87.332069,61.977489 86.378441,61.899574 85.577301,61.498508 
	C90.225838,55.166027 94.721909,49.156693 99.217972,43.147362 
	C101.015762,43.150890 102.813545,43.154419 104.935440,43.364971 
z"/>
<path fill="#5E4B3D" opacity="1.000000" stroke="none" 
	d="
M104.939774,67.355972 
	C101.010483,73.397659 96.755043,79.235802 92.392113,85.423264 
	C91.462479,85.877182 90.640343,85.981781 89.515640,86.147095 
	C88.380730,86.122986 87.548401,86.038162 86.421501,85.570236 
	C90.492386,79.170280 94.857841,73.153404 99.223297,67.136536 
	C101.020073,67.141830 102.816856,67.147125 104.939774,67.355972 
z"/>
<path fill="#5F4B3D" opacity="1.000000" stroke="none" 
	d="
M57.486614,43.150085 
	C59.200974,43.096386 60.915329,43.042686 62.899414,43.379555 
	C58.810528,49.783314 54.451916,55.796501 50.115532,61.811264 
	C50.137760,61.812843 50.153435,61.779739 49.713261,61.850685 
	C47.484035,61.918625 45.694988,61.915623 44.014221,61.589703 
	C48.577209,55.227882 53.031910,49.188984 57.486614,43.150085 
z"/>
<path fill="#5E4B3D" opacity="1.000000" stroke="none" 
	d="
M34.085094,61.419350 
	C38.068913,55.293598 42.302517,49.467903 47.054703,43.283211 
	C48.328278,42.813892 49.083279,42.703579 49.838276,42.593262 
	C50.513523,42.689133 51.188770,42.785000 52.224201,43.321152 
	C48.318607,49.783543 44.052830,55.805656 39.787056,61.827766 
	C37.969666,61.791649 36.152271,61.755524 34.085094,61.419350 
z"/>
<path fill="#5E4A3D" opacity="1.000000" stroke="none" 
	d="
M50.032894,86.072113 
	C48.159321,86.110657 46.506165,86.042549 44.545971,85.625778 
	C48.571880,79.240707 52.904827,73.204285 57.652355,67.100471 
	C59.761578,67.071907 61.456215,67.110725 63.023819,67.465378 
	C58.835899,73.787376 54.775021,79.793541 50.714142,85.799713 
	C50.714142,85.799713 50.253311,85.965454 50.032894,86.072113 
z"/>
<path fill="#5E4A3D" opacity="1.000000" stroke="none" 
	d="
M88.272285,43.159592 
	C88.272285,43.159595 88.705528,42.993721 89.334076,42.944717 
	C91.385643,42.941948 92.808662,42.988182 94.185242,43.388870 
	C89.902000,49.759342 85.665207,55.775356 81.028442,61.872066 
	C78.941727,61.908733 77.254982,61.864700 75.733147,61.512627 
	C80.022797,55.189590 84.147537,49.174591 88.272285,43.159592 
z"/>
<path fill="#5E4A3D" opacity="1.000000" stroke="none" 
	d="
M81.426498,85.827415 
	C79.737473,85.874985 78.048447,85.922554 76.073029,85.567604 
	C79.995110,79.173058 84.203575,73.181030 88.595108,67.120407 
	C88.778183,67.051811 89.121674,66.863586 89.539299,66.888329 
	C91.634850,66.967697 93.312767,67.022324 94.883865,67.392746 
	C90.326851,73.748161 85.876671,79.787788 81.426498,85.827415 
z"/>
<path fill="#5D493E" opacity="1.000000" stroke="none" 
	d="
M67.529732,43.149677 
	C69.454185,43.101284 71.378639,43.052891 73.581757,43.381592 
	C69.433365,49.771103 65.006294,55.783520 60.173187,61.866116 
	C58.088196,61.893051 56.409252,61.849808 54.822067,61.472389 
	C59.119125,55.142029 63.324429,49.145851 67.529732,43.149677 
z"/>
<path fill="#5E4A3E" opacity="1.000000" stroke="none" 
	d="
M60.646332,85.815323 
	C58.956741,85.869843 57.267147,85.924370 55.297768,85.587524 
	C59.267044,79.192490 63.516113,73.188820 68.168655,67.101700 
	C70.300179,67.052139 72.028236,67.086021 73.640068,67.470123 
	C69.231346,73.818665 64.938835,79.816994 60.646332,85.815323 
z"/>
<path fill="#5D4A3E" opacity="1.000000" stroke="none" 
	d="
M78.221802,43.159298 
	C79.944092,43.100174 81.666374,43.041046 83.670792,43.368393 
	C79.498009,49.771160 75.043083,55.787460 70.182602,61.872398 
	C68.101326,61.898178 66.425621,61.855324 64.903671,61.510574 
	C69.445564,55.192215 73.833679,49.175755 78.221802,43.159298 
z"/>
<path fill="#5C493E" opacity="1.000000" stroke="none" 
	d="
M71.386658,85.823830 
	C69.451355,85.872726 67.516060,85.921623 65.324371,85.595200 
	C69.514961,79.203896 73.961922,73.187912 78.812607,67.098450 
	C80.884567,67.064369 82.552818,67.103775 84.078766,67.453796 
	C79.753197,73.784210 75.569931,79.804024 71.386658,85.823830 
z"/>
<path fill="#EAC11E" opacity="1.000000" stroke="none" 
	d="
M78.408882,67.171936 
	C73.961922,73.187912 69.514961,79.203896 64.910194,85.519211 
	C63.656487,85.865356 62.560581,85.912170 61.055504,85.887146 
	C64.938835,79.816994 69.231346,73.818665 74.016869,67.419250 
	C75.809555,67.069420 77.109215,67.120682 78.408882,67.171936 
z"/>
<path fill="#EDC21D" opacity="1.000000" stroke="none" 
	d="
M77.814346,43.091911 
	C73.833679,49.175755 69.445564,55.192215 64.491470,61.571369 
	C62.810078,61.888023 61.694656,61.841980 60.579231,61.795937 
	C65.006294,55.783520 69.433365,49.771103 73.993553,43.451191 
	C75.220085,43.103970 76.313492,43.064247 77.814346,43.091911 
z"/>
<path fill="#EAC01E" opacity="1.000000" stroke="none" 
	d="
M71.802361,85.887589 
	C75.569931,79.804024 79.753197,73.784210 84.493622,67.394180 
	C86.171196,67.078979 87.291618,67.133995 88.412041,67.189003 
	C84.203575,73.181030 79.995110,79.173058 75.653534,85.492996 
	C74.419640,85.864388 73.318848,85.907867 71.802361,85.887589 
z"/>
<path fill="#ECC21D" opacity="1.000000" stroke="none" 
	d="
M70.588158,61.803761 
	C75.043083,55.787460 79.498009,49.771160 84.097260,43.444408 
	C85.318108,43.093594 86.394623,43.053230 87.871712,43.086231 
	C84.147537,49.174591 80.022797,55.189590 75.327927,61.574650 
	C73.367920,61.897728 71.978035,61.850742 70.588158,61.803761 
z"/>
<path fill="#EDC31D" opacity="1.000000" stroke="none" 
	d="
M67.765182,67.185150 
	C63.516113,73.188820 59.267044,79.192490 54.879997,85.508972 
	C53.666004,85.865700 52.589993,85.909607 51.114059,85.876617 
	C54.775021,79.793541 58.835899,73.787376 63.480064,67.406456 
	C65.297295,67.082855 66.531242,67.134003 67.765182,67.185150 
z"/>
<path fill="#EEC31D" opacity="1.000000" stroke="none" 
	d="
M81.874016,85.890152 
	C85.876671,79.787788 90.326851,73.748161 95.292923,67.361435 
	C96.626366,66.927872 97.443924,66.841400 98.261482,66.754929 
	C98.425354,66.809486 98.589218,66.864037 98.988190,67.027557 
	C94.857841,73.153404 90.492386,79.170280 86.010345,85.501190 
	C84.703018,85.861122 83.512283,85.907013 81.874016,85.890152 
z"/>
<path fill="#ECC21E" opacity="1.000000" stroke="none" 
	d="
M67.123581,43.086094 
	C63.324429,49.145851 59.119125,55.142029 54.365433,61.539146 
	C52.575798,61.896622 51.334553,61.853153 50.093304,61.809685 
	C54.451916,55.796501 58.810528,49.783314 63.325775,43.450897 
	C64.560753,43.095280 65.639099,43.058895 67.123581,43.086094 
z"/>
<path fill="#EEC31D" opacity="1.000000" stroke="none" 
	d="
M40.024876,61.935875 
	C44.052830,55.805656 48.318607,49.783543 52.728039,43.411041 
	C54.150471,43.049541 55.429245,43.038429 57.097321,43.088699 
	C53.031910,49.188984 48.577209,55.227882 43.621498,61.619438 
	C42.333565,62.049786 41.546631,62.127472 40.759701,62.205162 
	C40.594032,62.151440 40.428368,62.097713 40.024876,61.935875 
z"/>
<path fill="#EDC31D" opacity="1.000000" stroke="none" 
	d="
M81.428413,61.791367 
	C85.665207,55.775356 89.902000,49.759342 94.586685,43.375538 
	C96.108940,42.926003 97.183319,42.844261 98.257690,42.762520 
	C98.421295,42.817715 98.584900,42.872913 98.983238,43.037735 
	C94.721909,49.156693 90.225838,55.166027 85.185837,61.560753 
	C83.570740,61.894554 82.499580,61.842960 81.428413,61.791367 
z"/>
<path fill="#EDC31D" opacity="1.000000" stroke="none" 
	d="
M57.237770,67.167862 
	C52.904827,73.204285 48.571880,79.240707 44.129082,85.589554 
	C43.209072,85.968941 42.398911,86.035904 41.184845,86.157196 
	C40.611565,86.155426 40.442192,86.099327 40.028061,85.934761 
	C44.253784,79.801819 48.724262,73.777344 53.729980,67.385826 
	C55.256069,67.068474 56.246918,67.118164 57.237770,67.167862 
z"/>
<path fill="#F78730" opacity="1.000000" stroke="none" 
	d="
M40.777206,62.586601 
	C41.546631,62.127472 42.333565,62.049786 43.513214,61.942360 
	C45.694988,61.915623 47.484035,61.918625 49.609184,62.257149 
	C49.904305,63.980518 49.863323,65.368370 49.822342,66.756218 
	C49.073494,66.824783 48.324646,66.893349 47.199997,67.006805 
	C45.081272,66.996956 43.338348,66.942215 41.156845,66.836021 
	C40.743755,65.512398 40.769238,64.240219 40.777206,62.586601 
z"/>
<path fill="#F78630" opacity="1.000000" stroke="none" 
	d="
M98.241165,66.375458 
	C97.443924,66.841400 96.626366,66.927872 95.399750,67.045647 
	C93.312767,67.022324 91.634850,66.967697 89.553726,66.500671 
	C89.178055,64.790009 89.205582,63.491745 89.233109,62.193478 
	C90.049873,62.105778 90.866631,62.018078 91.982224,61.862946 
	C93.940590,61.892727 95.600136,61.989941 97.754272,62.135937 
	C98.239532,63.455143 98.230194,64.725571 98.241165,66.375458 
z"/>
<path fill="#F78531" opacity="1.000000" stroke="none" 
	d="
M98.238319,42.359245 
	C97.183319,42.844261 96.108940,42.926003 94.633133,43.021080 
	C92.808662,42.988182 91.385643,42.941948 89.545044,42.848312 
	C89.176071,41.464970 89.224670,40.129032 89.353989,38.396507 
	C92.089088,37.803226 94.743484,37.606533 97.714569,37.250957 
	C98.093826,38.713375 98.156387,40.334671 98.238319,42.359245 
z"/>
<path fill="#F78531" opacity="1.000000" stroke="none" 
	d="
M49.845772,42.212128 
	C49.083279,42.703579 48.328278,42.813892 47.192268,42.985104 
	C45.073376,42.990475 43.335499,42.934948 41.160713,42.827431 
	C40.777039,41.150444 40.830273,39.525452 40.926243,37.497101 
	C43.611092,37.452530 46.253201,37.811317 49.231216,38.092636 
	C49.662498,39.287106 49.757881,40.559048 49.845772,42.212128 
z"/>
<path fill="#E09FB1" opacity="1.000000" stroke="none" 
	d="
M88.759399,62.124443 
	C89.205582,63.491745 89.178055,64.790009 89.136101,66.475937 
	C89.121674,66.863586 88.778183,67.051811 88.595108,67.120407 
	C87.291618,67.133995 86.171196,67.078979 84.635918,67.083572 
	C82.552818,67.103775 80.884567,67.064369 78.812607,67.098450 
	C77.109215,67.120682 75.809555,67.069420 74.133087,67.069031 
	C72.028236,67.086021 70.300179,67.052139 68.168655,67.101700 
	C66.531242,67.134003 65.297295,67.082855 63.607105,67.090630 
	C61.456215,67.110725 59.761578,67.071907 57.652351,67.100464 
	C56.246918,67.118164 55.256069,67.068474 53.901360,67.073624 
	C52.607632,67.049706 51.677757,66.970947 50.285114,66.824203 
	C49.863323,65.368370 49.904305,63.980518 50.049358,62.186203 
	C50.153435,61.779739 50.137760,61.812843 50.115532,61.811264 
	C51.334553,61.853153 52.575798,61.896622 54.273678,61.873329 
	C56.409252,61.849808 58.088196,61.893051 60.173187,61.866119 
	C61.694656,61.841980 62.810078,61.888023 64.337708,61.873268 
	C66.425621,61.855324 68.101326,61.898178 70.182602,61.872398 
	C71.978035,61.850742 73.367920,61.897728 75.163017,61.882690 
	C77.254982,61.864700 78.941727,61.908733 81.028442,61.872063 
	C82.499580,61.842960 83.570740,61.894554 85.033363,61.883904 
	C86.378441,61.899574 87.332069,61.977489 88.759399,62.124443 
z"/>
</svg>