<svg version="1.1" id="Layer_1" xmlns="http://www.w3.org/2000/svg" xmlns:xlink="http://www.w3.org/1999/xlink" x="0px" y="0px"
	 width="100%" viewBox="0 0 140 140" enable-background="new 0 0 140 140" xml:space="preserve">
<path fill="#F55B4B" opacity="1.000000" stroke="none" 
	d="
M1.000001,86.000000 
	C1.000000,76.312439 1.000000,66.624878 1.312002,56.803589 
	C2.049792,56.176983 2.766003,55.733124 2.858675,55.184029 
	C4.906793,43.048611 10.789019,32.742619 18.844292,23.815456 
	C28.463083,13.155541 40.318237,5.858285 54.598656,2.898858 
	C55.172306,2.779977 55.537617,1.655790 56.000000,1.000000 
	C65.687561,1.000000 75.375122,1.000000 85.196365,1.311969 
	C85.823036,2.049762 86.268211,2.768996 86.816048,2.858265 
	C98.799782,4.811027 108.972427,10.650878 117.813286,18.494904 
	C128.680832,28.137104 136.111511,40.127094 139.101227,54.597366 
	C139.219788,55.171185 140.344238,55.537174 141.000000,56.000000 
	C141.000000,65.687561 141.000000,75.375122 140.687653,85.196449 
	C139.805328,87.135086 139.278290,88.954826 138.658890,90.742577 
	C129.986115,115.774452 113.698334,132.720688 87.400002,139.096359 
	C86.813942,139.238434 86.461449,140.343933 86.000000,141.000000 
	C76.312439,141.000000 66.624878,141.000000 56.804440,140.690643 
	C54.731842,139.692398 52.803314,138.969879 50.850704,138.319717 
	C25.724272,129.953506 9.307361,113.413063 2.903674,87.398170 
	C2.759252,86.811462 1.655997,86.460777 1.000001,86.000000 
M123.798882,44.193386 
	C122.903923,39.940468 120.038925,38.936649 116.046219,38.950649 
	C93.726646,39.028915 71.406525,38.947018 48.774231,38.315815 
	C46.874542,36.261993 45.281231,36.675076 43.127968,38.980045 
	C42.074581,39.037354 41.021198,39.094662 39.383999,38.794907 
	C37.468884,36.314869 35.681114,36.647324 33.198128,39.010525 
	C32.146275,39.001991 31.094419,38.993458 29.683767,38.411877 
	C27.829668,36.274761 26.253483,36.675442 24.076214,38.979980 
	C17.796251,39.290974 16.966936,40.100273 16.959873,46.180550 
	C16.955681,49.790432 17.057308,53.400433 16.717655,57.665874 
	C13.852538,65.853706 14.539956,68.073357 20.454746,69.732811 
	C27.509459,71.712097 28.979143,75.071548 25.651957,81.791725 
	C22.150908,88.863037 18.528669,95.874992 15.083256,102.973007 
	C12.632260,108.022392 14.356982,110.696938 20.922228,111.069229 
	C26.736092,111.082542 32.551495,111.183975 38.363350,111.082268 
	C43.320030,110.995522 44.020103,109.541100 41.722942,104.295082 
	C42.370014,102.949562 43.005005,101.598083 43.666039,100.259460 
	C49.719334,88.001312 49.730419,87.696426 63.116501,88.124458 
	C70.345886,88.355621 76.304794,87.833000 77.926628,79.230721 
	C78.128868,78.158043 78.966621,77.176987 79.609550,76.220459 
	C82.427490,72.028008 85.729004,69.317581 91.450294,69.796761 
	C98.217255,70.363525 105.076401,69.720245 111.885223,69.932953 
	C116.872734,70.088768 121.028557,68.896454 124.890442,64.779015 
	C126.358749,63.824547 129.014587,62.961555 129.096344,61.900280 
	C129.522934,56.362473 129.295349,50.774269 129.295349,44.891747 
	C126.956917,44.891747 125.476425,44.891747 123.798882,44.193386 
z"/>
<path fill="#000000" opacity="1.000000" stroke="none" 
	d="
M86.468658,141.000000 
	C86.461449,140.343933 86.813942,139.238434 87.400002,139.096359 
	C113.698334,132.720688 129.986115,115.774452 138.658890,90.742577 
	C139.278290,88.954826 139.805328,87.135086 140.687653,85.665108 
	C141.000000,104.260117 141.000000,122.520233 141.000000,141.000000 
	C122.979698,141.000000 104.958511,141.000000 86.468658,141.000000 
z"/>
<path fill="#000000" opacity="1.000000" stroke="none" 
	d="
M55.531342,1.000000 
	C55.537617,1.655790 55.172306,2.779977 54.598656,2.898858 
	C40.318237,5.858285 28.463083,13.155541 18.844292,23.815456 
	C10.789019,32.742619 4.906793,43.048611 2.858675,55.184029 
	C2.766003,55.733124 2.049792,56.176983 1.312002,56.334930 
	C1.000000,37.739887 1.000000,19.479771 1.000000,1.000000 
	C19.020300,1.000000 37.041492,1.000000 55.531342,1.000000 
z"/>
<path fill="#000000" opacity="1.000000" stroke="none" 
	d="
M141.000000,55.531342 
	C140.344238,55.537174 139.219788,55.171185 139.101227,54.597366 
	C136.111511,40.127094 128.680832,28.137104 117.813286,18.494904 
	C108.972427,10.650878 98.799782,4.811027 86.816048,2.858265 
	C86.268211,2.768996 85.823036,2.049762 85.665024,1.311969 
	C104.260117,1.000000 122.520233,1.000000 141.000000,1.000000 
	C141.000000,19.020300 141.000000,37.041492 141.000000,55.531342 
z"/>
<path fill="#000000" opacity="1.000000" stroke="none" 
	d="
M1.000001,86.468658 
	C1.655997,86.460777 2.759252,86.811462 2.903674,87.398170 
	C9.307361,113.413063 25.724272,129.953506 50.850704,138.319717 
	C52.803314,138.969879 54.731842,139.692398 56.335781,140.690643 
	C37.739887,141.000000 19.479771,141.000000 1.000000,141.000000 
	C1.000000,122.979698 1.000000,104.958511 1.000001,86.468658 
z"/>
<path fill="#33314B" opacity="1.000000" stroke="none" 
	d="
M19.996141,110.909737 
	C14.356982,110.696938 12.632260,108.022392 15.083256,102.973007 
	C18.528669,95.874992 22.150908,88.863037 25.651957,81.791725 
	C28.979143,75.071548 27.509459,71.712097 20.454746,69.732811 
	C14.539956,68.073357 13.852538,65.853706 17.347383,57.337097 
	C24.919167,56.913074 24.934763,56.913109 24.950020,50.252514 
	C24.958658,46.481022 24.906143,42.709381 24.881170,38.937809 
	C26.253483,36.675442 27.829668,36.274761 29.852264,39.166447 
	C30.025537,44.364403 29.889595,48.815544 30.133589,53.245754 
	C30.194921,54.359360 31.474348,55.405880 32.193981,56.483231 
	C32.782352,55.441086 33.835930,54.417797 33.879059,53.353558 
	C34.072163,48.588512 33.977436,43.811798 33.986603,39.039299 
	C35.681114,36.647324 37.468884,36.314869 39.679619,39.431587 
	C39.984825,44.345215 39.862247,48.629131 40.087368,52.894707 
	C40.151947,54.118313 41.221325,55.288887 41.829990,56.483780 
	C42.547264,55.234486 43.817619,54.013103 43.882320,52.730885 
	C44.114067,48.138153 43.937492,43.524811 43.915337,38.919266 
	C45.281231,36.675076 46.874542,36.261993 48.910275,39.088921 
	C49.032455,43.522903 48.442375,47.302773 49.166862,50.811184 
	C49.890709,54.316490 51.177357,58.404068 53.663563,60.595757 
	C55.260021,62.003098 60.728119,61.581406 62.212105,59.942928 
	C64.350342,57.582088 66.221046,56.993122 68.938263,56.988960 
	C87.242226,56.960930 105.546135,56.900116 123.886055,57.332188 
	C123.938187,60.091084 123.954330,62.367714 123.970474,64.644341 
	C121.028557,68.896454 116.872734,70.088768 111.885223,69.932953 
	C105.076401,69.720245 98.217255,70.363525 91.450294,69.796761 
	C85.729004,69.317581 82.427490,72.028008 79.609550,76.220459 
	C78.966621,77.176987 78.128868,78.158043 77.926628,79.230721 
	C76.304794,87.833000 70.345886,88.355621 63.116501,88.124458 
	C49.730419,87.696426 49.719334,88.001312 43.666039,100.259460 
	C43.005005,101.598083 42.370014,102.949562 41.187744,104.656784 
	C35.089828,105.017242 29.527069,105.003098 23.964394,105.018951 
	C19.771893,105.030891 18.150362,106.811829 19.996141,110.909737 
M70.828125,73.076233 
	C68.672234,73.063286 66.485565,72.813713 64.367188,73.089218 
	C60.566177,73.583549 58.128101,78.588036 60.900177,80.805458 
	C63.108929,82.572273 66.882393,82.906181 69.947708,82.865097 
	C71.555389,82.843559 74.410973,80.674896 74.435814,79.430580 
	C74.476288,77.404106 72.658661,75.340523 70.828125,73.076233 
z"/>
<path fill="#3E436D" opacity="1.000000" stroke="none" 
	d="
M123.850067,56.849918 
	C105.546135,56.900116 87.242226,56.960930 68.938263,56.988960 
	C66.221046,56.993122 64.350342,57.582088 62.212105,59.942928 
	C60.728119,61.581406 55.260021,62.003098 53.663563,60.595757 
	C51.177357,58.404068 49.890709,54.316490 49.166862,50.811184 
	C48.442375,47.302773 49.032455,43.522903 49.066452,39.390930 
	C71.406525,38.947018 93.726646,39.028915 116.046219,38.950649 
	C120.038925,38.936649 122.903923,39.940468 123.876305,45.009418 
	C123.919174,49.500275 123.884621,53.175095 123.850067,56.849918 
M108.453484,47.280064 
	C110.009933,48.020920 111.524437,48.930843 113.163788,49.337688 
	C113.439873,49.406200 114.764511,47.258724 114.675842,46.213955 
	C114.589867,45.201054 112.817604,43.376453 112.628296,43.478043 
	C111.099678,44.298355 109.769890,45.489201 108.453484,47.280064 
z"/>
<path fill="#3D426B" opacity="1.000000" stroke="none" 
	d="
M24.478691,38.958893 
	C24.906143,42.709381 24.958658,46.481022 24.950020,50.252514 
	C24.934763,56.913109 24.919167,56.913074 17.544235,57.009350 
	C17.057308,53.400433 16.955681,49.790432 16.959873,46.180550 
	C16.966936,40.100273 17.796251,39.290974 24.478691,38.958893 
z"/>
<path fill="#27273D" opacity="1.000000" stroke="none" 
	d="
M20.459185,110.989487 
	C18.150362,106.811829 19.771893,105.030891 23.964394,105.018951 
	C29.527069,105.003098 35.089828,105.017242 41.089993,105.018890 
	C44.020103,109.541100 43.320030,110.995522 38.363350,111.082268 
	C32.551495,111.183975 26.736092,111.082542 20.459185,110.989487 
z"/>
<path fill="#27273D" opacity="1.000000" stroke="none" 
	d="
M123.886055,57.332188 
	C123.884621,53.175095 123.919174,49.500275 123.974831,45.358597 
	C125.476425,44.891747 126.956917,44.891747 129.295349,44.891747 
	C129.295349,50.774269 129.522934,56.362473 129.096344,61.900280 
	C129.014587,62.961555 126.358749,63.824547 124.430458,64.711678 
	C123.954330,62.367714 123.938187,60.091084 123.886055,57.332188 
z"/>
<path fill="#3E436D" opacity="1.000000" stroke="none" 
	d="
M33.592369,39.024910 
	C33.977436,43.811798 34.072163,48.588512 33.879059,53.353558 
	C33.835930,54.417797 32.782352,55.441086 32.193981,56.483231 
	C31.474348,55.405880 30.194921,54.359360 30.133589,53.245754 
	C29.889595,48.815544 30.025537,44.364403 30.031664,39.452972 
	C31.094419,38.993458 32.146275,39.001991 33.592369,39.024910 
z"/>
<path fill="#3E436D" opacity="1.000000" stroke="none" 
	d="
M43.521652,38.949654 
	C43.937492,43.524811 44.114067,48.138153 43.882320,52.730885 
	C43.817619,54.013103 42.547264,55.234486 41.829990,56.483780 
	C41.221325,55.288887 40.151947,54.118313 40.087368,52.894707 
	C39.862247,48.629131 39.984825,44.345215 39.971527,39.610123 
	C41.021198,39.094662 42.074581,39.037354 43.521652,38.949654 
z"/>
<path fill="#F25A4B" opacity="1.000000" stroke="none" 
	d="
M71.226639,73.184418 
	C72.658661,75.340523 74.476288,77.404106 74.435814,79.430580 
	C74.410973,80.674896 71.555389,82.843559 69.947708,82.865097 
	C66.882393,82.906181 63.108929,82.572273 60.900177,80.805458 
	C58.128101,78.588036 60.566177,73.583549 64.367188,73.089218 
	C66.485565,72.813713 68.672234,73.063286 71.226639,73.184418 
z"/>
<path fill="#4F4F74" opacity="1.000000" stroke="none" 
	d="
M108.416451,46.923504 
	C109.769890,45.489201 111.099678,44.298355 112.628296,43.478043 
	C112.817604,43.376453 114.589867,45.201054 114.675842,46.213955 
	C114.764511,47.258724 113.439873,49.406200 113.163788,49.337688 
	C111.524437,48.930843 110.009933,48.020920 108.416451,46.923504 
z"/>
</svg>