<svg version="1.1" id="Layer_1" xmlns="http://www.w3.org/2000/svg" xmlns:xlink="http://www.w3.org/1999/xlink" x="0px" y="0px"
	 width="100%" viewBox="0 0 59 59" enable-background="new 0 0 59 59" xml:space="preserve">
<path fill="#D4D4D4" opacity="1.000000" stroke="none" 
	d="
M42.000000,60.000000 
	C34.645748,60.000000 27.291496,60.000000 19.799187,59.736156 
	C12.334670,54.957676 5.756243,49.706039 2.013403,41.635597 
	C1.999968,41.606628 1.351747,41.872063 1.000000,42.000000 
	C1.000000,39.299988 1.000000,36.599972 1.381663,33.469429 
	C2.552235,34.247173 3.610872,35.359192 4.082474,36.680702 
	C5.936495,41.875984 7.357832,47.299530 12.983675,50.386406 
	C17.383141,52.811501 21.693565,54.898869 26.371866,57.055107 
	C28.830523,57.104786 30.921299,57.085590 33.421261,57.064789 
	C36.876598,56.063198 39.922752,55.063217 43.283428,53.908184 
	C49.971218,51.239567 53.337044,45.978420 55.938408,40.087566 
	C61.403877,27.710878 54.300838,12.074696 42.791668,6.605726 
	C37.358368,5.561387 32.174133,4.770353 26.601887,3.980387 
	C23.763237,4.955693 21.312607,5.929931 18.510546,6.934268 
	C16.073708,8.623440 13.988300,10.282514 11.565456,12.009913 
	C8.847423,16.244465 6.532435,20.450424 4.047670,24.553568 
	C3.266062,25.844254 2.028743,26.858973 1.000000,28.000000 
	C1.000000,25.299986 1.000000,22.599974 1.233585,19.828693 
	C1.872538,19.495819 2.496212,19.326248 2.651044,18.959009 
	C5.756596,11.593073 11.068161,6.408629 18.179409,2.909063 
	C18.651716,2.676632 18.735504,1.654711 19.000000,1.000000 
	C26.354250,1.000000 33.708500,1.000000 41.187481,1.255922 
	C48.687572,6.059686 55.341610,11.314316 58.970440,19.533197 
	C59.313625,19.355465 59.656815,19.177732 60.000000,19.000000 
	C60.000000,26.354250 60.000000,33.708500 59.723198,41.215473 
	C55.014076,48.735046 49.684620,55.193485 41.691311,58.980392 
	C41.643841,59.002880 41.890625,59.646454 42.000000,60.000000 
z"/>
<path fill="#E8E8E8" opacity="1.000000" stroke="none" 
	d="
M1.000000,28.416666 
	C2.028743,26.858973 3.266062,25.844254 4.047670,24.553568 
	C6.532435,20.450424 8.847423,16.244465 11.842665,12.288986 
	C12.971399,18.535076 13.425947,24.576313 14.022764,30.603462 
	C14.360188,34.011028 14.931426,37.395443 15.221317,41.049698 
	C12.134228,43.363472 12.914310,45.260712 15.155230,47.455914 
	C14.310947,48.564129 13.602791,49.306404 12.894634,50.048679 
	C7.357832,47.299530 5.936495,41.875984 4.082474,36.680702 
	C3.610872,35.359192 2.552235,34.247173 1.381663,33.019447 
	C1.000000,31.611111 1.000000,30.222221 1.000000,28.416666 
z"/>
<path fill="#000000" opacity="1.000000" stroke="none" 
	d="
M60.000000,18.530293 
	C59.656815,19.177732 59.313625,19.355465 58.970440,19.533197 
	C55.341610,11.314316 48.687572,6.059686 41.656105,1.255922 
	C47.925732,1.000000 53.851467,1.000000 60.000000,1.000000 
	C60.000000,6.684937 60.000000,12.372760 60.000000,18.530293 
z"/>
<path fill="#000000" opacity="1.000000" stroke="none" 
	d="
M18.530293,1.000000 
	C18.735504,1.654711 18.651716,2.676632 18.179409,2.909063 
	C11.068161,6.408629 5.756596,11.593073 2.651044,18.959009 
	C2.496212,19.326248 1.872538,19.495819 1.233585,19.378716 
	C1.000000,13.074268 1.000000,7.148537 1.000000,1.000000 
	C6.684937,1.000000 12.372760,1.000000 18.530293,1.000000 
z"/>
<path fill="#000000" opacity="1.000000" stroke="none" 
	d="
M42.469711,60.000000 
	C41.890625,59.646454 41.643841,59.002880 41.691311,58.980392 
	C49.684620,55.193485 55.014076,48.735046 59.723198,41.684097 
	C60.000000,47.925732 60.000000,53.851463 60.000000,60.000000 
	C54.315063,60.000000 48.627239,60.000000 42.469711,60.000000 
z"/>
<path fill="#000000" opacity="1.000000" stroke="none" 
	d="
M1.000000,42.469711 
	C1.351747,41.872063 1.999968,41.606628 2.013403,41.635597 
	C5.756243,49.706039 12.334670,54.957676 19.330566,59.736156 
	C13.074268,60.000000 7.148536,60.000000 1.000000,60.000000 
	C1.000000,54.315063 1.000000,48.627239 1.000000,42.469711 
z"/>
<path fill="#F4F4F4" opacity="1.000000" stroke="none" 
	d="
M26.989902,3.979319 
	C32.174133,4.770353 37.358368,5.561387 42.778790,7.039272 
	C43.014980,9.513414 43.014980,11.300707 43.014980,13.019765 
	C37.127373,13.760633 36.861694,14.026474 37.128929,18.662832 
	C38.867207,17.884254 40.540466,17.134798 42.657444,16.186600 
	C42.657444,20.386606 42.657444,23.952959 42.502823,27.480129 
	C42.348206,27.440945 42.046082,27.338194 41.740395,27.135468 
	C41.150780,27.571959 40.866856,28.211176 40.419750,29.236542 
	C40.157303,34.436184 40.058041,39.249680 39.914368,44.337143 
	C39.917290,45.454937 39.964619,46.298763 40.099537,47.473492 
	C41.114384,49.890675 42.041645,51.976952 42.968903,54.063232 
	C39.922752,55.063217 36.876598,56.063198 33.435585,56.636456 
	C33.069901,49.666492 33.099079,43.123253 33.522606,36.619587 
	C37.632820,37.491047 37.157661,35.287548 36.580082,32.686749 
	C33.743835,32.117756 30.856585,31.538532 27.861048,30.687084 
	C27.502739,30.132277 27.252716,29.849695 27.108358,29.481915 
	C27.348812,29.274555 27.467783,29.138559 27.859180,29.238758 
	C33.756489,29.622601 34.160603,28.921047 31.508808,20.928646 
	C31.008652,21.920324 30.508495,22.912003 30.000845,23.482784 
	C28.992201,16.701031 27.991051,10.340175 26.989902,3.979319 
M35.494061,20.844059 
	C35.173775,20.905041 34.853489,20.966022 34.533203,21.027004 
	C34.851093,21.099579 35.168983,21.172153 35.494061,20.844059 
z"/>
<path fill="#FAFAFA" opacity="1.000000" stroke="none" 
	d="
M43.283428,53.908180 
	C42.041645,51.976952 41.114384,49.890675 40.536728,47.434418 
	C43.253258,46.027943 47.522976,49.452221 48.101334,43.562057 
	C47.930656,37.762917 47.674835,32.424839 47.419014,27.086761 
	C46.887905,27.079561 46.356792,27.072363 45.825680,27.065165 
	C45.201729,28.678661 44.577774,30.292160 43.621727,31.799906 
	C43.065758,30.799595 42.841888,29.905035 42.606079,28.673998 
	C42.472961,28.148582 42.351784,27.959642 42.337357,27.707924 
	C42.444107,27.645147 42.657444,27.519312 42.657444,27.519312 
	C42.657444,23.952959 42.657444,20.386606 42.657444,16.186600 
	C40.540466,17.134798 38.867207,17.884254 37.128929,18.662832 
	C36.861694,14.026474 37.127373,13.760633 43.014980,13.019765 
	C43.014980,11.300707 43.014980,9.513414 43.027859,7.292577 
	C54.300838,12.074696 61.403877,27.710878 55.938408,40.087566 
	C53.337044,45.978420 49.971218,51.239567 43.283428,53.908180 
z"/>
<path fill="#F0F0F0" opacity="1.000000" stroke="none" 
	d="
M26.601887,3.980387 
	C27.991051,10.340175 28.992201,16.701031 29.787586,23.626551 
	C29.395550,24.471987 29.209282,24.752756 28.930237,25.308529 
	C28.851269,25.776531 28.865078,25.969526 28.827833,26.383804 
	C28.776779,26.605087 28.817770,27.057428 28.618282,27.270653 
	C28.136175,27.985491 27.853554,28.487108 27.570934,28.988726 
	C27.467783,29.138559 27.348812,29.274555 26.751207,29.611141 
	C26.104433,29.999100 25.920473,30.172630 25.410374,30.325726 
	C23.737440,30.874830 22.390646,31.444370 20.738400,31.937126 
	C20.621687,25.646503 21.003880,19.429186 20.892181,13.220753 
	C20.854092,11.103735 19.574371,9.009056 18.861975,6.904170 
	C21.312607,5.929931 23.763237,4.955693 26.601887,3.980387 
z"/>
<path fill="#EDEDED" opacity="1.000000" stroke="none" 
	d="
M18.510546,6.934268 
	C19.574371,9.009056 20.854092,11.103735 20.892181,13.220753 
	C21.003880,19.429186 20.621687,25.646503 20.631180,32.283543 
	C19.018723,35.401257 17.208036,38.095772 15.397348,40.790283 
	C14.931426,37.395443 14.360188,34.011028 14.022764,30.603462 
	C13.425947,24.576313 12.971399,18.535076 12.180099,12.220661 
	C13.988300,10.282514 16.073708,8.623440 18.510546,6.934268 
z"/>
<path fill="#EFEFEF" opacity="1.000000" stroke="none" 
	d="
M12.983675,50.386406 
	C13.602791,49.306404 14.310947,48.564129 15.443178,47.509914 
	C18.000317,44.632229 20.133379,42.066479 21.828215,40.027851 
	C23.695677,40.747707 25.348816,41.384949 27.005070,42.439789 
	C28.349350,47.686115 28.328894,52.418068 26.003988,56.986237 
	C21.693565,54.898869 17.383141,52.811501 12.983675,50.386406 
z"/>
<path fill="#F3F3F3" opacity="1.000000" stroke="none" 
	d="
M26.371866,57.055107 
	C28.328894,52.418068 28.349350,47.686115 27.173370,42.182178 
	C27.167879,39.652985 26.997202,37.798992 27.053371,35.851917 
	C27.571789,35.595039 27.806772,35.371704 28.327484,35.018639 
	C30.155951,35.492306 31.642103,36.036160 33.128258,36.580013 
	C33.099079,43.123253 33.069901,49.666492 33.026398,56.638062 
	C30.921299,57.085590 28.830523,57.104786 26.371866,57.055107 
z"/>
<path fill="#6E6E6E" opacity="1.000000" stroke="none" 
	d="
M33.522606,36.619587 
	C31.642103,36.036160 30.155951,35.492306 28.055405,35.012539 
	C27.236185,35.366089 27.031355,35.655548 26.826525,35.945004 
	C26.997202,37.798992 27.167879,39.652985 27.170258,41.764580 
	C25.348816,41.384949 23.695677,40.747707 21.828215,40.027851 
	C20.133379,42.066479 18.000317,44.632229 15.579304,47.143978 
	C12.914310,45.260712 12.134228,43.363472 15.221317,41.049698 
	C17.208036,38.095772 19.018723,35.401257 20.936630,32.360329 
	C22.390646,31.444370 23.737440,30.874830 25.468029,30.603813 
	C25.753054,31.466135 25.654280,32.029938 25.423195,32.771156 
	C25.364685,33.203590 25.438488,33.458607 25.512291,33.713627 
	C25.726143,33.531376 25.939997,33.349125 26.421803,33.030354 
	C27.116280,32.248993 27.542807,31.604151 27.969334,30.959311 
	C30.856585,31.538532 33.743835,32.117756 36.580082,32.686749 
	C37.157661,35.287548 37.632820,37.491047 33.522606,36.619587 
z"/>
<path fill="#636363" opacity="1.000000" stroke="none" 
	d="
M42.618019,29.010475 
	C42.841888,29.905035 43.065758,30.799595 43.864250,32.105865 
	C44.958939,36.325405 45.479008,40.133228 45.568928,43.976418 
	C43.412109,44.028912 41.685440,44.046043 39.958775,44.063171 
	C40.058041,39.249680 40.157303,34.436184 40.758270,29.276545 
	C41.712654,28.957090 42.165337,28.983784 42.618019,29.010475 
z"/>
<path fill="#C4C4C4" opacity="1.000000" stroke="none" 
	d="
M29.023014,25.033525 
	C29.209282,24.752756 29.395550,24.471987 29.795078,24.047447 
	C30.508495,22.912003 31.008652,21.920324 31.508808,20.928646 
	C34.160603,28.921047 33.756489,29.622601 27.859180,29.238758 
	C27.853554,28.487108 28.136175,27.985491 28.713413,27.270258 
	C29.008032,27.056641 29.187708,27.109978 29.526169,27.007826 
	C29.584093,26.281624 29.303553,25.657576 29.023014,25.033525 
z"/>
<path fill="#C3C3C3" opacity="1.000000" stroke="none" 
	d="
M39.914368,44.337143 
	C41.685440,44.046043 43.412109,44.028912 45.903328,44.021500 
	C47.117321,44.028515 47.566757,44.025818 48.016193,44.023117 
	C47.522976,49.452221 43.253258,46.027943 40.449135,47.103508 
	C39.964619,46.298763 39.917290,45.454937 39.914368,44.337143 
z"/>
<path fill="#C4C4C4" opacity="1.000000" stroke="none" 
	d="
M25.555506,32.593739 
	C25.654280,32.029938 25.753054,31.466135 25.794170,30.624247 
	C25.920473,30.172630 26.104433,29.999100 26.645542,29.696342 
	C27.252716,29.849695 27.502739,30.132277 27.861046,30.687084 
	C27.542807,31.604151 27.116280,32.248993 26.275139,32.884018 
	C25.860525,32.874203 25.555506,32.593739 25.555506,32.593739 
z"/>
<path fill="#F0F0F0" opacity="1.000000" stroke="none" 
	d="
M35.490467,21.044394 
	C35.168983,21.172153 34.851093,21.099579 34.533203,21.027004 
	C34.853489,20.966022 35.173775,20.905041 35.490467,21.044394 
z"/>
<path fill="#646464" opacity="1.000000" stroke="none" 
	d="
M42.606079,28.673998 
	C42.165337,28.983784 41.712654,28.957090 40.921455,28.890396 
	C40.866856,28.211176 41.150780,27.571959 41.767727,27.208071 
	C42.100750,27.483398 42.230606,27.770700 42.230606,27.770700 
	C42.351784,27.959642 42.472961,28.148582 42.606079,28.673998 
z"/>
<path fill="#636363" opacity="1.000000" stroke="none" 
	d="
M42.337357,27.707924 
	C42.230606,27.770700 42.100750,27.483398 42.073418,27.410797 
	C42.046082,27.338194 42.348206,27.440945 42.502823,27.480129 
	C42.657444,27.519312 42.444107,27.645147 42.337357,27.707924 
z"/>
<path fill="#646464" opacity="1.000000" stroke="none" 
	d="
M48.101334,43.562057 
	C47.566757,44.025818 47.117321,44.028515 46.333481,43.986134 
	C45.479008,40.133228 44.958939,36.325405 44.196342,32.211620 
	C44.577774,30.292160 45.201729,28.678661 45.825680,27.065165 
	C46.356792,27.072363 46.887905,27.079561 47.419014,27.086761 
	C47.674835,32.424839 47.930656,37.762917 48.101334,43.562057 
z"/>
<path fill="#6D6D6D" opacity="1.000000" stroke="none" 
	d="
M28.930237,25.308529 
	C29.303553,25.657576 29.584093,26.281624 29.716019,26.825747 
	C29.337900,26.551386 29.108395,26.356953 28.878887,26.162519 
	C28.865078,25.969526 28.851269,25.776531 28.930237,25.308529 
z"/>
<path fill="#C1C0C1" opacity="1.000000" stroke="none" 
	d="
M28.827833,26.383804 
	C29.108395,26.356953 29.337900,26.551386 29.377558,26.927898 
	C29.187708,27.109978 29.008032,27.056641 28.912901,27.057034 
	C28.817770,27.057428 28.776779,26.605087 28.827833,26.383804 
z"/>
<path fill="#F4F4F4" opacity="1.000000" stroke="none" 
	d="
M27.053375,35.851917 
	C27.031355,35.655548 27.236185,35.366089 27.713093,35.082729 
	C27.806772,35.371704 27.571789,35.595039 27.053375,35.851917 
z"/>
<path fill="#C4C4C4" opacity="1.000000" stroke="none" 
	d="
M26.007187,33.020538 
	C25.939997,33.349125 25.726143,33.531376 25.512291,33.713627 
	C25.438488,33.458607 25.364685,33.203590 25.423195,32.771156 
	C25.555506,32.593739 25.860525,32.874203 26.007187,33.020538 
z"/>
</svg>