<svg version="1.1" id="Layer_1" xmlns="http://www.w3.org/2000/svg" xmlns:xlink="http://www.w3.org/1999/xlink" x="0px" y="0px"
	 width="100%" viewBox="0 0 140 139" enable-background="new 0 0 140 139" xml:space="preserve">
<path fill="#424A53" opacity="1.000000" stroke="none" 
	d="
M1.000000,90.000000 
	C1.000000,77.312439 1.000000,64.624878 1.371089,51.496231 
	C2.187552,50.416248 2.779733,49.835094 3.057000,49.130089 
	C11.755290,27.013037 26.424828,10.966036 49.405865,3.264507 
	C50.410690,2.927764 51.141533,1.773467 52.000000,1.000000 
	C64.354225,1.000000 76.708458,1.000000 89.504272,1.372445 
	C93.395630,3.218011 96.903809,4.568916 100.285446,6.184640 
	C118.446243,14.861744 130.790680,28.908905 138.295807,47.440346 
	C138.835648,48.773323 140.082092,49.820137 141.000000,51.000000 
	C141.000000,53.700012 141.000000,56.400028 140.651794,59.493061 
	C138.634216,58.844952 136.706161,58.066814 135.337143,56.720306 
	C125.968597,47.505798 116.733101,38.156147 107.407829,28.897295 
	C106.271317,27.768883 104.855431,26.921856 103.338669,25.729912 
	C97.653526,16.409843 89.232857,13.583245 80.552841,17.845524 
	C74.450989,20.841810 72.236382,26.338741 70.484375,32.516266 
	C64.530067,36.015953 58.958546,39.434704 53.294537,42.910210 
	C52.417683,41.789333 51.376637,40.493637 50.373302,39.169369 
	C47.491371,35.365582 43.950657,35.099030 39.402092,38.361588 
	C34.536968,41.851208 33.677734,44.948364 36.624180,49.073021 
	C40.153023,54.012962 43.805336,58.864704 47.670856,64.116989 
	C42.522995,66.445053 37.608246,68.156982 33.285713,70.827477 
	C30.954144,72.267952 28.740585,75.108307 28.034975,77.736259 
	C26.202806,84.559937 25.706528,91.749969 23.774160,98.536697 
	C22.196301,104.078339 24.214397,106.999718 28.866219,109.566437 
	C29.371626,110.835907 29.600626,111.915802 30.255726,112.567116 
	C37.507996,119.777489 44.890488,126.858017 52.077885,134.131653 
	C53.701759,135.775024 54.708942,138.027756 56.000000,140.000000 
	C54.933331,140.000000 53.866661,140.000000 52.426941,139.627502 
	C48.606190,137.785629 45.101131,136.436691 41.720345,134.826782 
	C23.343361,126.075806 11.026028,111.767677 3.496274,93.055748 
	C3.027550,91.890945 1.848544,91.011963 1.000000,90.000000 
z"/>
<path fill="#343A41" opacity="1.000000" stroke="none" 
	d="
M56.468658,140.000000 
	C54.708942,138.027756 53.701759,135.775024 52.077885,134.131653 
	C44.890488,126.858017 37.507996,119.777489 30.255726,112.567116 
	C29.600626,111.915802 29.371626,110.835907 29.309612,109.553802 
	C39.231239,110.201530 39.582970,107.514709 41.027191,99.980270 
	C41.761063,96.151711 42.459621,92.316376 43.235802,88.153404 
	C48.029907,88.153404 52.433407,88.153404 58.041737,88.153404 
	C58.041737,96.261032 57.981243,104.322342 58.063652,112.382202 
	C58.115902,117.492386 60.890469,120.109940 66.037300,120.129768 
	C67.689537,120.136131 69.342278,120.014389 71.455933,120.030365 
	C76.581192,120.141731 81.246544,120.118187 85.909103,120.221016 
	C91.225128,120.338242 93.902931,117.897964 94.014404,112.675117 
	C94.149315,106.353851 91.579597,103.247536 86.123703,103.181618 
	C83.497818,103.149887 80.871231,103.176140 78.173264,103.176140 
	C80.593506,86.602386 82.421539,81.213852 87.840576,74.828934 
	C88.255257,76.621490 88.165390,78.550148 89.072723,79.673042 
	C90.965034,82.014931 93.167831,85.370743 95.629471,85.741020 
	C101.980011,86.696266 108.565315,86.617599 115.004623,86.181259 
	C117.384590,86.019981 121.242104,84.019913 121.576233,82.303703 
	C122.242325,78.882507 121.109848,75.038139 120.299179,71.464088 
	C120.137260,70.750198 118.131721,70.194405 116.913033,70.027504 
	C112.732040,69.454926 108.522949,69.087547 104.581429,68.669205 
	C102.708298,60.570789 100.984322,53.117268 99.155319,45.209656 
	C104.450943,40.171497 106.488113,33.662106 103.569016,25.944422 
	C104.855431,26.921856 106.271317,27.768883 107.407829,28.897295 
	C116.733101,38.156147 125.968597,47.505798 135.337143,56.720306 
	C136.706161,58.066814 138.634216,58.844952 140.651794,59.943039 
	C141.000000,68.354233 141.000000,76.708466 140.765564,85.562569 
	C140.297211,86.241165 140.063278,86.419891 139.829361,86.598610 
	C140.219574,86.732407 140.609787,86.866203 141.000000,87.000000 
	C141.000000,87.750000 141.000000,88.500000 140.645233,89.641769 
	C139.868179,90.508247 139.263840,90.912758 139.049896,91.467766 
	C130.387772,113.938141 115.580055,130.177032 92.258568,137.885117 
	C91.369804,138.178864 90.746826,139.276794 90.000000,140.000000 
	C78.979103,140.000000 67.958214,140.000000 56.468658,140.000000 
z"/>
<path fill="#000000" opacity="1.000000" stroke="none" 
	d="
M90.468658,140.000000 
	C90.746826,139.276794 91.369804,138.178864 92.258568,137.885117 
	C115.580055,130.177032 130.387772,113.938141 139.049896,91.467766 
	C139.263840,90.912758 139.868179,90.508247 140.645233,90.016769 
	C141.000000,106.594139 141.000000,123.188286 141.000000,140.000000 
	C124.313072,140.000000 107.625191,140.000000 90.468658,140.000000 
z"/>
<path fill="#000000" opacity="1.000000" stroke="none" 
	d="
M51.531342,1.000000 
	C51.141533,1.773467 50.410690,2.927764 49.405865,3.264507 
	C26.424828,10.966036 11.755290,27.013037 3.057000,49.130089 
	C2.779733,49.835094 2.187552,50.416248 1.371089,51.027573 
	C1.000000,34.405857 1.000000,17.811714 1.000000,1.000000 
	C17.686932,1.000000 34.374805,1.000000 51.531342,1.000000 
z"/>
<path fill="#000000" opacity="1.000000" stroke="none" 
	d="
M141.000000,50.531342 
	C140.082092,49.820137 138.835648,48.773323 138.295807,47.440346 
	C130.790680,28.908905 118.446243,14.861744 100.285446,6.184640 
	C96.903809,4.568916 93.395630,3.218011 89.972931,1.372445 
	C106.926025,1.000000 123.852051,1.000000 141.000000,1.000000 
	C141.000000,17.353559 141.000000,33.708122 141.000000,50.531342 
z"/>
<path fill="#000000" opacity="1.000000" stroke="none" 
	d="
M1.000000,90.468658 
	C1.848544,91.011963 3.027550,91.890945 3.496274,93.055748 
	C11.026028,111.767677 23.343361,126.075806 41.720345,134.826782 
	C45.101131,136.436691 48.606190,137.785629 52.026943,139.627502 
	C35.073971,140.000000 18.147945,140.000000 1.000000,140.000000 
	C1.000000,123.646439 1.000000,107.291878 1.000000,90.468658 
z"/>
<path fill="#000000" opacity="1.000000" stroke="none" 
	d="
M141.000000,86.750000 
	C140.609787,86.866203 140.219574,86.732407 139.829361,86.598610 
	C140.063278,86.419891 140.297211,86.241165 140.765564,86.031219 
	C141.000000,86.000000 141.000000,86.500000 141.000000,86.750000 
z"/>
<path fill="#E0E4EB" opacity="1.000000" stroke="none" 
	d="
M103.338669,25.729912 
	C106.488113,33.662106 104.450943,40.171497 99.155319,45.209656 
	C100.984322,53.117268 102.708298,60.570789 104.581429,68.669205 
	C108.522949,69.087547 112.732040,69.454926 116.913033,70.027504 
	C118.131721,70.194405 120.137260,70.750198 120.299179,71.464088 
	C121.109848,75.038139 122.242325,78.882507 121.576233,82.303703 
	C121.242104,84.019913 117.384590,86.019981 115.004623,86.181259 
	C108.565315,86.617599 101.980011,86.696266 95.629471,85.741020 
	C93.167831,85.370743 90.965034,82.014931 89.072723,79.673042 
	C88.165390,78.550148 88.255257,76.621490 87.840576,74.828934 
	C82.421539,81.213852 80.593506,86.602386 78.173264,103.176140 
	C80.871231,103.176140 83.497818,103.149887 86.123703,103.181618 
	C91.579597,103.247536 94.149315,106.353851 94.014404,112.675117 
	C93.902931,117.897964 91.225128,120.338242 85.909103,120.221016 
	C81.246544,120.118187 76.581192,120.141731 71.470459,119.664124 
	C71.009399,118.241714 70.994957,117.264648 71.444290,116.209671 
	C77.539001,116.131767 83.169922,116.131767 89.130775,116.131767 
	C89.377220,113.192596 89.589088,110.665833 89.868774,107.330246 
	C83.896797,107.330246 78.523773,107.330246 73.119804,107.330246 
	C74.940857,90.693001 79.213341,75.795891 89.928413,62.842316 
	C91.018486,68.257446 91.845016,73.297256 93.151619,78.209366 
	C93.485741,79.465492 95.253571,81.083649 96.508308,81.222847 
	C101.948395,81.826309 107.447197,81.876549 112.914673,82.267456 
	C115.512856,82.453217 117.086197,81.892159 117.055038,78.863396 
	C117.027412,76.177444 117.110313,73.705498 113.294052,73.998184 
	C111.640015,74.125038 109.934357,74.233459 108.310867,73.977631 
	C103.966728,73.293045 100.519073,72.715889 99.319351,66.640099 
	C97.798225,58.936615 100.124748,48.616749 87.822578,45.449810 
	C97.317207,43.184166 101.472801,37.848118 100.265930,30.859989 
	C99.173683,24.535500 93.005310,18.939247 87.412468,20.391827 
	C83.729538,21.348360 79.421776,23.695135 77.541214,26.743948 
	C75.601585,29.888521 76.263550,34.637806 75.771675,38.817680 
	C74.346733,37.949108 72.680992,36.933765 71.008202,35.482689 
	C70.956490,34.176411 70.911827,33.305870 70.867165,32.435329 
	C72.236382,26.338741 74.450989,20.841810 80.552841,17.845524 
	C89.232857,13.583245 97.653526,16.409843 103.338669,25.729912 
z"/>
<path fill="#F1F1F2" opacity="1.000000" stroke="none" 
	d="
M70.980507,116.287582 
	C70.994957,117.264648 71.009399,118.241714 71.009315,119.585022 
	C69.342278,120.014389 67.689537,120.136131 66.037300,120.129768 
	C60.890469,120.109940 58.115902,117.492386 58.063652,112.382202 
	C57.981243,104.322342 58.041737,96.261032 58.041737,88.153404 
	C52.433407,88.153404 48.029907,88.153404 43.235802,88.153404 
	C42.459621,92.316376 41.761063,96.151711 41.027191,99.980270 
	C39.582970,107.514709 39.231239,110.201530 29.231091,109.165192 
	C24.214397,106.999718 22.196301,104.078339 23.774160,98.536697 
	C25.706528,91.749969 26.202806,84.559937 28.034975,77.736259 
	C28.740585,75.108307 30.954144,72.267952 33.285713,70.827477 
	C37.608246,68.156982 42.522995,66.445053 47.670856,64.116989 
	C43.805336,58.864704 40.153023,54.012962 36.624180,49.073021 
	C33.677734,44.948364 34.536968,41.851208 39.402092,38.361588 
	C43.950657,35.099030 47.491371,35.365582 50.373302,39.169369 
	C51.376637,40.493637 52.417683,41.789333 53.294537,42.910210 
	C58.958546,39.434704 64.530067,36.015953 70.484375,32.516266 
	C70.911827,33.305870 70.956490,34.176411 70.671371,35.555279 
	C64.558807,40.417313 58.776009,44.771019 52.839634,49.240353 
	C50.166679,45.742630 47.862949,42.728062 45.285069,39.354744 
	C42.911407,41.090942 40.722187,42.692230 38.299259,44.464462 
	C42.758888,50.396008 46.923058,55.934566 50.918240,61.248371 
	C53.036728,60.221397 54.640125,59.444122 56.180534,58.691925 
	C56.117546,58.717003 56.007870,58.637272 55.962929,59.007233 
	C53.832691,64.292747 50.820255,68.132462 45.409985,69.878990 
	C41.793041,71.046600 38.290558,72.709755 34.960735,74.555138 
	C33.661510,75.275154 32.426670,76.980186 32.101357,78.445068 
	C30.251627,86.774277 28.685825,95.166542 26.920988,104.053329 
	C29.913422,104.638756 32.716846,105.187210 35.672867,105.765518 
	C36.170628,102.575111 36.526794,99.790146 37.048149,97.036446 
	C39.473255,84.227417 39.489613,84.230530 50.478069,83.497391 
	C61.518337,82.760788 61.950459,83.143700 62.024773,94.353043 
	C62.071945,101.468140 62.033588,108.583794 62.033588,115.849319 
	C65.703682,116.029099 68.342094,116.158340 70.980507,116.287582 
z"/>
<path fill="#363C42" opacity="1.000000" stroke="none" 
	d="
M71.444290,116.209671 
	C68.342094,116.158340 65.703682,116.029099 62.033588,115.849319 
	C62.033588,108.583794 62.071945,101.468140 62.024773,94.353043 
	C61.950459,83.143700 61.518337,82.760788 50.478069,83.497391 
	C39.489613,84.230530 39.473255,84.227417 37.048149,97.036446 
	C36.526794,99.790146 36.170628,102.575111 35.672867,105.765518 
	C32.716846,105.187210 29.913422,104.638756 26.920988,104.053329 
	C28.685825,95.166542 30.251627,86.774277 32.101357,78.445068 
	C32.426670,76.980186 33.661510,75.275154 34.960735,74.555138 
	C38.290558,72.709755 41.793041,71.046600 45.409985,69.878990 
	C50.820255,68.132462 53.832691,64.292747 56.041252,59.040352 
	C56.164509,58.703503 55.978985,58.901031 55.978985,58.901031 
	C55.978985,58.901031 56.243526,58.666851 56.243523,58.666847 
	C54.640125,59.444122 53.036728,60.221397 50.918240,61.248371 
	C46.923058,55.934566 42.758888,50.396008 38.299259,44.464462 
	C40.722187,42.692230 42.911407,41.090942 45.285069,39.354744 
	C47.862949,42.728062 50.166679,45.742630 52.839634,49.240353 
	C58.776009,44.771019 64.558807,40.417313 70.678429,35.991013 
	C72.680992,36.933765 74.346733,37.949108 75.771675,38.817680 
	C76.263550,34.637806 75.601585,29.888521 77.541214,26.743948 
	C79.421776,23.695135 83.729538,21.348360 87.412468,20.391827 
	C93.005310,18.939247 99.173683,24.535500 100.265930,30.859989 
	C101.472801,37.848118 97.317207,43.184166 87.822578,45.449810 
	C100.124748,48.616749 97.798225,58.936615 99.319351,66.640099 
	C100.519073,72.715889 103.966728,73.293045 108.310867,73.977631 
	C109.934357,74.233459 111.640015,74.125038 113.294052,73.998184 
	C117.110313,73.705498 117.027412,76.177444 117.055038,78.863396 
	C117.086197,81.892159 115.512856,82.453217 112.914673,82.267456 
	C107.447197,81.876549 101.948395,81.826309 96.508308,81.222847 
	C95.253571,81.083649 93.485741,79.465492 93.151619,78.209366 
	C91.845016,73.297256 91.018486,68.257446 89.928413,62.842316 
	C79.213341,75.795891 74.940857,90.693001 73.119804,107.330246 
	C78.523773,107.330246 83.896797,107.330246 89.868774,107.330246 
	C89.589088,110.665833 89.377220,113.192596 89.130775,116.131767 
	C83.169922,116.131767 77.539001,116.131767 71.444290,116.209671 
M83.105225,49.181385 
	C80.308304,49.058510 76.512962,47.747398 74.934059,49.074089 
	C72.134583,51.426384 70.556343,55.319595 68.875412,58.767136 
	C68.723373,59.078964 71.454102,61.577374 72.993782,61.751068 
	C75.338669,62.015598 78.088661,61.674530 80.165298,60.611401 
	C83.067581,59.125580 85.508362,56.738304 88.146606,54.736740 
	C86.665924,53.060162 85.185234,51.383587 83.105225,49.181385 
z"/>
<path fill="#C21B1B" opacity="1.000000" stroke="none" 
	d="
M83.404892,49.444199 
	C85.185234,51.383587 86.665924,53.060162 88.146606,54.736740 
	C85.508362,56.738304 83.067581,59.125580 80.165298,60.611401 
	C78.088661,61.674530 75.338669,62.015598 72.993782,61.751068 
	C71.454102,61.577374 68.723373,59.078964 68.875412,58.767136 
	C70.556343,55.319595 72.134583,51.426384 74.934059,49.074089 
	C76.512962,47.747398 80.308304,49.058510 83.404892,49.444199 
z"/>
<path fill="#F1F1F2" opacity="1.000000" stroke="none" 
	d="
M56.180534,58.691925 
	C56.243526,58.666851 55.978985,58.901031 55.978985,58.901031 
	C55.978985,58.901031 56.164509,58.703503 56.086189,58.670387 
	C56.007870,58.637272 56.117546,58.717003 56.180534,58.691925 
z"/>
</svg>