<svg version="1.1" id="Layer_1" xmlns="http://www.w3.org/2000/svg" xmlns:xlink="http://www.w3.org/1999/xlink" x="0px" y="0px"
	 width="100%" viewBox="0 0 133 133" enable-background="new 0 0 133 133" xml:space="preserve">
<path fill="#E05B49" opacity="1.000000" stroke="none" 
	d="
M1.000001,83.000000 
	C1.000000,72.979103 1.000000,62.958210 1.309397,52.791584 
	C1.978162,52.305874 2.553471,52.025467 2.666043,51.617409 
	C9.649751,26.302187 25.628325,9.944399 51.007080,2.852838 
	C51.474163,2.722322 51.674957,1.638839 52.000000,1.000000 
	C62.020893,1.000000 72.041786,1.000000 82.229141,1.324375 
	C82.739609,2.003874 83.025269,2.570645 83.435959,2.683873 
	C108.743546,9.661178 125.050865,25.669193 132.147552,51.013206 
	C132.277847,51.478558 133.361298,51.677013 134.000000,52.000000 
	C134.000000,62.020893 134.000000,72.041786 133.695450,82.213318 
	C132.386871,84.521149 131.382843,86.678360 130.204681,88.487457 
	C129.543472,87.466522 129.136841,86.713524 128.557632,86.132584 
	C113.269852,70.799232 97.979370,55.468449 82.627037,40.199875 
	C81.621498,39.199821 80.119110,38.699337 78.566986,37.772266 
	C76.266655,32.316929 72.549759,30.197695 66.209839,30.692596 
	C59.975243,31.179274 57.644279,33.333668 56.104347,40.381302 
	C56.174591,45.812244 58.891056,49.189121 63.160194,51.951302 
	C64.186691,53.441502 65.081116,54.637405 65.542671,55.891609 
	C63.656265,56.019249 62.202732,56.088589 60.337929,56.117443 
	C58.277252,56.116333 56.627842,56.155708 54.621479,56.228119 
	C45.469852,58.937004 42.952339,62.319275 42.943810,71.600471 
	C42.940632,75.059990 43.050014,78.519615 43.042458,82.390182 
	C43.649158,85.205505 44.321480,87.609848 45.171272,90.293854 
	C48.177315,93.378960 51.005886,96.184387 53.891804,99.402916 
	C54.293079,101.897758 54.637012,103.979515 55.162529,106.336975 
	C62.451813,113.799408 69.630936,120.917915 76.610451,128.227036 
	C78.110458,129.797897 78.889069,132.057602 80.000000,134.000000 
	C70.979103,134.000000 61.958210,134.000000 52.773834,133.678192 
	C47.838474,131.467804 42.888885,129.931366 38.326046,127.628593 
	C20.364025,118.563522 8.547624,104.297089 2.941866,84.913521 
	C2.721680,84.152161 1.666249,83.632355 1.000001,83.000000 
z"/>
<path fill="#C95242" opacity="1.000000" stroke="none" 
	d="
M65.975540,55.833313 
	C65.081116,54.637405 64.186691,53.441502 63.594971,52.051781 
	C73.793671,52.403412 77.940697,49.382317 78.876785,40.625210 
	C78.917244,39.488770 78.882538,38.727623 78.847832,37.966476 
	C80.119110,38.699337 81.621498,39.199821 82.627037,40.199875 
	C97.979370,55.468449 113.269852,70.799232 128.557632,86.132584 
	C129.136841,86.713524 129.543472,87.466522 130.057281,88.810028 
	C129.924301,90.275856 129.882401,91.117874 129.587555,91.859276 
	C122.321289,110.130493 109.415680,122.703278 91.184433,129.952316 
	C88.365486,131.073181 85.723709,132.639618 83.000000,134.000000 
	C82.250000,134.000000 81.500000,134.000000 80.375000,134.000000 
	C78.889069,132.057602 78.110458,129.797897 76.610451,128.227036 
	C69.630936,120.917915 62.451813,113.799408 55.628567,106.267197 
	C62.238785,105.897621 68.581207,105.583237 74.884811,105.945114 
	C79.578514,106.214569 81.312973,104.944801 81.120041,99.943245 
	C80.728889,89.803070 80.989838,79.637138 81.024002,69.481972 
	C81.027969,68.302254 81.297493,67.123421 81.443901,65.944176 
	C82.054733,65.927948 82.665573,65.911713 83.276405,65.895477 
	C83.570862,70.313095 83.865318,74.730721 84.106209,79.597305 
	C84.086914,83.099205 84.121178,86.152138 84.115555,89.633224 
	C84.059929,91.892952 83.513428,93.950638 84.171440,95.495163 
	C84.889977,97.181801 86.723602,98.393372 88.071182,99.812012 
	C89.387749,98.375999 91.304703,97.138664 91.862984,95.451706 
	C92.504227,93.513992 91.942192,91.178062 91.991913,88.572098 
	C92.019142,85.141296 91.957306,82.153511 91.950134,78.693451 
	C92.019897,75.412079 92.081299,72.602310 92.041107,69.793999 
	C91.937843,62.577946 88.866325,58.184238 81.710732,56.805740 
	C76.593155,55.819862 71.229431,56.111618 65.975540,55.833313 
z"/>
<path fill="#000000" opacity="1.000000" stroke="none" 
	d="
M83.468658,134.000000 
	C85.723709,132.639618 88.365486,131.073181 91.184433,129.952316 
	C109.415680,122.703278 122.321289,110.130493 129.587555,91.859276 
	C129.882401,91.117874 129.924301,90.275856 130.231445,89.158142 
	C131.382843,86.678360 132.386871,84.521149 133.695450,82.681976 
	C134.000000,99.926750 134.000000,116.853508 134.000000,134.000000 
	C117.313080,134.000000 100.625198,134.000000 83.468658,134.000000 
z"/>
<path fill="#000000" opacity="1.000000" stroke="none" 
	d="
M51.531342,1.000000 
	C51.674957,1.638839 51.474163,2.722322 51.007080,2.852838 
	C25.628325,9.944399 9.649751,26.302187 2.666043,51.617409 
	C2.553471,52.025467 1.978162,52.305874 1.309397,52.322926 
	C1.000000,35.073246 1.000000,18.146490 1.000000,1.000000 
	C17.686918,1.000000 34.374802,1.000000 51.531342,1.000000 
z"/>
<path fill="#000000" opacity="1.000000" stroke="none" 
	d="
M1.000001,83.468658 
	C1.666249,83.632355 2.721680,84.152161 2.941866,84.913521 
	C8.547624,104.297089 20.364025,118.563522 38.326046,127.628593 
	C42.888885,129.931366 47.838474,131.467804 52.305176,133.678192 
	C35.073246,134.000000 18.146490,134.000000 1.000000,134.000000 
	C1.000000,117.313080 1.000000,100.625198 1.000001,83.468658 
z"/>
<path fill="#000000" opacity="1.000000" stroke="none" 
	d="
M134.000000,51.531342 
	C133.361298,51.677013 132.277847,51.478558 132.147552,51.013206 
	C125.050865,25.669193 108.743546,9.661178 83.435959,2.683873 
	C83.025269,2.570645 82.739609,2.003874 82.697800,1.324375 
	C99.926750,1.000000 116.853508,1.000000 134.000000,1.000000 
	C134.000000,17.686918 134.000000,34.374802 134.000000,51.531342 
z"/>
<path fill="#3B556A" opacity="1.000000" stroke="none" 
	d="
M65.542671,55.891609 
	C71.229431,56.111618 76.593155,55.819862 81.710732,56.805740 
	C88.866325,58.184238 91.937843,62.577946 92.041107,69.793999 
	C92.081299,72.602310 92.019897,75.412079 91.520218,78.684784 
	C88.743690,79.148369 86.451729,79.148354 84.159775,79.148338 
	C83.865318,74.730721 83.570862,70.313095 83.276405,65.895477 
	C82.665573,65.911713 82.054733,65.927948 81.443901,65.944176 
	C81.297493,67.123421 81.027969,68.302254 81.024002,69.481972 
	C80.989838,79.637138 80.728889,89.803070 81.120041,99.943245 
	C81.312973,104.944801 79.578514,106.214569 74.884811,105.945114 
	C68.581207,105.583237 62.238785,105.897621 55.446983,105.991486 
	C54.637012,103.979515 54.293079,101.897758 53.947853,98.962982 
	C53.963364,95.463760 53.980167,92.817566 54.455750,90.100479 
	C59.222004,89.986542 63.529484,89.943489 68.206192,89.896713 
	C69.869934,88.347099 72.305641,86.742302 72.229492,85.267189 
	C72.052414,81.837395 68.833763,81.957504 66.075333,81.552513 
	C64.243477,72.823227 62.496334,64.490578 60.749195,56.157932 
	C62.202732,56.088589 63.656265,56.019249 65.542671,55.891609 
z"/>
<path fill="#FCFCFC" opacity="1.000000" stroke="none" 
	d="
M67.836960,89.900436 
	C63.529484,89.943489 59.222004,89.986542 54.154133,90.022346 
	C52.982319,89.956459 52.570904,89.897820 52.215160,89.452972 
	C52.457836,86.680649 52.644836,84.294525 52.897610,81.478203 
	C53.267338,75.715668 53.571297,70.383339 54.000298,64.664352 
	C54.409710,61.583492 54.694073,58.889286 54.978432,56.195084 
	C56.627842,56.155708 58.277252,56.116333 60.337929,56.117443 
	C62.496334,64.490578 64.243477,72.823227 66.064964,81.929039 
	C66.705193,85.101616 67.271072,87.501030 67.836960,89.900436 
z"/>
<path fill="#FCD464" opacity="1.000000" stroke="none" 
	d="
M78.801613,41.000504 
	C77.940697,49.382317 73.793671,52.403412 63.462898,51.757484 
	C58.891056,49.189121 56.174591,45.812244 56.557106,40.390846 
	C64.302277,40.341633 71.551949,40.671070 78.801613,41.000504 
z"/>
<path fill="#3C566B" opacity="1.000000" stroke="none" 
	d="
M54.621479,56.228119 
	C54.694073,58.889286 54.409710,61.583492 53.679741,64.838776 
	C52.490562,67.122597 51.251701,68.804642 51.106121,70.576523 
	C50.799103,74.313095 51.064507,78.096687 50.649902,81.888718 
	C47.839199,81.937355 45.473637,81.958275 43.108070,81.979187 
	C43.050014,78.519615 42.940632,75.059990 42.943810,71.600471 
	C42.952339,62.319275 45.469852,58.937004 54.621479,56.228119 
z"/>
<path fill="#FEFBF6" opacity="1.000000" stroke="none" 
	d="
M78.876785,40.625210 
	C71.551949,40.671070 64.302277,40.341633 56.599846,40.002651 
	C57.644279,33.333668 59.975243,31.179274 66.209839,30.692596 
	C72.549759,30.197695 76.266655,32.316929 78.566986,37.772266 
	C78.882538,38.727623 78.917244,39.488770 78.876785,40.625210 
z"/>
<path fill="#667A8A" opacity="1.000000" stroke="none" 
	d="
M43.042458,82.390182 
	C45.473637,81.958275 47.839199,81.937355 50.939552,81.907593 
	C52.060173,81.901970 52.446007,81.905190 52.831841,81.908409 
	C52.644836,84.294525 52.457836,86.680649 51.769531,89.505966 
	C49.176746,89.968178 47.085274,89.991180 44.993797,90.014183 
	C44.321480,87.609848 43.649158,85.205505 43.042458,82.390182 
z"/>
<path fill="#CA5242" opacity="1.000000" stroke="none" 
	d="
M45.171272,90.293854 
	C47.085274,89.991180 49.176746,89.968178 51.713852,89.892181 
	C52.570904,89.897820 52.982319,89.956459 53.695351,90.093231 
	C53.980167,92.817566 53.963364,95.463760 53.890511,98.549889 
	C51.005886,96.184387 48.177315,93.378960 45.171272,90.293854 
z"/>
<path fill="#F8F8F8" opacity="1.000000" stroke="none" 
	d="
M84.106209,79.597305 
	C86.451729,79.148354 88.743690,79.148369 91.465561,79.157059 
	C91.957306,82.153511 92.019142,85.141296 91.561020,88.572945 
	C88.745865,89.079559 86.450653,89.142311 84.155449,89.205063 
	C84.121178,86.152138 84.086914,83.099205 84.106209,79.597305 
z"/>
<path fill="#3B566B" opacity="1.000000" stroke="none" 
	d="
M84.115555,89.633224 
	C86.450653,89.142311 88.745865,89.079559 91.471954,89.015961 
	C91.942192,91.178062 92.504227,93.513992 91.862984,95.451706 
	C91.304703,97.138664 89.387749,98.375999 88.071182,99.812012 
	C86.723602,98.393372 84.889977,97.181801 84.171440,95.495163 
	C83.513428,93.950638 84.059929,91.892952 84.115555,89.633224 
z"/>
<path fill="#667B8C" opacity="1.000000" stroke="none" 
	d="
M68.206184,89.896713 
	C67.271072,87.501030 66.705193,85.101616 66.149689,82.325676 
	C68.833763,81.957504 72.052414,81.837395 72.229492,85.267189 
	C72.305641,86.742302 69.869934,88.347099 68.206184,89.896713 
z"/>
<path fill="#C75546" opacity="1.000000" stroke="none" 
	d="
M52.897606,81.478203 
	C52.446007,81.905190 52.060173,81.901970 51.384689,81.879868 
	C51.064507,78.096687 50.799103,74.313095 51.106121,70.576523 
	C51.251701,68.804642 52.490562,67.122597 53.554691,65.225433 
	C53.571297,70.383339 53.267338,75.715668 52.897606,81.478203 
z"/>
</svg>