<svg version="1.1" id="Layer_1" xmlns="http://www.w3.org/2000/svg" xmlns:xlink="http://www.w3.org/1999/xlink" x="0px" y="0px"
	 width="100%" viewBox="0 0 174 175" enable-background="new 0 0 174 175" xml:space="preserve">
<path fill="#000000" opacity="1.000000" stroke="none" 
	d="
M175.000000,70.000000 
	C175.000000,105.666664 175.000000,140.833328 175.000000,176.000000 
	C117.000000,176.000000 59.000000,176.000000 1.000000,176.000000 
	C1.000000,117.666664 1.000000,59.333332 1.000000,1.000000 
	C59.000000,1.000000 117.000000,1.000000 175.000000,1.000000 
	C175.000000,23.833334 175.000000,46.666668 175.000000,70.000000 
M162.689041,91.754501 
	C161.638367,83.179558 161.829926,74.212959 159.275772,66.112045 
	C154.119980,49.759487 144.815567,36.217072 129.605774,26.802313 
	C123.792824,23.204147 118.009712,20.145742 111.669060,17.956556 
	C107.393494,16.480368 103.040939,14.359339 98.663322,14.204026 
	C83.589645,13.669230 68.707848,13.389603 54.656475,21.469067 
	C38.217388,30.921455 25.534855,43.378128 18.744131,60.998615 
	C15.462729,69.513161 13.907553,78.747269 12.180889,87.772293 
	C11.688670,90.345055 13.750264,93.300011 13.935941,96.126007 
	C15.216221,115.611885 24.250971,131.134186 37.917656,144.487442 
	C48.128994,154.464600 60.854885,159.930817 74.289360,162.585587 
	C83.592537,164.423965 93.729378,163.913376 103.217834,162.542679 
	C121.203911,159.944366 135.280609,149.326416 146.212723,135.668228 
	C152.645721,127.631042 156.492966,117.317299 160.453888,107.599770 
	C162.302902,103.063454 161.662399,97.512405 162.689041,91.754501 
z"/>
<path fill="#F1226C" opacity="1.000000" stroke="none" 
	d="
M162.419662,92.087891 
	C161.662399,97.512405 162.302902,103.063454 160.453888,107.599770 
	C156.492966,117.317299 152.645721,127.631042 146.212723,135.668228 
	C135.280609,149.326416 121.203911,159.944366 103.217834,162.542679 
	C93.729378,163.913376 83.592537,164.423965 74.289360,162.585587 
	C60.854885,159.930817 48.128994,154.464600 37.917656,144.487442 
	C24.250971,131.134186 15.216221,115.611885 13.935941,96.126007 
	C13.750264,93.300011 11.688670,90.345055 12.180889,87.772293 
	C13.907553,78.747269 15.462729,69.513161 18.744131,60.998615 
	C25.534855,43.378128 38.217388,30.921455 54.656475,21.469067 
	C68.707848,13.389603 83.589645,13.669230 98.663322,14.204026 
	C103.040939,14.359339 107.393494,16.480368 111.669060,17.956556 
	C118.009712,20.145742 123.792824,23.204147 129.605774,26.802313 
	C144.815567,36.217072 154.119980,49.759487 159.275772,66.112045 
	C161.829926,74.212959 161.638367,83.179558 162.419662,92.087891 
M62.305328,25.792486 
	C33.273918,38.052391 15.873320,68.326752 21.198675,99.228577 
	C25.692881,125.307434 40.524662,143.948792 65.691948,152.873611 
	C90.652626,161.725189 113.579033,156.728638 133.340744,139.176651 
	C162.250763,113.499306 163.555679,67.956062 136.028076,40.822098 
	C115.154892,20.247406 90.426605,15.902316 62.305328,25.792486 
z"/>
<path fill="#FCF0F6" opacity="1.000000" stroke="none" 
	d="
M62.648209,25.614294 
	C90.426605,15.902316 115.154892,20.247406 136.028076,40.822098 
	C163.555679,67.956062 162.250763,113.499306 133.340744,139.176651 
	C113.579033,156.728638 90.652626,161.725189 65.691948,152.873611 
	C40.524662,143.948792 25.692881,125.307434 21.198675,99.228577 
	C15.873320,68.326752 33.273918,38.052391 62.648209,25.614294 
M59.134762,55.937424 
	C60.050659,56.759125 60.966557,57.580830 62.164234,58.979622 
	C65.197647,62.054081 68.414490,64.972092 71.209900,68.249535 
	C73.715973,71.187752 76.591644,72.076889 80.363831,72.011116 
	C91.991028,71.808372 103.624023,71.937386 115.254761,71.937492 
	C119.686409,71.937531 124.118057,71.937492 129.422745,71.937492 
	C128.978134,65.577011 128.581833,59.907429 127.468864,54.057308 
	C127.226814,54.103168 126.984764,54.149033 126.052048,53.960518 
	C124.360649,54.033604 122.669258,54.106689 120.061226,53.988575 
	C102.048531,54.051426 84.035835,54.114277 65.233383,53.953487 
	C64.150162,54.026478 63.066936,54.099468 61.252693,53.984138 
	C60.506115,54.044983 59.759541,54.105827 58.468815,54.124718 
	C58.587841,54.551853 58.706863,54.978989 59.134762,55.937424 
M47.010361,78.817657 
	C47.676781,80.251053 48.343201,81.684456 49.908272,83.331711 
	C58.243557,83.256111 66.578842,83.180519 75.573936,83.299072 
	C76.412247,83.156387 77.250557,83.013710 78.553726,82.791916 
	C77.149063,81.432495 76.138062,80.454056 74.910767,78.993744 
	C74.273819,78.392487 73.636871,77.791237 72.392426,76.604691 
	C64.780579,76.508102 57.168537,76.359993 49.557175,76.389137 
	C48.733803,76.392288 47.914364,77.422134 47.010361,78.817657 
M111.703285,78.745201 
	C113.435783,76.674751 112.179726,76.286385 110.303230,76.281395 
	C106.022942,76.270012 101.742607,76.272820 97.462296,76.271957 
	C91.801834,76.270821 86.141365,76.271675 78.988922,76.271675 
	C80.832466,77.814423 81.407471,78.295609 82.426384,79.364876 
	C84.715668,82.632843 87.776939,83.809586 91.786316,83.456039 
	C95.548859,83.124260 99.382317,83.151222 103.150253,83.451263 
	C106.919189,83.751381 109.523987,82.489067 111.703285,78.745201 
M130.898056,42.592171 
	C104.924561,17.479481 64.210487,22.448835 45.296593,43.457420 
	C48.781265,45.402470 52.027126,48.734589 55.359016,48.822952 
	C74.491867,49.330383 93.645561,49.122593 112.790596,48.964378 
	C114.306992,48.951847 115.764381,47.359051 117.336647,46.713757 
	C118.505531,46.234020 120.877769,45.757580 120.910782,45.860111 
	C122.366074,50.381260 126.095886,49.091164 129.119003,48.988113 
	C132.705170,48.865871 134.322800,50.021442 134.120361,53.836533 
	C133.873688,58.485268 134.056610,63.156876 134.056061,67.818588 
	C134.055038,76.841156 133.066284,77.767670 123.786850,77.432816 
	C123.287788,77.414810 122.734947,77.241615 122.299545,77.397987 
	C120.645760,77.991928 118.325195,78.221024 117.517540,79.430412 
	C113.180748,85.924294 108.078117,90.466949 99.557129,88.721275 
	C99.181458,88.644318 98.696777,89.099403 98.332047,89.273621 
	C97.372375,93.119026 98.513969,95.919136 101.383202,98.616829 
	C107.807999,104.657509 113.894157,111.058380 120.117607,117.313179 
	C124.786263,122.005356 129.453934,126.698524 134.126587,131.395828 
	C157.634552,106.296837 156.294922,67.978294 130.898056,42.592171 
M90.362175,151.877121 
	C105.724052,151.321823 118.983246,145.758102 130.198944,135.542938 
	C118.639275,124.147392 107.291710,112.960945 95.781303,101.613960 
	C92.655823,106.704117 86.812561,106.064384 81.150490,105.710884 
	C77.727821,105.497192 76.079033,106.281570 75.881577,110.242920 
	C75.593964,116.013084 74.352325,121.730087 73.677055,127.488472 
	C73.213257,131.443558 71.575058,133.371338 67.221703,132.924835 
	C63.264942,132.519012 59.233753,132.838867 55.235371,132.838806 
	C44.991394,132.838654 44.986050,132.838135 45.948311,122.924469 
	C46.092125,121.442818 46.301067,119.967033 46.500504,118.491325 
	C47.821815,108.714462 49.148750,98.938354 50.470612,89.185936 
	C42.008579,87.832359 42.008652,87.832359 42.008923,79.635323 
	C42.009079,74.970543 42.303978,70.282158 41.933044,65.647064 
	C41.485874,60.059280 42.050594,55.461945 48.738216,54.309669 
	C48.909233,54.280201 48.998116,53.774082 48.971134,53.834293 
	C46.510891,51.260738 44.155346,48.796703 41.806969,46.340164 
	C25.698967,62.083809 20.764534,90.338806 30.138248,113.201561 
	C39.488815,136.007874 62.901669,152.791672 90.362175,151.877121 
M62.326782,127.738815 
	C64.426079,127.738815 66.525375,127.738815 68.615204,127.738815 
	C70.486374,114.429031 72.253326,101.860519 74.116867,88.605003 
	C68.325523,88.605003 63.046436,88.496605 57.780163,88.707817 
	C56.863556,88.744583 55.341629,90.032623 55.212955,90.906677 
	C53.434620,102.986832 51.851143,115.095680 50.146992,127.738815 
	C54.117245,127.738815 57.752010,127.738815 62.326782,127.738815 
M51.701492,71.978897 
	C56.617390,71.978897 61.533287,71.978897 66.417686,71.978897 
	C61.578457,67.290482 57.010273,62.864658 52.168163,58.173450 
	C46.636349,61.049992 46.791901,61.047203 46.923809,68.401054 
	C46.976429,71.334503 48.068882,72.291733 51.701492,71.978897 
M77.856659,97.884445 
	C78.082649,98.851936 78.281937,100.653114 78.538651,100.661339 
	C82.148430,100.776947 85.891090,101.204582 89.347603,100.427376 
	C93.020897,99.601418 93.034233,97.162285 89.523598,94.189461 
	C88.509186,98.254196 86.137192,97.956635 83.994736,95.498947 
	C82.298515,93.553146 81.282433,91.014435 79.269188,87.539001 
	C78.705582,91.630714 78.331139,94.349167 77.856659,97.884445 
z"/>
<path fill="#F1246D" opacity="1.000000" stroke="none" 
	d="
M131.152069,42.841911 
	C156.294922,67.978294 157.634552,106.296837 134.126587,131.395828 
	C129.453934,126.698524 124.786263,122.005356 120.117607,117.313179 
	C113.894157,111.058380 107.807999,104.657509 101.383202,98.616829 
	C98.513969,95.919136 97.372375,93.119026 98.332047,89.273621 
	C98.696777,89.099403 99.181458,88.644318 99.557129,88.721275 
	C108.078117,90.466949 113.180748,85.924294 117.517540,79.430412 
	C118.325195,78.221024 120.645760,77.991928 122.299545,77.397987 
	C122.734947,77.241615 123.287788,77.414810 123.786850,77.432816 
	C133.066284,77.767670 134.055038,76.841156 134.056061,67.818588 
	C134.056610,63.156876 133.873688,58.485268 134.120361,53.836533 
	C134.322800,50.021442 132.705170,48.865871 129.119003,48.988113 
	C126.095886,49.091164 122.366074,50.381260 120.910782,45.860111 
	C120.877769,45.757580 118.505531,46.234020 117.336647,46.713757 
	C115.764381,47.359051 114.306992,48.951847 112.790596,48.964378 
	C93.645561,49.122593 74.491867,49.330383 55.359016,48.822952 
	C52.027126,48.734589 48.781265,45.402470 45.296593,43.457420 
	C64.210487,22.448835 104.924561,17.479481 131.152069,42.841911 
z"/>
<path fill="#F1226C" opacity="1.000000" stroke="none" 
	d="
M89.889717,151.882889 
	C62.901669,152.791672 39.488815,136.007874 30.138248,113.201561 
	C20.764534,90.338806 25.698967,62.083809 41.806969,46.340164 
	C44.155346,48.796703 46.510891,51.260738 48.971134,53.834293 
	C48.998116,53.774082 48.909233,54.280201 48.738216,54.309669 
	C42.050594,55.461945 41.485874,60.059280 41.933044,65.647064 
	C42.303978,70.282158 42.009079,74.970543 42.008923,79.635323 
	C42.008652,87.832359 42.008579,87.832359 50.470612,89.185936 
	C49.148750,98.938354 47.821815,108.714462 46.500504,118.491325 
	C46.301067,119.967033 46.092125,121.442818 45.948311,122.924469 
	C44.986050,132.838135 44.991394,132.838654 55.235371,132.838806 
	C59.233753,132.838867 63.264942,132.519012 67.221703,132.924835 
	C71.575058,133.371338 73.213257,131.443558 73.677055,127.488472 
	C74.352325,121.730087 75.593964,116.013084 75.881577,110.242920 
	C76.079033,106.281570 77.727821,105.497192 81.150490,105.710884 
	C86.812561,106.064384 92.655823,106.704117 95.781303,101.613960 
	C107.291710,112.960945 118.639275,124.147392 130.198944,135.542938 
	C118.983246,145.758102 105.724052,151.321823 89.889717,151.882889 
z"/>
<path fill="#F1246E" opacity="1.000000" stroke="none" 
	d="
M61.983711,54.172459 
	C63.066936,54.099468 64.150162,54.026478 65.845505,54.370720 
	C67.666359,55.188778 68.873329,55.932274 70.084091,55.938484 
	C85.613510,56.018208 101.143852,56.040199 116.672646,55.914627 
	C118.112297,55.902985 119.542999,54.784386 120.977859,54.179779 
	C122.669258,54.106689 124.360649,54.033604 126.561989,54.206318 
	C127.443130,54.380695 127.814331,54.309269 128.185532,54.237843 
	C128.581833,59.907429 128.978134,65.577011 129.422745,71.937492 
	C124.118057,71.937492 119.686409,71.937531 115.254761,71.937492 
	C103.624023,71.937386 91.991028,71.808372 80.363831,72.011116 
	C76.591644,72.076889 73.715973,71.187752 71.209900,68.249535 
	C68.414490,64.972092 65.197647,62.054081 62.045353,58.268074 
	C61.945553,56.428505 61.964634,55.300480 61.983711,54.172459 
z"/>
<path fill="#F1246D" opacity="1.000000" stroke="none" 
	d="
M61.856777,127.738815 
	C57.752010,127.738815 54.117245,127.738815 50.146992,127.738815 
	C51.851143,115.095680 53.434620,102.986832 55.212955,90.906677 
	C55.341629,90.032623 56.863556,88.744583 57.780163,88.707817 
	C63.046436,88.496605 68.325523,88.605003 74.116867,88.605003 
	C72.253326,101.860519 70.486374,114.429031 68.615204,127.738815 
	C66.525375,127.738815 64.426079,127.738815 61.856777,127.738815 
z"/>
<path fill="#F12C72" opacity="1.000000" stroke="none" 
	d="
M51.229008,71.977585 
	C48.068882,72.291733 46.976429,71.334503 46.923809,68.401054 
	C46.791901,61.047203 46.636349,61.049992 52.168163,58.173450 
	C57.010273,62.864658 61.578457,67.290482 66.417686,71.978897 
	C61.533287,71.978897 56.617390,71.978897 51.229008,71.977585 
z"/>
<path fill="#F2236D" opacity="1.000000" stroke="none" 
	d="
M111.141304,79.112450 
	C109.523987,82.489067 106.919189,83.751381 103.150253,83.451263 
	C99.382317,83.151222 95.548859,83.124260 91.786316,83.456039 
	C87.776939,83.809586 84.715668,82.632843 82.558411,78.845245 
	C90.462517,78.125526 98.234131,77.836922 106.007072,77.794426 
	C107.716034,77.785088 109.429771,78.650085 111.141304,79.112450 
z"/>
<path fill="#F1236D" opacity="1.000000" stroke="none" 
	d="
M74.914124,83.104927 
	C66.578842,83.180519 58.243557,83.256111 49.460846,82.787987 
	C49.059929,80.782059 49.106441,79.319847 49.610477,77.813812 
	C57.711979,77.576645 65.355949,77.383308 72.999924,77.189980 
	C73.636871,77.791237 74.273819,78.392487 74.976578,79.839165 
	C74.999626,81.491364 74.956879,82.298149 74.914124,83.104927 
z"/>
<path fill="#F21864" opacity="1.000000" stroke="none" 
	d="
M120.519547,54.084175 
	C119.542999,54.784386 118.112297,55.902985 116.672646,55.914627 
	C101.143852,56.040199 85.613510,56.018208 70.084091,55.938484 
	C68.873329,55.932274 67.666359,55.188778 66.240387,54.482540 
	C84.035835,54.114277 102.048531,54.051426 120.519547,54.084175 
z"/>
<path fill="#F02E72" opacity="1.000000" stroke="none" 
	d="
M77.906677,97.476028 
	C78.331139,94.349167 78.705582,91.630714 79.269188,87.539001 
	C81.282433,91.014435 82.298515,93.553146 83.994736,95.498947 
	C86.137192,97.956635 88.509186,98.254196 89.523598,94.189461 
	C93.034233,97.162285 93.020897,99.601418 89.347603,100.427376 
	C85.891090,101.204582 82.148430,100.776947 78.538651,100.661339 
	C78.281937,100.653114 78.082649,98.851936 77.906677,97.476028 
z"/>
<path fill="#DD5183" opacity="1.000000" stroke="none" 
	d="
M111.422295,78.928825 
	C109.429771,78.650085 107.716034,77.785088 106.007072,77.794426 
	C98.234131,77.836922 90.462517,78.125526 82.336449,78.551193 
	C81.407471,78.295609 80.832466,77.814423 78.988922,76.271675 
	C86.141365,76.271675 91.801834,76.270821 97.462296,76.271957 
	C101.742607,76.272820 106.022942,76.270012 110.303230,76.281395 
	C112.179726,76.286385 113.435783,76.674751 111.422295,78.928825 
z"/>
<path fill="#D95281" opacity="1.000000" stroke="none" 
	d="
M72.696175,76.897339 
	C65.355949,77.383308 57.711979,77.576645 49.263718,77.792793 
	C48.003986,77.868988 47.548542,77.922363 47.093102,77.975739 
	C47.914364,77.422134 48.733803,76.392288 49.557175,76.389137 
	C57.168537,76.359993 64.780579,76.508102 72.696175,76.897339 
z"/>
<path fill="#EF1966" opacity="1.000000" stroke="none" 
	d="
M47.051727,78.396698 
	C47.548542,77.922363 48.003986,77.868988 48.806190,77.836624 
	C49.106441,79.319847 49.059929,80.782059 49.011520,82.681061 
	C48.343201,81.684456 47.676781,80.251053 47.051727,78.396698 
z"/>
<path fill="#F21864" opacity="1.000000" stroke="none" 
	d="
M61.618202,54.078300 
	C61.964634,55.300480 61.945553,56.428505 61.904461,57.979530 
	C60.966557,57.580830 60.050659,56.759125 59.039486,55.363525 
	C58.967129,54.581970 58.990047,54.374321 59.012962,54.166672 
	C59.759541,54.105827 60.506115,54.044983 61.618202,54.078300 
z"/>
<path fill="#EF1966" opacity="1.000000" stroke="none" 
	d="
M75.244034,83.201996 
	C74.956879,82.298149 74.999626,81.491364 75.084724,80.080101 
	C76.138062,80.454056 77.149063,81.432495 78.553726,82.791916 
	C77.250557,83.013710 76.412247,83.156387 75.244034,83.201996 
z"/>
<path fill="#F21864" opacity="1.000000" stroke="none" 
	d="
M127.827194,54.147575 
	C127.814331,54.309269 127.443130,54.380695 126.907318,54.323509 
	C126.984764,54.149033 127.226814,54.103168 127.827194,54.147575 
z"/>
<path fill="#F1246E" opacity="1.000000" stroke="none" 
	d="
M58.740891,54.145695 
	C58.990047,54.374321 58.967129,54.581970 58.885048,55.097870 
	C58.706863,54.978989 58.587841,54.551853 58.740891,54.145695 
z"/>
</svg>