<svg version="1.1" id="Layer_1" xmlns="http://www.w3.org/2000/svg" xmlns:xlink="http://www.w3.org/1999/xlink" x="0px" y="0px"
	 width="100%" viewBox="0 0 135 135" enable-background="new 0 0 135 135" xml:space="preserve">
<path fill="#1F2025" opacity="1.000000" stroke="none" 
	d="
M84.000000,136.000000 
	C73.979103,136.000000 63.958210,136.000000 53.380066,135.654175 
	C51.401318,134.567871 50.051041,133.608139 48.547638,133.119812 
	C26.167152,125.850319 11.414735,110.976768 3.917010,88.730614 
	C3.340576,87.020302 1.990488,85.570755 1.000000,84.000000 
	C1.000000,73.979103 1.000000,63.958210 1.346427,53.382145 
	C2.465263,51.243031 3.420512,49.721153 3.982441,48.065762 
	C11.462338,26.030643 26.154264,11.290974 48.266220,3.916757 
	C49.978004,3.345886 51.428215,1.990664 53.000000,1.000000 
	C63.020893,1.000000 73.041786,1.000000 83.620224,1.345696 
	C85.761292,2.464536 87.282555,3.421108 88.937782,3.983088 
	C110.972130,11.464128 125.710922,26.156384 133.083572,48.268600 
	C133.654068,49.979649 135.009430,51.429008 136.000000,53.000000 
	C136.000000,63.020893 136.000000,73.041786 135.653870,83.618843 
	C134.535004,85.758797 133.578873,87.280365 133.017212,88.935776 
	C125.540138,110.973335 110.842995,125.707344 88.734154,133.084259 
	C87.022377,133.655411 85.571915,135.009689 84.000000,136.000000 
M86.472397,124.614594 
	C86.472397,126.343483 86.472397,128.072372 86.472397,130.860855 
	C90.887321,128.292160 96.363495,129.783951 97.876472,123.088295 
	C97.818001,121.760605 97.759521,120.432922 97.793045,118.208046 
	C97.761818,116.105515 97.730598,114.002983 97.872787,111.165657 
	C97.663506,109.719795 97.454216,108.273926 97.293388,106.030251 
	C96.798264,103.996719 96.303139,101.963181 95.721985,99.291855 
	C94.542763,97.817871 93.363533,96.343895 91.908478,94.244286 
	C88.217270,91.905884 84.646667,89.333504 80.777992,87.339378 
	C79.133606,86.491768 76.137062,85.937210 75.008995,86.831406 
	C70.691330,90.253929 66.633728,90.375702 61.866032,86.755493 
	C60.851631,89.885345 60.012394,92.474747 58.883373,95.663620 
	C57.913414,97.107681 56.943455,98.551743 55.356186,100.263695 
	C52.827255,102.454536 50.298328,104.645386 47.195415,107.372925 
	C46.818211,109.516586 46.720161,111.193100 49.820133,111.357384 
	C51.890129,111.467087 53.908978,112.541962 56.084396,113.888924 
	C56.857056,115.633133 57.629711,117.377335 58.318810,119.907143 
	C58.402580,121.215469 58.486351,122.523796 58.386337,124.713936 
	C58.368523,126.362976 57.930523,128.164444 58.457073,129.616013 
	C58.935005,130.933517 60.403336,132.745834 61.538345,132.823151 
	C66.462029,133.158524 71.459145,133.308517 76.363167,132.836334 
	C84.254288,132.076523 84.232155,131.846664 83.974571,123.131676 
	C83.930580,121.774940 83.886589,120.418198 84.188011,118.331078 
	C85.017281,118.606041 85.846550,118.880997 86.509354,119.913528 
	C86.563972,121.199471 86.618591,122.485405 86.472397,124.614594 
M53.163525,44.991638 
	C51.901703,44.991638 50.639881,44.991638 49.436592,44.991638 
	C48.497921,54.439236 49.020023,55.119537 55.816422,52.950661 
	C64.606461,49.046078 73.330238,50.076504 82.172142,52.966949 
	C87.712097,54.777981 87.996658,54.375298 87.985489,48.558300 
	C87.983383,47.461082 87.865486,46.364086 87.794052,45.148426 
	C76.280045,45.148426 65.156967,45.148426 53.163525,44.991638 
M53.412159,56.167934 
	C52.724480,56.598858 52.036800,57.029781 50.747879,57.837467 
	C53.475296,60.287350 55.980621,62.581707 58.537762,64.816780 
	C59.889633,65.998390 62.260326,66.864647 62.574100,68.238098 
	C64.017418,74.555794 68.405022,73.076485 70.467186,72.898087 
	C76.468384,67.024078 81.208023,62.384892 86.239258,57.460293 
	C76.122498,53.608231 66.747688,50.791538 56.221416,55.765747 
	C55.500793,55.895721 54.780170,56.025696 53.412159,56.167934 
M67.205605,10.316916 
	C72.108780,8.373597 79.477760,11.296214 84.490730,16.902102 
	C86.033310,18.627136 88.060463,19.928787 89.910934,21.366102 
	C92.333923,23.248114 92.643158,25.243441 90.730637,27.763229 
	C88.445488,30.773973 89.316444,32.477104 92.807144,34.197994 
	C95.295883,35.424927 98.408508,38.235283 98.570747,40.528107 
	C98.731766,42.803722 95.577850,45.336929 93.821465,47.715626 
	C92.923843,48.931290 91.426720,49.910782 91.019447,51.246674 
	C89.146576,57.389816 86.593971,62.917568 80.932915,66.613129 
	C73.991753,71.144333 74.206993,78.502022 81.279922,83.137085 
	C83.773178,84.770981 86.382248,86.232010 88.839424,87.916405 
	C95.937447,92.782082 100.361015,99.149666 100.155525,108.157242 
	C100.035423,113.421860 100.133644,118.691452 100.133644,124.150902 
	C115.984329,117.437035 136.561066,94.007370 132.818649,60.914211 
	C129.703781,33.370174 109.803001,8.967823 77.337769,4.358093 
	C48.394279,0.248414 21.231102,15.165808 8.973378,43.088947 
	C-2.206724,68.557259 5.693839,99.767258 23.497910,114.455719 
	C27.037245,113.004486 30.302311,111.665710 33.767738,110.244781 
	C34.792500,106.337685 33.165466,104.611855 28.895401,105.004860 
	C27.078577,105.172073 25.083021,105.468811 23.437281,104.912338 
	C21.256275,104.174873 18.111656,103.034805 17.606888,101.386246 
	C16.920767,99.145401 18.235821,96.233833 18.892925,93.661057 
	C19.298662,92.072472 20.704338,90.527916 20.584053,89.051323 
	C19.903812,80.700920 22.705685,74.084793 29.812624,69.582710 
	C37.271824,64.857483 44.946686,65.013084 52.093685,70.042297 
	C55.140709,72.186440 57.370712,75.491646 60.310806,78.631012 
	C61.090481,74.266068 62.624416,70.104370 57.651413,67.496101 
	C51.119839,64.070404 48.089493,58.258507 46.077202,51.542679 
	C45.630905,50.053219 44.027229,48.929623 43.033421,47.580864 
	C41.366879,45.319107 38.413254,42.954250 38.507729,40.739708 
	C38.603771,38.488552 41.311123,35.375870 43.618950,34.400093 
	C48.049629,32.526752 48.586182,30.705032 45.850883,26.959385 
	C45.150509,26.000309 45.252254,23.324411 46.041286,22.620169 
	C48.437893,20.481096 51.351170,18.920898 54.184322,17.686159 
	C54.069378,18.707424 53.954437,19.728687 53.844711,20.703606 
	C63.685009,20.703606 73.352219,20.703606 83.550362,20.703606 
	C82.908852,19.755594 82.578506,19.250278 82.231239,18.756868 
	C78.492958,13.445407 72.337059,12.893812 67.205605,10.316916 
M31.955465,91.995819 
	C34.121746,91.996193 36.290157,91.934906 38.453873,92.009636 
	C43.116817,92.170685 45.410099,94.771484 44.995205,99.398201 
	C44.507416,104.837753 40.432976,105.168381 36.277763,105.214958 
	C37.750496,111.945084 37.022331,112.893021 30.964943,114.111069 
	C29.172194,114.471565 27.620165,116.029167 25.660713,117.218552 
	C35.032871,124.811775 44.589481,129.834259 55.715725,131.866043 
	C55.829189,131.040222 55.951191,130.550629 55.954815,130.060196 
	C55.975731,127.227562 56.018517,124.393707 55.960316,121.562187 
	C55.852921,116.337746 54.138252,114.707672 48.964142,113.900475 
	C47.523430,113.675705 45.406071,112.430725 45.104736,111.264694 
	C44.200825,107.766975 44.581795,104.283707 48.336788,102.238770 
	C56.318233,97.892151 59.098595,91.102570 57.718548,82.160126 
	C50.190510,83.545387 44.573086,80.623787 40.566711,74.355438 
	C37.004940,79.755219 32.546494,82.858429 26.011496,82.582695 
	C25.053755,82.542282 23.327135,84.118805 23.143372,85.157242 
	C22.252035,90.194138 23.513041,91.398247 28.773827,91.372040 
	C29.542484,91.368210 30.313196,91.776207 31.955465,91.995819 
M67.501877,29.007711 
	C63.337456,29.007751 59.159374,29.216593 55.012703,28.945337 
	C51.337936,28.704950 49.425056,29.923969 49.535130,33.867218 
	C51.857021,33.867218 54.170822,33.867218 56.407078,33.867218 
	C56.319363,32.586254 56.235966,31.368340 56.119270,29.664125 
	C64.499084,36.015881 72.491661,36.000782 80.756561,29.758167 
	C80.756561,31.401442 80.756561,32.686142 80.756561,33.867378 
	C83.118027,33.867378 85.269417,33.867378 87.430573,33.867378 
	C87.581223,29.905594 85.655937,28.726074 81.988968,28.944309 
	C77.507256,29.211031 72.997581,29.007748 67.501877,29.007711 
M87.720131,23.533974 
	C69.657608,22.016859 50.091591,22.972807 47.880466,25.997309 
	C61.358540,25.997309 74.452278,26.011829 87.545158,25.912157 
	C87.866867,25.909708 88.178932,24.640152 87.720131,23.533974 
M24.863901,94.720795 
	C21.969162,94.674889 18.992168,95.461945 19.590078,98.775703 
	C19.870869,100.331924 22.900581,102.009567 24.948689,102.478439 
	C27.717699,103.112358 30.740887,102.636002 33.765144,102.636002 
	C33.765144,99.753197 33.765144,97.516319 33.765144,94.715324 
	C30.939671,94.715324 28.355244,94.715324 24.863901,94.720795 
M72.106712,75.502106 
	C69.343452,75.502106 66.580185,75.502106 63.230324,75.502106 
	C63.031765,78.248009 61.899719,81.137177 62.880371,82.704155 
	C65.983765,87.663017 68.503975,87.548149 73.087067,83.943611 
	C76.902008,80.943222 73.638573,78.493393 72.106712,75.502106 
M49.072353,78.695297 
	C51.344547,79.197617 53.616741,79.699936 56.399174,80.315056 
	C53.721642,73.216545 49.054909,69.945885 40.766109,69.784782 
	C43.800999,73.174164 46.108517,75.751228 49.072353,78.695297 
M31.474192,71.870163 
	C29.181009,74.128082 26.887827,76.385994 23.843410,79.383583 
	C32.637272,80.272743 37.817364,76.321404 38.558563,69.070023 
	C36.246258,69.919273 34.162254,70.684669 31.474192,71.870163 
M66.764626,42.047878 
	C68.411888,42.047878 70.059151,42.047878 71.932411,42.047878 
	C72.024872,40.259262 72.103210,38.743946 72.178413,37.289143 
	C69.455338,37.289143 67.047951,37.289143 64.295616,37.289143 
	C64.924797,39.123234 65.416229,40.555767 66.764626,42.047878 
M41.820580,100.717087 
	C42.882126,96.134041 42.047897,95.123985 37.304306,95.261185 
	C37.304306,97.642181 37.304306,100.023186 37.304306,102.974060 
	C38.916397,102.282402 40.075027,101.785294 41.820580,100.717087 
M94.460876,44.148323 
	C97.179138,39.646397 96.223732,37.631042 91.026779,37.437496 
	C91.026779,39.423611 90.808022,41.442112 91.156471,43.357422 
	C91.264816,43.952969 92.909904,44.268940 94.460876,44.148323 
M42.016697,38.484631 
	C40.347656,43.014137 41.005367,44.135151 45.823326,44.706623 
	C45.823326,42.240929 45.823326,39.794254 45.823326,36.782940 
	C44.554531,37.237171 43.586700,37.583660 42.016697,38.484631 
M87.978401,39.501251 
	C87.834755,35.225082 85.151146,37.463879 82.956573,37.257938 
	C83.103065,39.064053 83.214577,40.438877 83.419464,42.964882 
	C85.385872,41.843353 86.673126,41.109177 87.978401,39.501251 
M53.960556,40.378006 
	C53.421856,39.254536 53.137917,37.799488 52.256405,37.122177 
	C51.651608,36.657482 50.216114,37.273922 48.915428,37.436684 
	C49.089348,39.142910 49.229706,40.519871 49.414757,42.335274 
	C51.163364,41.903091 52.502312,41.572159 53.960556,40.378006 
z"/>
<path fill="#000000" opacity="1.000000" stroke="none" 
	d="
M52.531342,1.000000 
	C51.428215,1.990664 49.978004,3.345886 48.266220,3.916757 
	C26.154264,11.290974 11.462338,26.030643 3.982441,48.065762 
	C3.420512,49.721153 2.465263,51.243031 1.346427,52.913486 
	C1.000000,35.739902 1.000000,18.479805 1.000000,1.000000 
	C18.020264,1.000000 35.041473,1.000000 52.531342,1.000000 
z"/>
<path fill="#000000" opacity="1.000000" stroke="none" 
	d="
M136.000000,52.531342 
	C135.009430,51.429008 133.654068,49.979649 133.083572,48.268600 
	C125.710922,26.156384 110.972130,11.464128 88.937782,3.983088 
	C87.282555,3.421108 85.761292,2.464536 84.088882,1.345696 
	C101.260094,1.000000 118.520195,1.000000 136.000000,1.000000 
	C136.000000,18.020264 136.000000,35.041473 136.000000,52.531342 
z"/>
<path fill="#000000" opacity="1.000000" stroke="none" 
	d="
M84.468658,136.000000 
	C85.571915,135.009689 87.022377,133.655411 88.734154,133.084259 
	C110.842995,125.707344 125.540138,110.973335 133.017212,88.935776 
	C133.578873,87.280365 134.535004,85.758797 135.653870,84.087502 
	C136.000000,101.260094 136.000000,118.520195 136.000000,136.000000 
	C118.979736,136.000000 101.958527,136.000000 84.468658,136.000000 
z"/>
<path fill="#000000" opacity="1.000000" stroke="none" 
	d="
M1.000000,84.468658 
	C1.990488,85.570755 3.340576,87.020302 3.917010,88.730614 
	C11.414735,110.976768 26.167152,125.850319 48.547638,133.119812 
	C50.051041,133.608139 51.401318,134.567871 52.911407,135.654175 
	C35.739906,136.000000 18.479811,136.000000 1.000000,136.000000 
	C1.000000,118.979736 1.000000,101.958527 1.000000,84.468658 
z"/>
<path fill="#508CEE" opacity="1.000000" stroke="none" 
	d="
M54.063229,17.135260 
	C51.351170,18.920898 48.437893,20.481096 46.041286,22.620169 
	C45.252254,23.324411 45.150509,26.000309 45.850883,26.959385 
	C48.586182,30.705032 48.049629,32.526752 43.618950,34.400093 
	C41.311123,35.375870 38.603771,38.488552 38.507729,40.739708 
	C38.413254,42.954250 41.366879,45.319107 43.033421,47.580864 
	C44.027229,48.929623 45.630905,50.053219 46.077202,51.542679 
	C48.089493,58.258507 51.119839,64.070404 57.651413,67.496101 
	C62.624416,70.104370 61.090481,74.266068 60.310806,78.631012 
	C57.370712,75.491646 55.140709,72.186440 52.093685,70.042297 
	C44.946686,65.013084 37.271824,64.857483 29.812624,69.582710 
	C22.705685,74.084793 19.903812,80.700920 20.584053,89.051323 
	C20.704338,90.527916 19.298662,92.072472 18.892925,93.661057 
	C18.235821,96.233833 16.920767,99.145401 17.606888,101.386246 
	C18.111656,103.034805 21.256275,104.174873 23.437281,104.912338 
	C25.083021,105.468811 27.078577,105.172073 28.895401,105.004860 
	C33.165466,104.611855 34.792500,106.337685 33.767738,110.244781 
	C30.302311,111.665710 27.037245,113.004486 23.497910,114.455719 
	C5.693839,99.767258 -2.206724,68.557259 8.973378,43.088947 
	C21.231102,15.165808 48.394279,0.248414 77.337769,4.358093 
	C109.803001,8.967823 129.703781,33.370174 132.818649,60.914211 
	C136.561066,94.007370 115.984329,117.437035 100.133644,124.150902 
	C100.133644,118.691452 100.035423,113.421860 100.155525,108.157242 
	C100.361015,99.149666 95.937447,92.782082 88.839424,87.916405 
	C86.382248,86.232010 83.773178,84.770981 81.279922,83.137085 
	C74.206993,78.502022 73.991753,71.144333 80.932915,66.613129 
	C86.593971,62.917568 89.146576,57.389816 91.019447,51.246674 
	C91.426720,49.910782 92.923843,48.931290 93.821465,47.715626 
	C95.577850,45.336929 98.731766,42.803722 98.570747,40.528107 
	C98.408508,38.235283 95.295883,35.424927 92.807144,34.197994 
	C89.316444,32.477104 88.445488,30.773973 90.730637,27.763229 
	C92.643158,25.243441 92.333923,23.248114 89.910934,21.366102 
	C88.060463,19.928787 86.033310,18.627136 84.490730,16.902102 
	C79.477760,11.296214 72.108780,8.373597 66.653175,10.654398 
	C62.088242,13.039674 58.075733,15.087467 54.063229,17.135260 
z"/>
<path fill="#FDC3B2" opacity="1.000000" stroke="none" 
	d="
M31.519211,91.994736 
	C30.313196,91.776207 29.542484,91.368210 28.773827,91.372040 
	C23.513041,91.398247 22.252035,90.194138 23.143372,85.157242 
	C23.327135,84.118805 25.053755,82.542282 26.011496,82.582695 
	C32.546494,82.858429 37.004940,79.755219 40.566711,74.355438 
	C44.573086,80.623787 50.190510,83.545387 57.718548,82.160126 
	C59.098595,91.102570 56.318233,97.892151 48.336788,102.238770 
	C44.581795,104.283707 44.200825,107.766975 45.104736,111.264694 
	C45.406071,112.430725 47.523430,113.675705 48.964142,113.900475 
	C54.138252,114.707672 55.852921,116.337746 55.960316,121.562187 
	C56.018517,124.393707 55.975731,127.227562 55.954815,130.060196 
	C55.951191,130.550629 55.829189,131.040222 55.715725,131.866043 
	C44.589481,129.834259 35.032871,124.811775 25.660713,117.218552 
	C27.620165,116.029167 29.172194,114.471565 30.964943,114.111069 
	C37.022331,112.893021 37.750496,111.945084 36.277763,105.214958 
	C40.432976,105.168381 44.507416,104.837753 44.995205,99.398201 
	C45.410099,94.771484 43.116817,92.170685 38.453873,92.009636 
	C36.290157,91.934906 34.121746,91.996193 31.519211,91.994736 
z"/>
<path fill="#A8ABAB" opacity="1.000000" stroke="none" 
	d="
M56.928593,55.568844 
	C66.747688,50.791538 76.122498,53.608231 86.239258,57.460293 
	C81.208023,62.384892 76.468384,67.024078 70.467186,72.898087 
	C68.405022,73.076485 64.017418,74.555794 62.574100,68.238098 
	C62.260326,66.864647 59.889633,65.998390 58.537762,64.816780 
	C55.980621,62.581707 53.475296,60.287350 50.747879,57.837467 
	C52.036800,57.029781 52.724480,56.598858 53.800121,56.489662 
	C55.982689,60.080555 58.371487,62.397785 62.568542,61.898254 
	C60.688557,59.788452 58.808575,57.678646 56.928593,55.568844 
z"/>
<path fill="#AAADAD" opacity="1.000000" stroke="none" 
	d="
M95.808022,99.929642 
	C96.303139,101.963181 96.798264,103.996719 96.786362,106.475616 
	C80.109352,106.892738 63.939373,106.864487 47.769398,106.836227 
	C50.298328,104.645386 52.827255,102.454536 56.135185,100.131668 
	C69.878799,99.976303 82.843407,99.952972 95.808022,99.929642 
z"/>
<path fill="#A9ABAC" opacity="1.000000" stroke="none" 
	d="
M86.675812,119.155952 
	C85.846550,118.880997 85.017281,118.606041 83.557098,118.675545 
	C74.751572,119.053856 66.576973,119.087700 58.402367,119.121544 
	C57.629711,117.377335 56.857056,115.633133 56.301571,113.220108 
	C58.485920,112.371368 60.452076,112.048988 62.420441,112.034889 
	C74.179802,111.950645 85.939674,111.937462 97.699371,111.900452 
	C97.730598,114.002983 97.761818,116.105515 97.314972,118.649063 
	C93.449875,119.112045 90.062843,119.134003 86.675812,119.155952 
z"/>
<path fill="#DFDFDF" opacity="1.000000" stroke="none" 
	d="
M97.786079,111.533051 
	C85.939674,111.937462 74.179802,111.950645 62.420441,112.034889 
	C60.452076,112.048988 58.485920,112.371368 56.234730,112.868103 
	C53.908978,112.541962 51.890129,111.467087 49.820133,111.357384 
	C46.720161,111.193100 46.818211,109.516586 47.482407,107.104576 
	C63.939373,106.864487 80.109352,106.892738 96.762131,106.874527 
	C97.454216,108.273926 97.663506,109.719795 97.786079,111.533051 
z"/>
<path fill="#FDC4B2" opacity="1.000000" stroke="none" 
	d="
M54.033886,45.148426 
	C65.156967,45.148426 76.280045,45.148426 87.794052,45.148426 
	C87.865486,46.364086 87.983383,47.461082 87.985489,48.558300 
	C87.996658,54.375298 87.712097,54.777981 82.172142,52.966949 
	C73.330238,50.076504 64.606461,49.046078 55.397457,52.519047 
	C54.663624,49.774429 54.348755,47.461430 54.033886,45.148426 
z"/>
<path fill="#A7AAAA" opacity="1.000000" stroke="none" 
	d="
M83.845787,123.937683 
	C84.232155,131.846664 84.254288,132.076523 76.363167,132.836334 
	C71.459145,133.308517 66.462029,133.158524 61.538345,132.823151 
	C60.403336,132.745834 58.935005,130.933517 58.457073,129.616013 
	C57.930523,128.164444 58.368523,126.362976 58.908607,124.312057 
	C67.569183,123.919350 75.707489,123.928513 83.845787,123.937683 
z"/>
<path fill="#A8ABAB" opacity="1.000000" stroke="none" 
	d="
M54.123775,17.410709 
	C58.075733,15.087467 62.088242,13.039674 66.490875,10.978098 
	C72.337059,12.893812 78.492958,13.445407 82.231239,18.756868 
	C82.578506,19.250278 82.908852,19.755594 83.550362,20.703606 
	C73.352219,20.703606 63.685009,20.703606 53.844711,20.703606 
	C53.954437,19.728687 54.069378,18.707424 54.123775,17.410709 
z"/>
<path fill="#A9ACAC" opacity="1.000000" stroke="none" 
	d="
M59.173153,95.064148 
	C60.012394,92.474747 60.851631,89.885345 61.866032,86.755493 
	C66.633728,90.375702 70.691330,90.253929 75.008995,86.831406 
	C76.137062,85.937210 79.133606,86.491768 80.777992,87.339378 
	C84.646667,89.333504 88.217270,91.905884 91.567009,94.591370 
	C80.541412,94.980362 69.857285,95.022255 59.173153,95.064148 
z"/>
<path fill="#E0E0E0" opacity="1.000000" stroke="none" 
	d="
M59.028263,95.363884 
	C69.857285,95.022255 80.541412,94.980362 91.704926,94.904190 
	C93.363533,96.343895 94.542763,97.817871 95.764999,99.610748 
	C82.843407,99.952972 69.878799,99.976303 56.443840,99.997719 
	C56.943455,98.551743 57.913414,97.107681 59.028263,95.363884 
z"/>
<path fill="#FEC5B3" opacity="1.000000" stroke="none" 
	d="
M68.000938,29.007711 
	C72.997581,29.007748 77.507256,29.211031 81.988968,28.944309 
	C85.655937,28.726074 87.581223,29.905594 87.430573,33.867378 
	C85.269417,33.867378 83.118027,33.867378 80.756561,33.867378 
	C80.756561,32.686142 80.756561,31.401442 80.756561,29.758167 
	C72.491661,36.000782 64.499084,36.015881 56.119270,29.664125 
	C56.235966,31.368340 56.319363,32.586254 56.407078,33.867218 
	C54.170822,33.867218 51.857021,33.867218 49.535130,33.867218 
	C49.425056,29.923969 51.337936,28.704950 55.012703,28.945337 
	C59.159374,29.216593 63.337456,29.007751 68.000938,29.007711 
z"/>
<path fill="#E0E0E0" opacity="1.000000" stroke="none" 
	d="
M83.910179,123.534683 
	C75.707489,123.928513 67.569183,123.919350 59.000504,123.871155 
	C58.486351,122.523796 58.402580,121.215469 58.360588,119.514343 
	C66.576973,119.087700 74.751572,119.053856 83.384384,119.040741 
	C83.886589,120.418198 83.930580,121.774940 83.910179,123.534683 
z"/>
<path fill="#969999" opacity="1.000000" stroke="none" 
	d="
M88.107819,23.747772 
	C88.178932,24.640152 87.866867,25.909708 87.545158,25.912157 
	C74.452278,26.011829 61.358540,25.997309 47.880466,25.997309 
	C50.091591,22.972807 69.657608,22.016859 88.107819,23.747772 
z"/>
<path fill="#A2A5A5" opacity="1.000000" stroke="none" 
	d="
M25.317358,94.718063 
	C28.355244,94.715324 30.939671,94.715324 33.765144,94.715324 
	C33.765144,97.516319 33.765144,99.753197 33.765144,102.636002 
	C30.740887,102.636002 27.717699,103.112358 24.948689,102.478439 
	C22.900581,102.009567 19.870869,100.331924 19.590078,98.775703 
	C18.992168,95.461945 21.969162,94.674889 25.317358,94.718063 
z"/>
<path fill="#FAC1B0" opacity="1.000000" stroke="none" 
	d="
M72.524353,75.654572 
	C73.638573,78.493393 76.902008,80.943222 73.087067,83.943611 
	C68.503975,87.548149 65.983765,87.663017 62.880371,82.704155 
	C61.899719,81.137177 63.031765,78.248009 63.230324,75.502106 
	C66.580185,75.502106 69.343452,75.502106 72.524353,75.654572 
z"/>
<path fill="#A74C2D" opacity="1.000000" stroke="none" 
	d="
M48.744194,78.511795 
	C46.108517,75.751228 43.800999,73.174164 40.766109,69.784782 
	C49.054909,69.945885 53.721642,73.216545 56.399174,80.315056 
	C53.616741,79.699936 51.344547,79.197617 48.744194,78.511795 
z"/>
<path fill="#A74C2D" opacity="1.000000" stroke="none" 
	d="
M31.776218,71.660110 
	C34.162254,70.684669 36.246258,69.919273 38.558563,69.070023 
	C37.817364,76.321404 32.637272,80.272743 23.843410,79.383583 
	C26.887827,76.385994 29.181009,74.128082 31.776218,71.660110 
z"/>
<path fill="#E0E0E0" opacity="1.000000" stroke="none" 
	d="
M86.592583,119.534744 
	C90.062843,119.134003 93.449875,119.112045 97.268982,119.097656 
	C97.759521,120.432922 97.818001,121.760605 97.370712,123.511826 
	C93.467712,123.880692 90.070457,123.826019 86.673210,123.771347 
	C86.618591,122.485405 86.563972,121.199471 86.592583,119.534744 
z"/>
<path fill="#9EA0A1" opacity="1.000000" stroke="none" 
	d="
M86.572800,124.192970 
	C90.070457,123.826019 93.467712,123.880692 97.298553,123.905464 
	C96.363495,129.783951 90.887321,128.292160 86.472397,130.860855 
	C86.472397,128.072372 86.472397,126.343483 86.572800,124.192970 
z"/>
<path fill="#FED7CD" opacity="1.000000" stroke="none" 
	d="
M53.598705,45.070030 
	C54.348755,47.461430 54.663624,49.774429 55.006889,52.472977 
	C49.020023,55.119537 48.497921,54.439236 49.436592,44.991638 
	C50.639881,44.991638 51.901703,44.991638 53.598705,45.070030 
z"/>
<path fill="#A5A8A8" opacity="1.000000" stroke="none" 
	d="
M66.336136,42.018089 
	C65.416229,40.555767 64.924797,39.123234 64.295616,37.289143 
	C67.047951,37.289143 69.455338,37.289143 72.178413,37.289143 
	C72.103210,38.743946 72.024872,40.259262 71.932411,42.047878 
	C70.059151,42.047878 68.411888,42.047878 66.336136,42.018089 
z"/>
<path fill="#F8C0AF" opacity="1.000000" stroke="none" 
	d="
M41.527122,101.002640 
	C40.075027,101.785294 38.916397,102.282402 37.304306,102.974060 
	C37.304306,100.023186 37.304306,97.642181 37.307045,95.258377 
	C42.047897,95.123985 42.882126,96.134041 41.527122,101.002640 
z"/>
<path fill="#FFC5B3" opacity="1.000000" stroke="none" 
	d="
M94.156174,44.430611 
	C92.909904,44.268940 91.264816,43.952969 91.156471,43.357422 
	C90.808022,41.442112 91.026779,39.423611 91.026779,37.437496 
	C96.223732,37.631042 97.179138,39.646397 94.156174,44.430611 
z"/>
<path fill="#FFC5B3" opacity="1.000000" stroke="none" 
	d="
M42.317787,38.207390 
	C43.586700,37.583660 44.554531,37.237171 45.823326,36.782940 
	C45.823326,39.794254 45.823326,42.240929 45.823326,44.706623 
	C41.005367,44.135151 40.347656,43.014137 42.317787,38.207390 
z"/>
<path fill="#DEDEDE" opacity="1.000000" stroke="none" 
	d="
M56.575005,55.667297 
	C58.808575,57.678646 60.688557,59.788452 62.568542,61.898254 
	C58.371487,62.397785 55.982689,60.080555 54.123817,56.483528 
	C54.780170,56.025696 55.500793,55.895721 56.575005,55.667297 
z"/>
<path fill="#AAADAD" opacity="1.000000" stroke="none" 
	d="
M87.969391,39.938126 
	C86.673126,41.109177 85.385872,41.843353 83.419464,42.964882 
	C83.214577,40.438877 83.103065,39.064053 82.956573,37.257938 
	C85.151146,37.463879 87.834755,35.225082 87.969391,39.938126 
z"/>
<path fill="#AAADAD" opacity="1.000000" stroke="none" 
	d="
M53.900909,40.809616 
	C52.502312,41.572159 51.163364,41.903091 49.414757,42.335274 
	C49.229706,40.519871 49.089348,39.142910 48.915428,37.436684 
	C50.216114,37.273922 51.651608,36.657482 52.256405,37.122177 
	C53.137917,37.799488 53.421856,39.254536 53.900909,40.809616 
z"/>
</svg>