<svg version="1.1" id="Layer_1" xmlns="http://www.w3.org/2000/svg" xmlns:xlink="http://www.w3.org/1999/xlink" x="0px" y="0px"
	 width="100%" viewBox="0 0 147 147" enable-background="new 0 0 147 147" xml:space="preserve">
<path fill="#000000" opacity="1.000000" stroke="none" 
	d="
M148.000000,50.000000 
	C148.000000,82.972343 148.000000,115.444695 148.000000,147.958527 
	C99.069374,147.958527 50.138706,147.958527 1.104017,147.958527 
	C1.104017,99.111237 1.104017,50.222172 1.104017,1.166555 
	C49.999531,1.166555 98.999725,1.166555 148.000000,1.166555 
	C148.000000,17.194260 148.000000,33.347130 148.000000,50.000000 
M144.875977,80.088089 
	C143.932175,71.960625 143.704086,63.670395 141.900269,55.738506 
	C137.742111,37.453827 126.600990,23.992777 110.754501,14.371570 
	C96.849792,5.929310 81.917038,2.792875 65.568520,4.842122 
	C50.601341,6.718222 37.718082,12.664045 26.938259,22.725040 
	C8.236287,40.179916 0.835934,62.161182 5.239149,87.186897 
	C9.127907,109.288696 21.720728,126.187912 41.630150,136.710999 
	C54.428722,143.475632 68.184120,146.223892 83.052017,144.213821 
	C98.854630,142.077362 112.264481,135.823135 123.536919,124.886635 
	C135.912033,112.880302 142.944977,98.171417 144.875977,80.088089 
z"/>
<path fill="#3862CB" opacity="1.000000" stroke="none" 
	d="
M144.688461,80.508011 
	C142.944977,98.171417 135.912033,112.880302 123.536919,124.886635 
	C112.264481,135.823135 98.854630,142.077362 83.052017,144.213821 
	C68.184120,146.223892 54.428722,143.475632 41.630150,136.710999 
	C21.720728,126.187912 9.127907,109.288696 5.239149,87.186897 
	C0.835934,62.161182 8.236287,40.179916 26.938259,22.725040 
	C37.718082,12.664045 50.601341,6.718222 65.568520,4.842122 
	C81.917038,2.792875 96.849792,5.929310 110.754501,14.371570 
	C126.600990,23.992777 137.742111,37.453827 141.900269,55.738506 
	C143.704086,63.670395 143.932175,71.960625 144.688461,80.508011 
M23.485538,30.011536 
	C9.580998,46.419609 4.469873,65.212715 7.949733,86.442596 
	C14.152415,124.283852 53.228687,149.892578 90.282227,140.312210 
	C126.423721,130.967651 148.135895,97.460594 140.779480,60.689003 
	C134.951279,31.556316 111.580162,10.376469 82.041641,7.190892 
	C59.269119,4.734993 39.578857,12.281694 23.485538,30.011536 
z"/>
<path fill="#F7A6A7" opacity="1.000000" stroke="none" 
	d="
M23.737223,29.758690 
	C39.578857,12.281694 59.269119,4.734993 82.041641,7.190892 
	C111.580162,10.376469 134.951279,31.556316 140.779480,60.689003 
	C148.135895,97.460594 126.423721,130.967651 90.282227,140.312210 
	C53.228687,149.892578 14.152415,124.283852 7.949733,86.442596 
	C4.469873,65.212715 9.580998,46.419609 23.737223,29.758690 
M21.543135,91.819878 
	C24.406717,97.661407 27.270302,103.502937 30.031769,109.136162 
	C56.700497,82.482338 82.561455,56.635818 108.560364,30.651438 
	C108.396065,30.513012 107.929657,30.084816 107.428154,29.702681 
	C95.908424,20.924856 82.756241,18.078072 68.561806,18.999317 
	C53.961342,19.946911 42.901966,29.157085 30.728182,35.590385 
	C26.647678,37.746754 23.860630,42.294525 20.357700,45.617813 
	C17.546570,48.284786 17.016949,50.686871 20.069948,53.638916 
	C20.966072,54.505413 21.511795,56.536709 21.178106,57.747555 
	C18.107590,68.889503 18.071817,79.976601 21.543135,91.819878 
M114.482491,42.995605 
	C89.595329,67.876213 64.708168,92.756821 39.514660,117.943695 
	C56.851353,130.624847 75.019333,133.754272 94.391174,126.282600 
	C100.183342,124.048561 104.829483,122.251686 109.230019,127.979828 
	C109.337715,128.120010 109.850708,127.948814 111.437347,127.821609 
	C111.033585,124.746864 110.639565,121.746315 110.079193,117.478989 
	C120.594170,108.770966 128.238251,96.330757 129.856812,81.056290 
	C131.457428,65.951172 127.997971,51.928474 117.837814,39.838402 
	C116.679039,40.918243 115.831337,41.708210 114.482491,42.995605 
z"/>
<path fill="#3C65CC" opacity="1.000000" stroke="none" 
	d="
M21.366699,91.454826 
	C18.071817,79.976601 18.107590,68.889503 21.178106,57.747555 
	C21.511795,56.536709 20.966072,54.505413 20.069948,53.638916 
	C17.016949,50.686871 17.546570,48.284786 20.357700,45.617813 
	C23.860630,42.294525 26.647678,37.746754 30.728182,35.590385 
	C42.901966,29.157085 53.961342,19.946911 68.561806,18.999317 
	C82.756241,18.078072 95.908424,20.924856 107.428154,29.702681 
	C107.929657,30.084816 108.396065,30.513012 108.560364,30.651438 
	C82.561455,56.635818 56.700497,82.482338 30.031769,109.136162 
	C27.270302,103.502937 24.406717,97.661407 21.366699,91.454826 
M49.335934,55.242069 
	C46.193390,58.462502 43.050842,61.682930 39.347179,65.190636 
	C39.217407,66.004616 38.675747,67.214378 39.020119,67.572769 
	C43.632874,72.373405 48.325695,77.101166 53.153461,81.683899 
	C53.564148,82.073746 55.080025,81.299301 56.656361,80.732445 
	C59.796150,77.511734 62.935940,74.291023 66.672302,70.774551 
	C66.758583,69.698364 67.348671,68.148193 66.852089,67.620377 
	C62.566849,63.065624 58.158897,58.616077 53.569965,54.370323 
	C53.000515,53.843456 51.159550,54.690887 49.335934,55.242069 
M39.927887,36.852768 
	C39.155121,38.893921 38.382355,40.935074 37.431046,43.447815 
	C39.152779,45.204575 41.225075,47.319027 43.459560,49.598969 
	C44.748180,48.486496 45.622387,47.420330 46.746895,46.835075 
	C48.373787,45.988338 50.458645,44.649891 51.827591,45.100971 
	C52.981121,45.481068 53.414337,48.103580 54.124657,49.751484 
	C54.558384,50.757702 54.655052,52.035919 55.345150,52.784424 
	C59.940250,57.768448 64.654633,62.642498 68.923187,67.124840 
	C71.987961,64.411568 74.281326,62.381237 75.529274,61.276413 
	C74.490891,57.280792 73.289780,54.139576 72.934395,50.905426 
	C72.518463,47.120411 72.789963,43.253635 72.851959,39.423763 
	C72.949867,33.375786 75.648125,30.176411 80.697449,29.996849 
	C85.895172,29.812008 89.400574,33.171787 89.850739,38.976959 
	C90.035728,41.362591 89.881371,43.774540 89.881371,45.932049 
	C95.198280,40.790123 100.229134,35.924843 105.238289,31.080536 
	C85.897881,16.992514 59.312721,17.741331 40.908451,33.089645 
	C40.157612,33.715809 40.054050,35.118126 39.927887,36.852768 
M21.037498,70.829514 
	C20.571859,83.594467 23.692703,95.274994 30.730150,104.937752 
	C37.746449,97.964058 44.656277,91.096191 52.003784,83.793304 
	C47.567898,79.519157 42.818268,74.871315 37.961864,70.337852 
	C37.205070,69.631386 35.956524,69.457619 34.943874,69.017944 
	C33.302647,68.305359 30.363194,67.674751 30.299973,66.834381 
	C30.163643,65.022202 31.367229,63.025879 32.296635,61.248215 
	C32.851383,60.187157 33.925468,59.397617 34.384716,58.899597 
	C32.190247,56.330006 30.266766,54.077728 27.746447,51.126591 
	C26.230412,53.643997 24.682398,55.395386 24.053925,57.430714 
	C22.793703,61.511990 22.035997,65.748436 21.037498,70.829514 
M82.953781,32.337795 
	C75.992073,32.022747 73.965805,35.091900 75.694260,43.577293 
	C79.331284,43.577293 82.999367,43.577293 86.770096,43.577293 
	C87.026428,39.271652 88.300186,35.136742 82.953781,32.337795 
M26.999735,42.507221 
	C25.502588,44.051723 23.813597,45.460930 22.588861,47.197548 
	C21.972248,48.071877 22.198305,49.540489 22.043308,50.740368 
	C23.233942,50.717178 24.878124,51.191811 25.540272,50.588551 
	C29.326967,47.138607 32.965870,43.510914 36.426670,39.734375 
	C36.991947,39.117527 36.421265,37.459690 36.375614,36.282993 
	C35.316563,36.347279 33.939568,36.010513 33.257935,36.550884 
	C31.193991,38.187092 29.399527,40.163227 26.999735,42.507221 
M86.969154,49.862114 
	C86.422432,48.924862 85.936295,47.226250 85.318909,47.177124 
	C81.964691,46.910213 78.578079,47.050354 75.039948,47.050354 
	C75.039948,49.763699 74.668121,51.830631 75.153252,53.671761 
	C75.568962,55.249413 76.752068,56.848171 78.051506,57.841385 
	C78.472786,58.163383 80.482597,56.766388 81.506477,55.862080 
	C83.350441,54.233448 84.998711,52.383244 86.969154,49.862114 
M43.562809,53.053013 
	C39.996956,57.572189 34.190357,60.336704 31.929596,66.995529 
	C37.595272,65.009361 50.917171,51.206329 51.555542,45.811260 
	C48.420021,48.618992 46.233822,50.576649 43.562809,53.053013 
M41.725960,51.483444 
	C39.598469,49.250381 37.470982,47.017319 35.582291,45.034904 
	C33.399803,46.872780 31.585068,48.400967 30.264656,49.512886 
	C32.685089,52.047817 34.778072,54.239807 36.877087,56.438110 
	C38.296169,55.044750 39.822292,53.546284 41.725960,51.483444 
z"/>
<path fill="#3D66CC" opacity="1.000000" stroke="none" 
	d="
M114.733063,42.746891 
	C115.831337,41.708210 116.679039,40.918243 117.837814,39.838402 
	C127.997971,51.928474 131.457428,65.951172 129.856812,81.056290 
	C128.238251,96.330757 120.594170,108.770966 110.079193,117.478989 
	C110.639565,121.746315 111.033585,124.746864 111.437347,127.821609 
	C109.850708,127.948814 109.337715,128.120010 109.230019,127.979828 
	C104.829483,122.251686 100.183342,124.048561 94.391174,126.282600 
	C75.019333,133.754272 56.851353,130.624847 39.514660,117.943695 
	C64.708168,92.756821 89.595329,67.876213 114.733063,42.746891 
M77.367355,83.272102 
	C74.221161,86.487610 71.074959,89.703125 67.372803,93.207352 
	C67.050705,93.748306 66.345963,94.655235 66.462288,94.776863 
	C69.655594,98.115616 72.877609,101.433472 76.260002,104.577095 
	C76.720741,105.005318 78.431595,104.865288 78.920753,104.362679 
	C82.688316,100.491493 86.297211,96.465889 89.955330,92.488190 
	C87.322899,89.227226 84.692345,85.964745 82.054420,82.708237 
	C81.847298,82.452553 81.540466,82.005905 81.361931,82.042946 
	C80.210587,82.281837 79.082047,82.630653 77.367355,83.272102 
M93.964737,99.492653 
	C92.820694,102.039169 93.297272,103.958847 95.475273,105.972115 
	C99.245720,109.457413 102.638069,113.351753 106.107887,116.989464 
	C127.741119,102.450584 136.294312,67.931557 117.558098,43.386135 
	C114.066368,46.870384 110.592270,50.337036 108.016014,52.907772 
	C108.792122,57.245480 109.646156,60.652115 109.951210,64.107224 
	C110.257507,67.576355 110.042038,71.094017 110.010185,74.589996 
	C109.954391,80.714966 106.940735,84.071411 101.599686,84.008888 
	C96.665764,83.951118 93.165710,80.066132 92.998764,74.409348 
	C92.943863,72.549385 92.990112,70.686440 92.990112,68.481056 
	C89.002251,72.479218 85.639160,75.850990 81.493294,80.007561 
	C84.249710,82.431358 87.317635,84.749954 89.875748,87.536552 
	C91.177658,88.954758 91.665802,91.178947 92.332375,93.104378 
	C92.965576,94.933403 93.351860,96.847916 93.964737,99.492653 
M93.617928,124.241013 
	C96.008263,123.185364 98.398605,122.129723 100.874214,121.036407 
	C94.289246,112.141312 88.373810,106.577980 80.615639,106.997765 
	C73.962540,107.357750 71.612793,103.336090 67.902512,100.191628 
	C66.667282,99.144783 65.519859,97.994331 64.643845,97.180626 
	C57.553471,104.286491 50.703255,111.151657 43.740341,118.129784 
	C58.865601,128.362213 75.313019,130.749512 93.617928,124.241013 
M96.103256,78.099586 
	C97.990585,80.867828 100.210342,83.026070 103.852531,81.250282 
	C108.779030,78.848343 108.310951,74.536217 107.654930,70.212242 
	C97.012871,67.283768 94.270798,68.974434 96.103256,78.099586 
M107.737976,59.393177 
	C106.977852,58.222786 106.217720,57.052395 105.457596,55.882000 
	C105.714478,56.396767 105.971367,56.911530 106.228249,57.426292 
	C102.653923,60.344662 99.079590,63.263035 94.838463,66.725830 
	C99.715889,66.725830 103.594986,66.725830 107.919662,66.725830 
	C107.919662,64.408211 107.919662,62.306057 107.737976,59.393177 
M88.145058,103.624382 
	C89.563293,101.876297 92.442444,100.431145 90.009796,97.658310 
	C87.186783,100.091194 84.765343,102.178009 82.343895,104.264816 
	C82.654274,104.821251 82.964653,105.377686 83.275032,105.934128 
	C84.726387,105.328514 86.177742,104.722900 88.145058,103.624382 
M91.954620,105.940002 
	C91.530045,105.824066 91.105469,105.708130 90.680893,105.592194 
	C91.026505,105.945625 91.372116,106.299065 91.954620,105.940002 
M107.576324,123.143539 
	C107.965118,123.014137 108.353920,122.884735 108.742714,122.755325 
	C108.258789,122.643433 107.774864,122.531532 107.576324,123.143539 
z"/>
<path fill="#F7CECF" opacity="1.000000" stroke="none" 
	d="
M39.788403,36.505798 
	C40.054050,35.118126 40.157612,33.715809 40.908451,33.089645 
	C59.312721,17.741331 85.897881,16.992514 105.238289,31.080536 
	C100.229134,35.924843 95.198280,40.790123 89.881371,45.932049 
	C89.881371,43.774540 90.035728,41.362591 89.850739,38.976959 
	C89.400574,33.171787 85.895172,29.812008 80.697449,29.996849 
	C75.648125,30.176411 72.949867,33.375786 72.851959,39.423763 
	C72.789963,43.253635 72.518463,47.120411 72.934395,50.905426 
	C73.289780,54.139576 74.490891,57.280792 75.529274,61.276413 
	C74.281326,62.381237 71.987961,64.411568 68.923187,67.124840 
	C64.654633,62.642498 59.940250,57.768448 55.345150,52.784424 
	C54.655052,52.035919 54.558384,50.757702 54.124657,49.751484 
	C53.414337,48.103580 52.981121,45.481068 51.827591,45.100971 
	C50.458645,44.649891 48.373787,45.988338 46.746895,46.835075 
	C45.622387,47.420330 44.748180,48.486496 43.459560,49.598969 
	C41.225075,47.319027 39.152779,45.204575 37.431046,43.447815 
	C38.382355,40.935074 39.155121,38.893921 39.788403,36.505798 
z"/>
<path fill="#F8CECF" opacity="1.000000" stroke="none" 
	d="
M21.054180,70.375168 
	C22.035997,65.748436 22.793703,61.511990 24.053925,57.430714 
	C24.682398,55.395386 26.230412,53.643997 27.746447,51.126591 
	C30.266766,54.077728 32.190247,56.330006 34.384716,58.899597 
	C33.925468,59.397617 32.851383,60.187157 32.296635,61.248215 
	C31.367229,63.025879 30.163643,65.022202 30.299973,66.834381 
	C30.363194,67.674751 33.302647,68.305359 34.943874,69.017944 
	C35.956524,69.457619 37.205070,69.631386 37.961864,70.337852 
	C42.818268,74.871315 47.567898,79.519157 52.003784,83.793304 
	C44.656277,91.096191 37.746449,97.964058 30.730150,104.937752 
	C23.692703,95.274994 20.571859,83.594467 21.054180,70.375168 
z"/>
<path fill="#A4C9FF" opacity="1.000000" stroke="none" 
	d="
M66.075729,71.070312 
	C62.935940,74.291023 59.796150,77.511734 56.192818,80.609879 
	C50.455612,75.292664 45.181953,70.098007 39.908295,64.903358 
	C43.050842,61.682930 46.193390,58.462502 49.817673,55.350227 
	C55.558182,60.662361 60.816956,65.866333 66.075729,71.070312 
z"/>
<path fill="#A4C9FF" opacity="1.000000" stroke="none" 
	d="
M83.301994,32.524971 
	C88.300186,35.136742 87.026428,39.271652 86.770096,43.577293 
	C82.999367,43.577293 79.331284,43.577293 75.694260,43.577293 
	C73.965805,35.091900 75.992073,32.022747 83.301994,32.524971 
z"/>
<path fill="#4570C6" opacity="1.000000" stroke="none" 
	d="
M27.249897,42.257065 
	C29.399527,40.163227 31.193991,38.187092 33.257935,36.550884 
	C33.939568,36.010513 35.316563,36.347279 36.375614,36.282993 
	C36.421265,37.459690 36.991947,39.117527 36.426670,39.734375 
	C32.965870,43.510914 29.326967,47.138607 25.540272,50.588551 
	C24.878124,51.191811 23.233942,50.717178 22.043308,50.740368 
	C22.198305,49.540489 21.972248,48.071877 22.588861,47.197548 
	C23.813597,45.460930 25.502588,44.051723 27.249897,42.257065 
z"/>
<path fill="#DFEAFC" opacity="1.000000" stroke="none" 
	d="
M86.848938,50.243858 
	C84.998711,52.383244 83.350441,54.233448 81.506477,55.862080 
	C80.482597,56.766388 78.472786,58.163383 78.051506,57.841385 
	C76.752068,56.848171 75.568962,55.249413 75.153252,53.671761 
	C74.668121,51.830631 75.039948,49.763699 75.039948,47.050354 
	C78.578079,47.050354 81.964691,46.910213 85.318909,47.177124 
	C85.936295,47.226250 86.422432,48.924862 86.848938,50.243858 
z"/>
<path fill="#68D6DC" opacity="1.000000" stroke="none" 
	d="
M43.805214,52.793659 
	C46.233822,50.576649 48.420021,48.618992 51.555542,45.811260 
	C50.917171,51.206329 37.595272,65.009361 31.929596,66.995529 
	C34.190357,60.336704 39.996956,57.572189 43.805214,52.793659 
z"/>
<path fill="#D6E3FA" opacity="1.000000" stroke="none" 
	d="
M66.374016,70.922432 
	C60.816956,65.866333 55.558182,60.662361 50.103592,55.179943 
	C51.159550,54.690887 53.000515,53.843456 53.569965,54.370323 
	C58.158897,58.616077 62.566849,63.065624 66.852089,67.620377 
	C67.348671,68.148193 66.758583,69.698364 66.374016,70.922432 
z"/>
<path fill="#E0EBFC" opacity="1.000000" stroke="none" 
	d="
M41.537186,51.765633 
	C39.822292,53.546284 38.296169,55.044750 36.877087,56.438110 
	C34.778072,54.239807 32.685089,52.047817 30.264656,49.512886 
	C31.585068,48.400967 33.399803,46.872780 35.582291,45.034904 
	C37.470982,47.017319 39.598469,49.250381 41.537186,51.765633 
z"/>
<path fill="#E0EBFC" opacity="1.000000" stroke="none" 
	d="
M39.627739,65.046997 
	C45.181953,70.098007 50.455612,75.292664 55.905876,80.776520 
	C55.080025,81.299301 53.564148,82.073746 53.153461,81.683899 
	C48.325695,77.101166 43.632874,72.373405 39.020119,67.572769 
	C38.675747,67.214378 39.217407,66.004616 39.627739,65.046997 
z"/>
<path fill="#F7CECF" opacity="1.000000" stroke="none" 
	d="
M93.905724,99.108749 
	C93.351860,96.847916 92.965576,94.933403 92.332375,93.104378 
	C91.665802,91.178947 91.177658,88.954758 89.875748,87.536552 
	C87.317635,84.749954 84.249710,82.431358 81.493294,80.007561 
	C85.639160,75.850990 89.002251,72.479218 92.990112,68.481056 
	C92.990112,70.686440 92.943863,72.549385 92.998764,74.409348 
	C93.165710,80.066132 96.665764,83.951118 101.599686,84.008888 
	C106.940735,84.071411 109.954391,80.714966 110.010185,74.589996 
	C110.042038,71.094017 110.257507,67.576355 109.951210,64.107224 
	C109.646156,60.652115 108.792122,57.245480 108.016014,52.907772 
	C110.592270,50.337036 114.066368,46.870384 117.558098,43.386135 
	C136.294312,67.931557 127.741119,102.450584 106.107887,116.989464 
	C102.638069,113.351753 99.245720,109.457413 95.475273,105.972115 
	C93.297272,103.958847 92.820694,102.039169 93.905724,99.108749 
z"/>
<path fill="#F8CECF" opacity="1.000000" stroke="none" 
	d="
M93.283493,124.448906 
	C75.313019,130.749512 58.865601,128.362213 43.740341,118.129784 
	C50.703255,111.151657 57.553471,104.286491 64.643845,97.180626 
	C65.519859,97.994331 66.667282,99.144783 67.902512,100.191628 
	C71.612793,103.336090 73.962540,107.357750 80.615639,106.997765 
	C88.373810,106.577980 94.289246,112.141312 100.874214,121.036407 
	C98.398605,122.129723 96.008263,123.185364 93.283493,124.448906 
z"/>
<path fill="#A4C9FF" opacity="1.000000" stroke="none" 
	d="
M67.928764,92.918633 
	C71.074959,89.703125 74.221161,86.487610 77.856895,83.379288 
	C80.051437,85.298332 81.954681,86.969864 83.378220,88.980949 
	C84.095314,89.994019 84.545746,91.891045 84.084488,92.930138 
	C81.098679,99.656349 76.258186,100.498489 70.973526,95.462868 
	C70.018036,94.552414 68.946648,93.763603 67.928764,92.918633 
z"/>
<path fill="#DBE7FB" opacity="1.000000" stroke="none" 
	d="
M67.650787,93.062988 
	C68.946648,93.763603 70.018036,94.552414 70.973526,95.462868 
	C76.258186,100.498489 81.098679,99.656349 84.084488,92.930138 
	C84.545746,91.891045 84.095314,89.994019 83.378220,88.980949 
	C81.954681,86.969864 80.051437,85.298332 78.146233,83.214935 
	C79.082047,82.630653 80.210587,82.281837 81.361931,82.042946 
	C81.540466,82.005905 81.847298,82.452553 82.054420,82.708237 
	C84.692345,85.964745 87.322899,89.227226 89.955322,92.488190 
	C86.297211,96.465889 82.688316,100.491493 78.920753,104.362679 
	C78.431595,104.865288 76.720741,105.005318 76.260002,104.577095 
	C72.877609,101.433472 69.655594,98.115616 66.462288,94.776863 
	C66.345963,94.655235 67.050705,93.748306 67.650787,93.062988 
z"/>
<path fill="#9EC3FC" opacity="1.000000" stroke="none" 
	d="
M96.007111,77.715302 
	C94.270798,68.974434 97.012871,67.283768 107.654930,70.212242 
	C108.310951,74.536217 108.779030,78.848343 103.852531,81.250282 
	C100.210342,83.026070 97.990585,80.867828 96.007111,77.715302 
z"/>
<path fill="#DDE9FB" opacity="1.000000" stroke="none" 
	d="
M107.828819,59.798542 
	C107.919662,62.306057 107.919662,64.408211 107.919662,66.725830 
	C103.594986,66.725830 99.715889,66.725830 94.838463,66.725830 
	C99.079590,63.263035 102.653923,60.344662 106.228249,57.426292 
	C105.971367,56.911530 105.714478,56.396767 105.457596,55.882000 
	C106.217720,57.052395 106.977852,58.222786 107.828819,59.798542 
z"/>
<path fill="#6ADBDD" opacity="1.000000" stroke="none" 
	d="
M87.887077,103.870834 
	C86.177742,104.722900 84.726387,105.328514 83.275032,105.934128 
	C82.964653,105.377686 82.654274,104.821251 82.343895,104.264816 
	C84.765343,102.178009 87.186783,100.091194 90.009796,97.658310 
	C92.442444,100.431145 89.563293,101.876297 87.887077,103.870834 
z"/>
<path fill="#E0EBFC" opacity="1.000000" stroke="none" 
	d="
M91.836166,106.296249 
	C91.372116,106.299065 91.026505,105.945625 90.680893,105.592194 
	C91.105469,105.708130 91.530045,105.824066 91.836166,106.296249 
z"/>
<path fill="#E0EBFC" opacity="1.000000" stroke="none" 
	d="
M107.433632,122.781586 
	C107.774864,122.531532 108.258789,122.643433 108.742714,122.755325 
	C108.353920,122.884735 107.965118,123.014137 107.433632,122.781586 
z"/>
</svg>