<svg version="1.1" id="Layer_1" xmlns="http://www.w3.org/2000/svg" xmlns:xlink="http://www.w3.org/1999/xlink" x="0px" y="0px"
	 width="100%" viewBox="0 0 103 104" enable-background="new 0 0 103 104" xml:space="preserve">
<path fill="#305392" opacity="1.000000" stroke="none" 
	d="
M104.000000,38.000000 
	C104.000000,47.687561 104.000000,57.375122 103.624016,67.424927 
	C102.982338,67.973427 102.550423,68.108299 102.474678,68.353287 
	C97.200264,85.411911 85.847664,96.645355 69.398727,103.069511 
	C68.776123,103.312668 68.459312,104.338760 68.000000,105.000000 
	C57.979107,105.000000 47.958210,105.000000 37.599136,104.636993 
	C37.078548,104.004913 36.954151,103.582970 36.705448,103.488579 
	C20.109549,97.189964 8.342303,86.181175 2.827278,68.985947 
	C2.674890,68.510818 1.629158,68.322212 1.000000,68.000000 
	C1.000000,58.312439 1.000000,48.624878 1.372009,38.582771 
	C2.176313,37.585644 2.770485,36.999508 3.017148,36.292191 
	C8.661251,20.107504 19.723869,9.290764 35.596912,3.149980 
	C36.534821,2.787132 37.205154,1.732638 38.000000,1.000000 
	C47.354229,1.000000 56.708454,1.000000 66.419945,1.371891 
	C67.104103,2.103488 67.365913,2.663875 67.767258,2.794020 
	C84.827515,8.326241 96.189064,19.611332 102.067039,36.526314 
	C102.288773,37.164394 103.336945,37.515282 104.000000,38.000000 
M69.653694,5.722043 
	C60.847885,2.234597 51.689709,1.999453 42.599228,3.687249 
	C19.317045,8.009963 2.251251,30.519209 2.651141,54.169353 
	C3.111796,81.413269 27.725760,109.682907 63.593468,102.224899 
	C85.710091,97.626167 99.661819,79.345016 101.858620,60.883110 
	C105.348610,31.553137 89.085442,13.286436 69.653694,5.722043 
z"/>
<path fill="#000000" opacity="1.000000" stroke="none" 
	d="
M37.531342,1.000000 
	C37.205154,1.732638 36.534821,2.787132 35.596912,3.149980 
	C19.723869,9.290764 8.661251,20.107504 3.017148,36.292191 
	C2.770485,36.999508 2.176313,37.585644 1.372009,38.114113 
	C1.000000,25.740049 1.000000,13.480098 1.000000,1.000000 
	C13.020000,1.000000 25.041342,1.000000 37.531342,1.000000 
z"/>
<path fill="#000000" opacity="1.000000" stroke="none" 
	d="
M104.000000,37.531342 
	C103.336945,37.515282 102.288773,37.164394 102.067039,36.526314 
	C96.189064,19.611332 84.827515,8.326241 67.767258,2.794020 
	C67.365913,2.663875 67.104103,2.103488 66.888603,1.371891 
	C79.259949,1.000000 91.519905,1.000000 104.000000,1.000000 
	C104.000000,13.020000 104.000000,25.041342 104.000000,37.531342 
z"/>
<path fill="#000000" opacity="1.000000" stroke="none" 
	d="
M1.000000,68.468658 
	C1.629158,68.322212 2.674890,68.510818 2.827278,68.985947 
	C8.342303,86.181175 20.109549,97.189964 36.705448,103.488579 
	C36.954151,103.582970 37.078548,104.004913 37.130478,104.636993 
	C25.072384,105.000000 13.144766,105.000000 1.000000,105.000000 
	C1.000000,92.979973 1.000000,80.958649 1.000000,68.468658 
z"/>
<path fill="#000000" opacity="1.000000" stroke="none" 
	d="
M68.468658,105.000000 
	C68.459312,104.338760 68.776123,103.312668 69.398727,103.069511 
	C85.847664,96.645355 97.200264,85.411911 102.474678,68.353287 
	C102.550423,68.108299 102.982338,67.973427 103.624016,67.893585 
	C104.000000,80.258942 104.000000,92.517876 104.000000,105.000000 
	C92.313385,105.000000 80.625351,105.000000 68.468658,105.000000 
z"/>
<path fill="#4371C3" opacity="1.000000" stroke="none" 
	d="
M70.024040,5.844727 
	C89.085442,13.286436 105.348610,31.553137 101.858620,60.883110 
	C99.661819,79.345016 85.710091,97.626167 63.593468,102.224899 
	C27.725760,109.682907 3.111796,81.413269 2.651141,54.169353 
	C2.251251,30.519209 19.317045,8.009963 42.599228,3.687249 
	C51.689709,1.999453 60.847885,2.234597 70.024040,5.844727 
M32.360893,60.242050 
	C31.925406,61.082138 31.489920,61.922230 31.474045,63.370609 
	C29.707630,64.373215 27.941216,65.375824 25.620274,67.058823 
	C25.460094,67.597305 25.299915,68.135788 25.166210,68.580254 
	C25.166210,68.580254 25.258081,68.613419 24.488058,68.467674 
	C22.485418,70.442009 20.063025,72.164322 18.661041,74.499313 
	C17.982037,75.630180 19.217321,77.910439 19.585911,79.670311 
	C20.228897,79.434212 20.871883,79.198112 22.059237,79.266251 
	C23.380915,81.254768 24.702595,83.243286 26.023153,85.982544 
	C27.332378,87.381317 28.641603,88.780098 30.230053,90.721878 
	C30.820923,90.785469 31.411793,90.849060 32.707394,91.016350 
	C37.647465,86.250732 42.587536,81.485115 46.921730,76.258171 
	C47.857853,75.678093 48.793976,75.098022 50.361320,74.211021 
	C50.760117,73.647614 51.158916,73.084206 51.934978,71.833633 
	C52.268829,69.697243 52.719234,67.571388 52.913448,65.422379 
	C53.388695,60.163731 54.410000,59.411263 60.061913,60.773575 
	C60.061913,62.162556 60.091293,63.640415 60.057388,65.116814 
	C59.699093,80.719398 60.094223,79.818268 75.408272,79.735847 
	C75.741203,79.734055 76.075943,79.745079 76.406715,79.715385 
	C80.897308,79.312195 82.672012,77.023415 81.567505,72.664574 
	C80.341599,67.826675 78.472183,63.114658 77.680077,58.218864 
	C77.249023,55.554676 77.604073,51.969509 79.127380,49.946266 
	C82.414627,45.580173 82.078270,40.945007 81.951309,36.137753 
	C81.910439,34.590412 81.678474,33.003769 81.930847,31.501799 
	C82.553543,27.795994 81.700150,26.021315 77.387688,26.079742 
	C62.073257,26.287230 46.752277,26.027189 31.438526,26.258467 
	C27.768270,26.313896 24.044746,27.335924 20.477720,28.369120 
	C17.398373,29.261059 16.290468,35.078197 19.044367,36.209663 
	C22.378292,37.579449 21.951578,39.783676 21.822405,42.135574 
	C21.604431,46.104305 23.491989,47.393421 27.246529,47.340942 
	C33.393318,47.255024 39.544632,47.492409 46.248768,48.119614 
	C46.677235,48.388248 47.105701,48.656883 47.678345,49.649601 
	C48.976669,55.438541 44.934448,55.709198 40.224991,56.045540 
	C38.332741,57.126171 36.440495,58.206806 34.663979,59.527302 
	C34.663979,59.527302 34.489372,59.729836 34.489372,59.729836 
	C34.489372,59.729836 34.234688,59.650612 33.563286,59.395454 
	C33.379333,59.548592 33.195381,59.701733 32.360893,60.242050 
z"/>
<path fill="#121519" opacity="1.000000" stroke="none" 
	d="
M45.694038,47.593430 
	C39.544632,47.492409 33.393318,47.255024 27.246529,47.340942 
	C23.491989,47.393421 21.604431,46.104305 21.822405,42.135574 
	C21.951578,39.783676 22.378292,37.579449 19.044367,36.209663 
	C16.290468,35.078197 17.398373,29.261059 20.477720,28.369120 
	C24.044746,27.335924 27.768270,26.313896 31.438526,26.258467 
	C46.752277,26.027189 62.073257,26.287230 77.387688,26.079742 
	C81.700150,26.021315 82.553543,27.795994 81.930847,31.501799 
	C81.678474,33.003769 81.910439,34.590412 81.951309,36.137753 
	C82.078270,40.945007 82.414627,45.580173 79.127380,49.946266 
	C77.604073,51.969509 77.249023,55.554676 77.680077,58.218864 
	C78.472183,63.114658 80.341599,67.826675 81.567505,72.664574 
	C82.672012,77.023415 80.897308,79.312195 76.406715,79.715385 
	C76.075943,79.745079 75.741203,79.734055 75.408272,79.735847 
	C60.094223,79.818268 59.699093,80.719398 60.057388,65.116814 
	C60.091293,63.640415 60.061913,62.162556 60.061913,60.773575 
	C54.410000,59.411263 53.388695,60.163731 52.913448,65.422379 
	C52.719234,67.571388 52.268829,69.697243 51.598984,72.039482 
	C51.262985,72.245331 50.963730,71.975723 50.850281,71.792221 
	C50.564434,71.375000 50.362171,71.170853 50.107597,70.606819 
	C50.277874,68.746361 50.723915,67.242279 50.538265,65.820702 
	C50.464336,65.254593 48.993141,64.870964 48.127556,64.016777 
	C48.071266,63.111607 48.045467,62.593922 48.126499,61.850021 
	C47.248981,60.734894 46.264633,59.845985 45.074158,58.648849 
	C43.913723,58.179150 42.959415,58.017681 41.881248,57.636742 
	C41.508522,56.978973 41.259666,56.540676 41.010811,56.102379 
	C44.934448,55.709198 48.976669,55.438541 47.463757,48.881256 
	C46.730793,47.939754 46.212414,47.766594 45.694038,47.593430 
M78.623474,76.706894 
	C78.848213,75.360893 79.526421,73.898979 79.217239,72.689468 
	C78.036926,68.072174 76.538582,63.536182 75.053329,58.101116 
	C76.127510,53.314426 77.201691,48.527737 78.288017,43.686958 
	C63.642464,43.686958 48.614971,43.686958 33.587475,43.686958 
	C33.584221,44.128220 33.580967,44.569477 33.577713,45.010738 
	C39.963936,45.010738 46.354847,45.160625 52.734840,44.961250 
	C57.469048,44.813313 60.818207,46.433342 62.540581,51.822353 
	C62.625629,52.631233 62.710678,53.440117 62.633125,54.752831 
	C62.680462,55.098785 62.727798,55.444740 62.666527,56.767620 
	C62.646976,58.754581 62.564213,60.743248 62.617863,62.728230 
	C63.054779,78.893372 59.151539,77.445831 78.623474,76.706894 
M74.887619,36.657444 
	C76.077431,36.510029 77.267250,36.362617 78.583824,36.199501 
	C76.405602,33.818810 74.879738,30.702190 72.618660,30.019070 
	C69.217232,28.991421 62.930347,28.329927 62.059090,29.874949 
	C59.671265,34.109344 56.543255,32.749359 53.610634,32.836731 
	C47.471508,33.019615 41.321308,32.851814 35.175972,32.794281 
	C32.918621,32.773148 30.478571,33.309177 29.679054,29.959469 
	C29.523098,29.306080 27.175472,28.826874 25.895908,28.936234 
	C25.245682,28.991804 24.359013,30.483467 24.224009,31.418974 
	C23.999155,32.977097 24.292839,34.610050 24.389307,36.660656 
	C41.216309,36.660656 57.621311,36.660656 74.887619,36.657444 
M37.866253,41.019726 
	C51.797771,41.019726 65.729286,41.019726 79.660805,41.019726 
	C79.650757,40.578014 79.640701,40.136307 79.630653,39.694595 
	C63.980850,39.694595 48.331043,39.694595 32.681240,39.694595 
	C32.674454,40.071178 32.667667,40.447762 32.660881,40.824348 
	C34.099876,40.889435 35.538868,40.954525 37.866253,41.019726 
M37.824818,28.313904 
	C35.965912,28.421907 34.107006,28.529909 30.886623,28.717014 
	C36.479000,31.431131 55.461895,31.056358 58.754868,28.313772 
	C51.625107,28.313772 45.188293,28.313772 37.824818,28.313904 
M24.881924,44.806068 
	C26.480135,44.806068 28.078348,44.806068 29.742428,44.806068 
	C29.742428,42.761662 29.742428,40.910061 29.742428,38.951141 
	C28.543701,38.951141 27.713242,38.886074 26.897657,38.968380 
	C25.973932,39.061596 25.063543,39.286957 24.013824,39.479336 
	C24.106604,41.218361 24.185333,42.694019 24.881924,44.806068 
z"/>
<path fill="#E7CE7B" opacity="1.000000" stroke="none" 
	d="
M42.005112,57.856209 
	C42.959415,58.017681 43.913723,58.179150 45.008652,58.990990 
	C45.102570,60.101822 45.055859,60.562283 44.609673,61.019516 
	C39.471577,61.120129 39.080227,63.890644 40.125259,67.967964 
	C40.025005,68.616524 39.984196,68.875832 39.510216,69.045547 
	C32.902306,68.425560 30.850498,70.274292 30.619017,75.534866 
	C28.865786,76.144051 26.526297,76.791023 26.561560,76.969948 
	C26.984093,79.113716 26.263018,82.229347 29.787430,82.385605 
	C29.053087,83.361382 28.536764,84.143517 27.704002,84.788780 
	C26.933136,84.845207 26.478704,85.038506 26.024275,85.231804 
	C24.702595,83.243286 23.380915,81.254768 21.600288,78.801620 
	C21.365053,76.860733 21.286190,75.245743 21.884357,73.941185 
	C22.752554,72.047707 24.109550,70.378357 25.258083,68.613419 
	C25.258081,68.613419 25.166210,68.580254 25.704559,68.822929 
	C26.723387,68.324951 27.203869,67.584297 27.684349,66.843643 
	C27.181168,66.688568 26.677984,66.533493 26.174801,66.378426 
	C27.941216,65.375824 29.707630,64.373215 31.343256,63.392818 
	C31.831778,63.010941 32.451088,62.606857 33.461170,61.964966 
	C33.979527,61.034977 34.107105,60.342793 34.234688,59.650612 
	C34.234688,59.650612 34.489372,59.729836 34.489372,59.729836 
	C34.489372,59.729836 34.663979,59.527302 34.682747,59.800026 
	C37.136047,59.333904 39.570580,58.595055 42.005112,57.856209 
z"/>
<path fill="#EED57F" opacity="1.000000" stroke="none" 
	d="
M28.020439,84.925652 
	C28.536764,84.143517 29.053087,83.361382 30.171101,82.496429 
	C34.217113,80.995293 36.974709,79.133400 35.449760,74.628853 
	C38.396290,75.326904 41.590122,76.689186 39.601517,71.549683 
	C39.345497,70.887993 39.811729,69.946838 39.943386,69.135147 
	C39.984196,68.875832 40.025005,68.616524 40.456970,68.155861 
	C45.509819,71.352432 46.524918,67.242096 48.158039,64.404259 
	C48.993141,64.870964 50.464336,65.254593 50.538265,65.820702 
	C50.723915,67.242279 50.277874,68.746361 49.981556,70.846924 
	C49.842556,71.653694 49.807140,71.830894 49.371773,72.446915 
	C49.224579,73.429810 49.477341,73.973877 49.730099,74.517944 
	C48.793976,75.098022 47.857853,75.678093 47.079590,75.984245 
	C45.938755,76.593681 44.503567,77.330330 43.366844,78.387794 
	C39.894497,81.618042 36.536987,84.971741 32.912975,88.018646 
	C31.483147,87.166344 30.275137,86.572807 28.830465,85.873718 
	C28.402681,85.487335 28.211561,85.206490 28.020439,84.925652 
z"/>
<path fill="#121519" opacity="1.000000" stroke="none" 
	d="
M33.134796,88.277405 
	C36.536987,84.971741 39.894497,81.618042 43.366844,78.387794 
	C44.503567,77.330330 45.938755,76.593681 47.382530,76.214912 
	C42.587536,81.485115 37.647465,86.250732 32.478264,90.716110 
	C32.493290,89.919609 32.737446,89.423347 33.034767,88.768173 
	C33.087929,88.609261 33.134796,88.277405 33.134796,88.277405 
z"/>
<path fill="#161612" opacity="1.000000" stroke="none" 
	d="
M24.873070,68.540543 
	C24.109550,70.378357 22.752554,72.047707 21.884357,73.941185 
	C21.286190,75.245743 21.365053,76.860733 21.328104,78.649498 
	C20.871883,79.198112 20.228897,79.434212 19.585911,79.670311 
	C19.217321,77.910439 17.982037,75.630180 18.661041,74.499313 
	C20.063025,72.164322 22.485418,70.442009 24.873070,68.540543 
z"/>
<path fill="#161612" opacity="1.000000" stroke="none" 
	d="
M41.881248,57.636742 
	C39.570580,58.595055 37.136047,59.333904 34.624878,59.680096 
	C36.440495,58.206806 38.332741,57.126171 40.617901,56.073959 
	C41.259666,56.540676 41.508522,56.978973 41.881248,57.636742 
z"/>
<path fill="#0F1319" opacity="1.000000" stroke="none" 
	d="
M27.704002,84.788780 
	C28.211561,85.206490 28.402681,85.487335 28.917665,86.113113 
	C29.533411,86.865860 29.825294,87.273666 30.083998,88.097107 
	C30.017487,89.068115 29.984156,89.623497 29.950825,90.178879 
	C28.641603,88.780098 27.332378,87.381317 26.023714,85.607178 
	C26.478704,85.038506 26.933136,84.845207 27.704002,84.788780 
z"/>
<path fill="#161612" opacity="1.000000" stroke="none" 
	d="
M30.090439,90.450378 
	C29.984156,89.623497 30.017487,89.068115 30.373154,88.234779 
	C31.457527,88.280251 32.219563,88.603676 32.981598,88.927094 
	C32.737446,89.423347 32.493290,89.919609 32.125900,90.664261 
	C31.411793,90.849060 30.820923,90.785469 30.090439,90.450378 
z"/>
<path fill="#0F1319" opacity="1.000000" stroke="none" 
	d="
M33.070396,62.202774 
	C32.451088,62.606857 31.831778,63.010941 31.133450,63.088673 
	C31.489920,61.922230 31.925406,61.082138 32.692116,60.440121 
	C33.039028,61.159718 33.054710,61.681248 33.070396,62.202774 
z"/>
<path fill="#0F1319" opacity="1.000000" stroke="none" 
	d="
M25.897537,66.718628 
	C26.677984,66.533493 27.181168,66.688568 27.684349,66.843643 
	C27.203869,67.584297 26.723387,68.324951 25.691322,68.869934 
	C25.299915,68.135788 25.460094,67.597305 25.897537,66.718628 
z"/>
<path fill="#121519" opacity="1.000000" stroke="none" 
	d="
M50.045708,74.364487 
	C49.477341,73.973877 49.224579,73.429810 49.669888,72.440628 
	C50.566547,71.988914 50.765141,71.982323 50.963730,71.975723 
	C50.963730,71.975723 51.262985,72.245331 51.410347,72.383057 
	C51.158916,73.084206 50.760117,73.647614 50.045708,74.364487 
z"/>
<path fill="#161612" opacity="1.000000" stroke="none" 
	d="
M33.461170,61.964966 
	C33.054710,61.681248 33.039028,61.159718 33.017384,60.246536 
	C33.195381,59.701733 33.379333,59.548592 33.898987,59.523033 
	C34.107105,60.342793 33.979527,61.034977 33.461170,61.964966 
z"/>
<path fill="#4879CF" opacity="1.000000" stroke="none" 
	d="
M45.971405,47.856522 
	C46.212414,47.766594 46.730793,47.939754 47.391670,48.519215 
	C47.105701,48.656883 46.677235,48.388248 45.971405,47.856522 
z"/>
<path fill="#6B6B6B" opacity="1.000000" stroke="none" 
	d="
M74.456970,36.659050 
	C57.621311,36.660656 41.216309,36.660656 24.389307,36.660656 
	C24.292839,34.610050 23.999155,32.977097 24.224009,31.418974 
	C24.359013,30.483467 25.245682,28.991804 25.895908,28.936234 
	C27.175472,28.826874 29.523098,29.306080 29.679054,29.959469 
	C30.478571,33.309177 32.918621,32.773148 35.175972,32.794281 
	C41.321308,32.851814 47.471508,33.019615 53.610634,32.836731 
	C56.543255,32.749359 59.671265,34.109344 62.059090,29.874949 
	C62.930347,28.329927 69.217232,28.991421 72.618660,30.019070 
	C74.879738,30.702190 76.405602,33.818810 78.583824,36.199501 
	C77.267250,36.362617 76.077431,36.510029 74.456970,36.659050 
z"/>
<path fill="#5D5D5D" opacity="1.000000" stroke="none" 
	d="
M62.775139,55.790695 
	C62.727798,55.444740 62.680462,55.098785 62.929062,54.236633 
	C62.973122,52.819321 62.721249,51.918205 62.469376,51.017094 
	C60.818207,46.433342 57.469048,44.813313 52.734840,44.961250 
	C46.354847,45.160625 39.963936,45.010738 33.577713,45.010738 
	C33.580967,44.569477 33.584221,44.128220 33.587475,43.686958 
	C48.614971,43.686958 63.642464,43.686958 78.288017,43.686958 
	C77.201691,48.527737 76.127510,53.314426 74.695572,58.620720 
	C74.062851,59.190239 73.787903,59.240150 73.353455,58.943871 
	C70.167313,58.125645 67.140671,57.653606 63.917938,56.926483 
	C63.406284,56.377834 63.090710,56.084267 62.775139,55.790695 
z"/>
<path fill="#CCC6BC" opacity="1.000000" stroke="none" 
	d="
M37.422058,41.019669 
	C35.538868,40.954525 34.099876,40.889435 32.660881,40.824348 
	C32.667667,40.447762 32.674454,40.071178 32.681240,39.694595 
	C48.331043,39.694595 63.980850,39.694595 79.630653,39.694595 
	C79.640701,40.136307 79.650757,40.578014 79.660805,41.019726 
	C65.729286,41.019726 51.797771,41.019726 37.422058,41.019669 
z"/>
<path fill="#C2C1BD" opacity="1.000000" stroke="none" 
	d="
M38.288147,28.313839 
	C45.188293,28.313772 51.625107,28.313772 58.754868,28.313772 
	C55.461895,31.056358 36.479000,31.431131 30.886623,28.717014 
	C34.107006,28.529909 35.965912,28.421907 38.288147,28.313839 
z"/>
<path fill="#161612" opacity="1.000000" stroke="none" 
	d="
M48.127556,64.016777 
	C46.524918,67.242096 45.509819,71.352432 40.516418,67.766617 
	C39.080227,63.890644 39.471577,61.120129 44.845356,61.247055 
	C46.326900,61.677292 47.173283,61.876762 48.019669,62.076237 
	C48.045467,62.593922 48.071266,63.111607 48.127556,64.016777 
M42.493908,65.240631 
	C42.207306,65.039665 41.920704,64.838692 41.634102,64.637726 
	C41.817986,64.935387 42.001869,65.233055 42.493908,65.240631 
M43.461365,62.513054 
	C43.461365,62.513054 43.532257,62.479919 43.461365,62.513054 
z"/>
<path fill="#525252" opacity="1.000000" stroke="none" 
	d="
M73.512947,59.290058 
	C73.787903,59.240150 74.062851,59.190239 74.748413,59.055077 
	C76.538582,63.536182 78.036926,68.072174 79.217239,72.689468 
	C79.526421,73.898979 78.848213,75.360893 78.120506,76.589432 
	C77.309074,76.205215 77.000610,75.938454 76.821747,75.290375 
	C75.805199,69.702728 74.659073,64.496391 73.512947,59.290058 
z"/>
<path fill="#D3CCC1" opacity="1.000000" stroke="none" 
	d="
M24.572994,44.487877 
	C24.185333,42.694019 24.106604,41.218361 24.013824,39.479336 
	C25.063543,39.286957 25.973932,39.061596 26.897657,38.968380 
	C27.713242,38.886074 28.543701,38.951141 29.742428,38.951141 
	C29.742428,40.910061 29.742428,42.761662 29.742428,44.806068 
	C28.078348,44.806068 26.480135,44.806068 24.572994,44.487877 
z"/>
<path fill="#6B6B6B" opacity="1.000000" stroke="none" 
	d="
M76.692154,75.671684 
	C77.000610,75.938454 77.309074,76.205215 77.795891,76.720856 
	C59.151539,77.445831 63.054779,78.893372 62.617863,62.728230 
	C62.564213,60.743248 62.646976,58.754581 62.720833,56.279160 
	C63.090710,56.084267 63.406284,56.377834 63.887802,57.379322 
	C64.041374,59.898418 63.969177,61.711475 64.026199,63.520466 
	C64.451080,76.999664 60.867214,76.026054 76.692154,75.671684 
z"/>
<path fill="#2B281F" opacity="1.000000" stroke="none" 
	d="
M48.126495,61.850021 
	C47.173283,61.876762 46.326900,61.677292 45.244835,61.250282 
	C45.055859,60.562283 45.102570,60.101822 45.214783,59.299217 
	C46.264633,59.845985 47.248981,60.734894 48.126495,61.850021 
z"/>
<path fill="#6B6B6B" opacity="1.000000" stroke="none" 
	d="
M62.504978,51.419724 
	C62.721249,51.918205 62.973122,52.819321 63.010361,53.984715 
	C62.710678,53.440117 62.625629,52.631233 62.504978,51.419724 
z"/>
<path fill="#161612" opacity="1.000000" stroke="none" 
	d="
M50.850281,71.792221 
	C50.765141,71.982323 50.566547,71.988914 50.069839,72.001801 
	C49.807140,71.830894 49.842556,71.653694 50.004013,71.236389 
	C50.362171,71.170853 50.564434,71.375000 50.850281,71.792221 
z"/>
<path fill="#1D190F" opacity="1.000000" stroke="none" 
	d="
M39.510216,69.045547 
	C39.811729,69.946838 39.345497,70.887993 39.601517,71.549683 
	C41.590122,76.689186 38.396290,75.326904 35.449760,74.628853 
	C36.974709,79.133400 34.217113,80.995293 30.389122,82.302780 
	C26.263018,82.229347 26.984093,79.113716 26.561560,76.969948 
	C26.526297,76.791023 28.865786,76.144051 30.619017,75.534866 
	C30.850498,70.274292 32.902306,68.425560 39.510216,69.045547 
z"/>
<path fill="#E7CE7B" opacity="1.000000" stroke="none" 
	d="
M33.034763,88.768181 
	C32.219563,88.603676 31.457527,88.280251 30.406334,87.819153 
	C29.825294,87.273666 29.533411,86.865860 29.154329,86.218658 
	C30.275137,86.572807 31.483147,87.166344 32.912975,88.018646 
	C33.134796,88.277405 33.087929,88.609261 33.034763,88.768181 
z"/>
<path fill="#22211F" opacity="1.000000" stroke="none" 
	d="
M76.821747,75.290375 
	C60.867214,76.026054 64.451080,76.999664 64.026199,63.520466 
	C63.969177,61.711475 64.041374,59.898418 64.083878,57.634407 
	C67.140671,57.653606 70.167313,58.125645 73.353455,58.943871 
	C74.659073,64.496391 75.805199,69.702728 76.821747,75.290375 
M67.293556,59.103149 
	C66.954773,63.609440 66.615990,68.115730 66.258263,72.874008 
	C69.460640,72.874008 71.841782,72.874008 74.680145,72.874008 
	C73.523872,68.692802 72.630463,64.818558 71.303596,61.098938 
	C70.954956,60.121582 69.263855,59.623108 67.293556,59.103149 
z"/>
<path fill="#2B281F" opacity="1.000000" stroke="none" 
	d="
M42.339832,65.385674 
	C42.001869,65.233055 41.817986,64.935387 41.634102,64.637726 
	C41.920704,64.838692 42.207306,65.039665 42.339832,65.385674 
z"/>
<path fill="#2B281F" opacity="1.000000" stroke="none" 
	d="
M43.496811,62.496487 
	C43.532257,62.479919 43.461365,62.513054 43.496811,62.496487 
z"/>
<path fill="#CBC3B6" opacity="1.000000" stroke="none" 
	d="
M67.741402,59.003929 
	C69.263855,59.623108 70.954956,60.121582 71.303596,61.098938 
	C72.630463,64.818558 73.523872,68.692802 74.680145,72.874008 
	C71.841782,72.874008 69.460640,72.874008 66.258263,72.874008 
	C66.615990,68.115730 66.954773,63.609440 67.741402,59.003929 
z"/>
</svg>